<svg xmlns="http://www.w3.org/2000/svg" preserveAspectRatio="none" viewBox="0 0 747.963 326.872">
  <path id="middle" d="M2611.028,428.913l31.751-4.2s24.494,1.883,25.935,1.883,35.54-7.534,37.941-8,14.888-8.476,14.888-8.476,13.928,2.354,17.29,1.883,12.967-11.3,14.408-11.3,26.415,9.417,26.415,9.417l23.053,6.592,25.934,12.2,33.138-21.617,17.29-6.592s23.053-8.476,29.3-10.359,55.711,2.354,59.073,2.354,29.776-4.709,29.776-4.709h17.77l35.54-22.6,30.737-15.068,35.06-20.247,24.494-16.48,15.7-13.655H3171.5l24.349,8.57,21.228,5.085,12.487-13.655s13.111,11.4,16.857,13.655,26.223,12.666,26.223,12.666,20.6,14.691,21.852,16.527,29.344,14.079,31.217,14.691,25.6,3.673,25.6,3.673L3321.343,400.7,3294.5,412l-26.847,12.713-21.228,22.742-24.349,18.976-18.106,11.018-14.36,14.691L3171.5,505l-23.725,17.139s-19.979,9.182-21.852,9.182-28.72,15.3-28.72,15.3L3064.738,565.6l-25.6-3.061-49.948,31.218-17.481,8.57-39.333,24.485H2603.348Z" transform="translate(-2603.348 -299.939)" fill="#689182"/>
</svg>
