<svg xmlns="http://www.w3.org/2000/svg" preserveAspectRatio="none" viewBox="0 0 1920.76 1226.083">
  <path id="right" d="M3910,323.482l-7.028-5.65-10.359,5.65-13.184-1.883-6.592,3.767-16.951-13.655-31.077-11.3-25.9-12.242-15.538-27.781L3763.6,245.319l-45.2-8-44.261-11.3-33.9-7.534L3603.5,200.587l-12.242,13.184-6.592,16.951-20.247,6.592h-12.713l-11.3,18.364s-21.66,8.946-24.014,10.359-17.893,0-17.893,0-8.946,5.65-10.359,8.946-8.476,23.072-8.476,23.072-2.825,16.951-4.238,16.951-20.718,10.359-20.718,10.359l-16.48,20.718-22.13,6.592-28.252,2.825-24.014-9.417-15.068,6.592-18.834,18.834-18.364,23.072-27.31,15.538-27.781,16.48-24.014,19.776-20.718,18.364L3184.908,483.1l-17.422,16.009L3135.938,520.3l-36.256,18.364L3067.663,557.5l-36.727,4.709-40.965,24.485-28.722,17.422-25.9,20.718H3910Z" transform="translate(-1989.24 0.5)" fill="#91d5a1"/>
  <path id="left" d="M1990,256.479l11.022-9.182,15.3-8.57,10.406-11.018,11.63,4.9,9.794,6.121,10.406-11.018h10.406c1.836,0,13.467-9.794,13.467-9.794l8.57-9.182,11.63-3.061,25.1,12.242,31.218,12.242,32.442,12.242,22.036,8.57,17.139,24.485,63.048,31.218H2358.5l33.055,18.976,47.745,12.242,15.3,13.467s15.915,29.994,17.139,32.442,20.2,19.588,20.2,19.588l34.891,10.406,25.1,11.018,34.279-4.285s15.915,6.733,25.1,11.018,32.443,15.915,34.279,16.527,42.236,18.976,42.236,18.976l26.933,25.709s15.915,29.994,23.261,32.442,38.563,29.382,41.624,31.83,41.624,26.321,41.624,26.321L2880,592.759s66.207,1.034,75.517,4.138S3030,624.828,3030,624.828H1990Z" transform="translate(-1989.24 1.5)" fill="#91d5a1"/>
  <path id="Green" d="M1990,626.811v616.151H3910.76V626.811Z" transform="translate(-1990 -16.88)" fill="#91d5a1"/>
</svg>
