<svg xmlns="http://www.w3.org/2000/svg"  viewBox="0 0 1920.76 1080.5" preserveAspectRatio="none">
  <path id="sky" d="M1989.24,0V613.242H3908.655V0Z" transform="translate(-1988.48 0.5)" fill="#1f315b" stroke="#707070" stroke-width="1"/>
  <g id="_3_Mountains" data-name="3 Mountains" transform="translate(0.76 0.5)">
    <path id="middle" d="M2611.028,428.913l31.751-4.2s24.494,1.883,25.935,1.883,35.54-7.534,37.941-8,14.888-8.476,14.888-8.476,13.928,2.354,17.29,1.883,12.967-11.3,14.408-11.3,26.415,9.417,26.415,9.417l23.053,6.592,25.934,12.2,33.138-21.617,17.29-6.592s23.053-8.476,29.3-10.359,55.711,2.354,59.073,2.354,29.776-4.709,29.776-4.709h17.77l35.54-22.6,30.737-15.068,35.06-20.247,24.494-16.48,15.7-13.655H3171.5l24.349,8.57,21.228,5.085,12.487-13.655s13.111,11.4,16.857,13.655,26.223,12.666,26.223,12.666,20.6,14.691,21.852,16.527,29.344,14.079,31.217,14.691,25.6,3.673,25.6,3.673L3321.343,400.7,3294.5,412l-26.847,12.713-21.228,22.742-24.349,18.976-18.106,11.018-14.36,14.691L3171.5,505l-23.725,17.139s-19.979,9.182-21.852,9.182-28.72,15.3-28.72,15.3L3064.738,565.6l-25.6-3.061-49.948,31.218-17.481,8.57-39.333,24.485H2603.348Z" transform="translate(-1990)" fill="#689182"/>
    <path id="right" d="M3910,323.482l-7.028-5.65-10.359,5.65-13.184-1.883-6.592,3.767-16.951-13.655-31.077-11.3-25.9-12.242-15.538-27.781L3763.6,245.319l-45.2-8-44.261-11.3-33.9-7.534L3603.5,200.587l-12.242,13.184-6.592,16.951-20.247,6.592h-12.713l-11.3,18.364s-21.66,8.946-24.014,10.359-17.893,0-17.893,0-8.946,5.65-10.359,8.946-8.476,23.072-8.476,23.072-2.825,16.951-4.238,16.951-20.718,10.359-20.718,10.359l-16.48,20.718-22.13,6.592-28.252,2.825-24.014-9.417-15.068,6.592-18.834,18.834-18.364,23.072-27.31,15.538-27.781,16.48-24.014,19.776-20.718,18.364L3184.908,483.1l-17.422,16.009L3135.938,520.3l-36.256,18.364L3067.663,557.5l-36.727,4.709-40.965,24.485-28.722,17.422-25.9,20.718H3910Z" transform="translate(-1990)" fill="#91d5a1"/>
    <path id="left" d="M1990,256.479l11.022-9.182,15.3-8.57,10.406-11.018,11.63,4.9,9.794,6.121,10.406-11.018h10.406c1.836,0,13.467-9.794,13.467-9.794l8.57-9.182,11.63-3.061,25.1,12.242,31.218,12.242,32.442,12.242,22.036,8.57,17.139,24.485,63.048,31.218H2358.5l33.055,18.976,47.745,12.242,15.3,13.467s15.915,29.994,17.139,32.442,20.2,19.588,20.2,19.588l34.891,10.406,25.1,11.018,34.279-4.285s15.915,6.733,25.1,11.018,32.443,15.915,34.279,16.527,42.236,18.976,42.236,18.976l26.933,25.709s15.915,29.994,23.261,32.442,38.563,29.382,41.624,31.83,41.624,26.321,41.624,26.321L2880,592.759s66.207,1.034,75.517,4.138S3030,624.828,3030,624.828H1990Z" transform="translate(-1990 1)" fill="#91d5a1"/>
  </g>
  <path id="water" d="M1990,626.811V1097.38H3910.76V626.811Z" transform="translate(-1990 -16.88)" fill="#91d5a1"/>
</svg>
