<svg xmlns="http://www.w3.org/2000/svg" preserveAspectRatio="none" viewBox="0 0 1920 680.495">
  <g id="treees_Group_1" data-name="treees Group  1" transform="translate(-4.24 -156.505)">
    <g id="Group_1" data-name="Group 1" transform="translate(4.24 243.699)">
      <path id="Path_7" data-name="Path 7" d="M3256.382,2115.055v-98.2s-6.983,1.309-11.348,3.928-12.221,3.928-12.221,3.928-2.182-7.42,0-7.856,9.6-3.492,9.6-3.492h10.475s-1.746-7.42,0-8.729,3.491-14.839,3.491-14.839v-11.348l-13.967,4.8-9.6,4.365-4.365-4.365,7.42-4.8h6.547l5.674-2.182,8.292-5.238v-10.475l-3.491-3.492s4.8-3.055-7.856,0-16.585,3.492-16.585,3.492h-9.166l3.928-3.492s.437-.873,5.238-1.746,11.784-2.182,11.784-2.182,13.32,2,12.657,0-.112-9.232,0-10.265a4.192,4.192,0,0,0,0-2.583c-.4-1.808-.921-2.841-1.7-3.1a24.685,24.685,0,0,0-6.16-1.291h-9.166s-5.631,1.549-7.42,1.291a11.015,11.015,0,0,0-4.113,0c-1.808.258-1.808-.258-3.357,0s-1.55-1.291-4.649,0a22.155,22.155,0,0,1-7.231,1.291l-2.066-2.583s5.681-2.324,6.456-2.324h9.722s10.422-2.066,11.455-2.066a29.987,29.987,0,0,0,5.567,0c4.763-.258,13.8,0,13.8,0a7.785,7.785,0,0,0-1.145-3.1c-.921-1.291,0-9.039,0-9.039v-2.324h-7.856c-3.137,0-4.945-1.033-6.752,0s-8.264,1.033-8.264,1.033l-5.682-2.583,5.682-1.808h10.216s-.843-1.033,4.8-1.291a56.615,56.615,0,0,1,7.856,0s.146-3.616,0-4.649,3.986-2.841-1.7-2.841-5.937-.517-8.779,0-2.761,1.291-6.547,1.55-1.461-.775-5.851,0-6.806,1.291-6.806,1.291-6.4,1.55-3.928-1.291.921-3.1,5.053-3.1,1.55-.258,5.682,0,3.357.517,6.973,0,.519,1.291,5.425,0,3.86-1.291,5.674-1.291h4.8a4.985,4.985,0,0,0,0-3.874,31.928,31.928,0,0,1-1.7-4.39,12.635,12.635,0,0,0-4.649-2.583c-2.324-.517-9.3-2.583-9.555-2.583h-9.814l-6.2,1.291s-2.583,4.907-3.1,5.682-3.1.517-3.1-1.808a7.71,7.71,0,0,1,1.55-5.165,9.2,9.2,0,0,1,4.649-3.1c2.324-.775.258,1.033,6.2,0s3.357,1.291,7.49,0a29.556,29.556,0,0,1,10.368-1.291c1.254.258,6.16,1.291,6.16,1.291l1.7-4.907-1.7-2.066v-5.165s-3.282.517-6.16,1.291a49.325,49.325,0,0,1-6.752,1.549c-2.066.258-8.3,1.033-9.833,1.033h-10.57s-1.033-2.583,0-2.583,2.324-1.033,8.006-1.291,7.828.516,9.983,0,3.191,1.808,6.547,0a93.626,93.626,0,0,1,8.779-3.874s2.617-5.423,1.7-5.423-7.633.775-10.475,0-3.1-2.583-7.749-1.291-5.94,2.583-7.49,1.291-2.841-4.907-2.841-4.907h2.841l4.132,1.55h8.924l10.961,2.066v-13.429s-6.2-1.033-8.779,0-4.569.258-6.547,1.55-1.2,1.033-4.56,1.808-4.39-1.55-6.973,0-4.166,3.357-5.053,2.066a13.348,13.348,0,0,1-1.4-3.874s-.258-1.55,0-1.55a5.154,5.154,0,0,0,3.1,0c2.066-.516,1.808.258,3.357,0s3.061,1.033,4.113,0-1.531-.516,2.86-1.55,7.26-2.841,8.924-2.583a27.8,27.8,0,0,0,4.8,0l4.353,1.549,3.5,1.033v-2.583s-.933-2.583-4.8-2.583-3.322-.258-7.856,0-8.408-.517-8.924,0-.813,1.291-2.86,0-5.238-3.1-5.238-3.1-4.224-1.55,0-1.55a72.983,72.983,0,0,1,11.455,1.55h16.528v-9.039s-6.457.516-7.49,0-4.907,1.033-6.715,0-4.132-.775-5.682-1.291a29.234,29.234,0,0,1-4.132-1.55c-.258-.258-2.841,0-2.841,0l-3.357-2.324s-.441-1.808,2.233-1.291,5.773.516,6.806,1.291,5.423,2.583,8.264,2.324,4.132-.516,5.423,0,5.165,2.066,5.682,1.55,1.808,0,1.808,0-.4-5.084,0-5.848-.244-1.834,0-2.751-3.882-1.987-3.882-1.987a12.743,12.743,0,0,0-4.9-1.223h-4.134a31.906,31.906,0,0,0-5.64,0c-3.515.306-4.126-.306-6.113,0s-.829.153-3.318,0a19.029,19.029,0,0,1-6.156-1.681c-.458-.306.789-2.751,2.228-2.751s2.051-.764,3.12,0a6.555,6.555,0,0,0,3.482,1.223,47.035,47.035,0,0,1,5.423.917,14.844,14.844,0,0,0,4.56.611h4.365c2.8,0,5.394.153,6.313,0a16.6,16.6,0,0,1,2.841,0s1.135.917,1.135-.611v-2.139s2.75-.917,0-1.375-4.769-1.07-6.816-1.07-.618.458-3.472,0-2.473-.306-5.567-.764a35.557,35.557,0,0,1-5.539-.917c-1.375-.458-4.649-1.528-5.916-2.139a37.281,37.281,0,0,1-3.928-2.6s5.194,0,6.6.764,3.089,1.987,3.242,1.834-.527-1.375,2.182,0,3.917,1.987,5.682,2.139,2.375,1.223,4.362.917a32.115,32.115,0,0,1,6.737,0c.445.153,2.737.611,2.432,0s.735-2.292.673-3.056.521-1.222,0-1.834-.192-.764-1.808-.764-1.282.611-4.353,0-3.223-.917-5.974-1.375-2.75-.306-6.418-.917-1.815.764-4.193-.764a32.944,32.944,0,0,1-5.238-4.737,3.4,3.4,0,0,1,3.965,0c2.409,1.375.27.611,5.465,2.751a75.234,75.234,0,0,0,7.591,2.751c1.272.458.17.611,3.472.917a44.072,44.072,0,0,0,6.816,0v-5.5c0-.764-.13-2.6-1.135-3.362s.982-1.07-2.074-1.223a13.245,13.245,0,0,1-4.9-.917,22.148,22.148,0,0,0-4.134-1.07c-3.195-.611-3.5.153-4.876-1.07a18.723,18.723,0,0,1-2.1-2.139,32.313,32.313,0,0,0,3.357.917c2.56.611,1.309,1.528,3.615,1.223s-1.667-.153,3.071,0,6.737,0,6.737,0l3.105,1.07s.7-.611-.673-3.973-5.075-4.126-6.816-3.973-2.076-.611-5.423,0-3.195,1.223-5.64.611-1.834.306-3.515-.611-4.791-2.9-4.791-2.9,3.874-1.681,4.791-1.07,1.375,2.6,3.515,2.6,6.472-.458,7.591,0,3.44,2.292,4.8,1.375,1.693-2.6,3.055-1.375a13.326,13.326,0,0,0,3.105,1.987s-.521-2.6-.673-3.515-.13-.917-1.135-2.139-2.871-.917-5.682-1.375-2.993-.917-5.423-1.528a46.438,46.438,0,0,0-4.876-.917s-1.223-1.07,0-1.222,3.486,0,4.876,0,.473,1.07,3.071,1.222a22.728,22.728,0,0,1,5.193.917c1.989.458,2.012-1.375,2.841,0a2.936,2.936,0,0,0,1.808,1.528s-.4-3.362,0-3.667-1.411-1.528-3.105-1.681-.137.917-3.055,0-3.781-.917-4.8-1.528-1.951-1.223-1.951-1.223v-.764l5.423.764h3.607l3.209,1.223v-6.113a14.545,14.545,0,0,0-3.209-2.292c-1.222-.458-4.737-1.07-5.96-1.528s-4.362-1.528-4.362-1.528-1.868-1.681-1.122-1.834,1.052-2.292,3.192,0,7.486,3.362,7.486,3.362h3.975v-3.362s-4.709-3.056-5.487-2.9-6.127-4.279-5.974-4.89,3.973,1.07,3.973,1.07l5.056,3.209,1.3.611v-8.4l1.808-7.182v9.169s2.231,3.209,1.7,3.973,1.145,2.445,1.145,2.445l3.821,1.375s-.153.306,1.375.764,2.6.153,2.751.764-1.222,2.292-1.987,1.834-4.738-1.528-5.2-1.834-3.605-1.528-3.605-1.528,3.146,3.82,2.841,4.89.152,2.751,0,4.432.458,2.6,0,3.515-.765,2.445,0,1.987,0,.458,2.446,0,2.292.611,3.515,0a8.233,8.233,0,0,1,3.209-1.223,22.364,22.364,0,0,1,3.362,0,11.1,11.1,0,0,1-2.139,2.751c-.917.611.764.306-1.222.917s-2.292.306-3.973.764-1.986,1.834-2.75,1.222a1.5,1.5,0,0,0-1.681,0l-.765.917a5.256,5.256,0,0,1,.765,2.292v1.681s-1.069,2.139,1.681,1.07,3.82-1.681,5.5-2.139,1.987-1.07,3.515-1.375a5.175,5.175,0,0,1,2.445,0,1.421,1.421,0,0,1-.764,1.375c-.917.611-1.07.458-2.751,1.07s-.306.306-2.445,1.07-1.987,1.834-2.751,1.528-2.445-.764-2.75,0-1.681,1.375-1.681,1.375a4.875,4.875,0,0,1,0,1.528,3.04,3.04,0,0,0,0,1.223s-2.292.611.917,0,3.973-.458,5.654-1.223.612-.458,4.126-.917a66.264,66.264,0,0,1,6.724-.611c.764,0,1.681,1.528,0,1.528s1.834-2.139-3.362,0-10.391,4.126-10.391,4.126l-4.432-.917s-.306,2.751,0,3.209-.306,1.223,0,1.987-.612.458,0,1.223.306-.458,2.446,0,1.528,0,4.89,0,4.585.764,5.807,0a6.4,6.4,0,0,1,2.9-1.223c1.834-.458,3.821,2.139,3.821,2.139a1.688,1.688,0,0,1-1.681,1.528H3265.5c-.764,0-.153-.764-2.292,0s-1.07-.458-3.973.917-4.584,1.07-4.432,1.834a27.683,27.683,0,0,1,0,5.043c-.153.306-.458,2.292.917,1.834s3.515.153,5.654-1.07,5.349-1.681,7.488-2.139-.306-.153,3.362-.917,8.4-2.751,9.169-2.751,5.2-.764,3.82,0-.306.611-2.139,1.987-2.292,3.056-3.667,3.056.611-.611-1.987,0-3.973.917-5.2.764a24.65,24.65,0,0,0-3.362,0c-1.07,0-2.75-.917-3.362,0a4.377,4.377,0,0,1-3.515,1.834c-1.834.153-2.292-1.07-3.515,0a18.033,18.033,0,0,1-3.668,2.139l-.765,2.751s.612,3.82.765,5.807,2.6.306,3.056,0,2.292,0,3.515-1.681,1.681-3.668,3.056-4.126,1.375.153,2.139-1.07,4.431-4.279,3.515-2.9.306,3.973-1.222,5.349-3.515,1.681-4.432,2.751.459.153-1.222,1.681-1.528,1.375-2.6,2.445a8.23,8.23,0,0,1-2.139,1.834c-.458.153-2.445.458-2.751.917a31.271,31.271,0,0,0-.917,4.279,2.955,2.955,0,0,0,1.681.784c1.07.133,3.362-.478,4.89-.784s1.987-.942,5.807-1.541,3.667-1.067,5.807-1.291,3.209-.683,4.432-.683h1.987s-.306,1.961-1.987,1.974a7.111,7.111,0,0,0-3.515.777c-1.528.611-1.681,1.109-3.821,1.548s-3.362,1.59-4.584,1.55-5.043,1.248-5.5,1.291-3.362-.5-3.515,0-1.681,0-1.681,0v5.239l1.681,4.584v2.315s6.877-.94,7.946-1.7-.152-1.916,2.139-2.945,3.821-2.113,6.418-3.1,3.21-.833,4.432-2.055a31.614,31.614,0,0,1,4.889-4.279c1.375-.764,3.973-2.775,5.348-3.221s5.349-4.725,5.349-4.725l2.292-.764-2.292,5.489-5.349,3.874s-5.347,3.473-6.265,3.626-4.127,3.056-5.808,3.82-9.015,4.279-9.015,4.279-2.291,3.989-3.362,4.286-6.724,2.583-6.724,2.583a25.663,25.663,0,0,1,1.375,4.907c0,1.213-1.527,7.311-1.375,8.006s1.375,4.057,1.375,4.057,2.9-2.445,5.349-2.751a21.938,21.938,0,0,0,5.654-1.307c2.444-.833,3.057-1.9,5.043-2.667a13.683,13.683,0,0,0,4.431-2.292c2.139-1.528,4.737-2.121,6.265-3.047s3.056-1.808,3.056-1.808,1.834.136.611,1.808-1.986,1.519-3.667,3.047-3.361,1.47-5.2,3.409-5.195,2.4-5.5,2.856a14.354,14.354,0,0,1-5.043,2.051c-1.223.089-7.793,2.992-8.252,3.451s-2.139,1.973-2.139,1.973.764,3.3.764,3.874-1.68,6.556-1.375,7.231a6.269,6.269,0,0,1,.611,2.356c0,.764-.611,5.65-.611,5.65s-.672.377,3.515,0a81.09,81.09,0,0,0,8.71-1.172c2.032-.4,1.635-.795,3.821-.795s10.7-1.133,10.7-1.133.031-.338,1.819-1.291a13.468,13.468,0,0,1,3.775-1.259s.795-.172,0,1.259.717,2.027-1.926,2.424-3.178-.795-5.2.795-3.927.953-5.654,2.463a9.133,9.133,0,0,1-5.2,2.5c-2.69.6-4.049,1.549-5.654,1.37s-3.79.178-4.584,0a6.748,6.748,0,0,0-1.987,0,8.987,8.987,0,0,1-.764,3.2,5.826,5.826,0,0,0-.764,3.774c.137,1.589-1.329,4.29,0,4.132s-.2-1.748,4.737-1.549,2.659,0,6.876,0,5.332.794,8.251,0,0-1.391,4.738-1.291,6.326,1.291,6.326,1.291a1.788,1.788,0,0,1,0,1.549c-.4.835-1.453,1.47-4.8,1.55s-2.673-.08-5.2,0-2.141-.278-3.821,0-2.765-.676-5.5,0a45.618,45.618,0,0,1-6.876,1.291,25.171,25.171,0,0,1-3.973,0,6.765,6.765,0,0,0-.764,1.768,9.98,9.98,0,0,0,0,2.88s6.953.894,8.71,0,1.375-1.092,5.043-1.291,2.552.4,7.182,0,2.9,1.291,2.9,1.291.259.894-3.973,1.291-2.49,0-5.348.795-1.222.834-4.126,1.013-3.178-.378-4.432,0-4.034,1.927-4.432,1.549-.932.258-.764,1.033-.03-4.589.764,2.762.825,5.4.611,7.569.214,2.244,0,3.1-2.674.933,3.82,0,2.522-1.529,9.475-1.728,10.848-1.153,14.364-1.371a22.632,22.632,0,0,0,6.1-1.212,31.626,31.626,0,0,0-6.1,2.583c-3.239,1.788.6.079-5.2,1.728s-7.167.894-10.85,2.066-3.025.577-5.043,1.172-3.973,1.152-3.973,1.152a1.189,1.189,0,0,0-1.223,1.291c0,1.331-2.185,4.271-1.987,5.682a14.153,14.153,0,0,0,.611,3.795c.581,1.589-.642,1.192.764,2.384s2.858,1.192,5.807,1.391-4.4-2.98,6.724,0,6.539,5.187,1.68,4.878.016.309-5.5,0-5.256-.684-6.876,0a8.153,8.153,0,0,0-2.6,1.746s-.779.726,0,2.514a12.772,12.772,0,0,1,1.375,4.967c0,1.589-1.39-4.569,0,2.384s5.471,8.145,8.1,8.145,6.281-1.788,9.322-1.788,4.034.6,7.014,0,2.643.6,6.586,0a19.1,19.1,0,0,1,6.526,0s.993,1.589-.993,1.788-4.768,1.2-6.953,1.194-.994,0-5.165,0-4.294-.4-7.014,0-2.124,0-5.5.991-2.934.595-5.043,1.191a9.718,9.718,0,0,1-4.432,0h-2.445a17.618,17.618,0,0,1,0,4.8,18.118,18.118,0,0,0,0,6.547c.4,2.162,1.391,2.36,0,7.128s-1.36,3.5-1.375,7.711,2.033,1.727,2.6,8.729-.168,16.14,0,17.729-.366,23.243,0,26.223,1.681,17.283,1.222,20.263.459,13.906,0,15.893,0,14.9,0,14.9v6.686Z" transform="translate(-3202.24 -1662.699)" fill="#6d9f79"/>
      <path id="Path_8" data-name="Path 8" d="M3256.382,2115.055v-98.2s-6.983,1.309-11.348,3.928-12.221,3.928-12.221,3.928-2.182-7.42,0-7.856,9.6-3.492,9.6-3.492h10.475s-1.746-7.42,0-8.729,3.491-14.839,3.491-14.839v-11.348l-13.967,4.8-9.6,4.365-4.365-4.365,7.42-4.8h6.547l5.674-2.182,8.292-5.238v-10.475l-3.491-3.492s4.8-3.055-7.856,0-16.585,3.492-16.585,3.492h-9.166l3.928-3.492s.437-.873,5.238-1.746,11.784-2.182,11.784-2.182,13.32,2,12.657,0-.112-9.232,0-10.265a4.192,4.192,0,0,0,0-2.583c-.4-1.808-.921-2.841-1.7-3.1a24.685,24.685,0,0,0-6.16-1.291h-9.166s-5.631,1.549-7.42,1.291a11.015,11.015,0,0,0-4.113,0c-1.808.258-1.808-.258-3.357,0s-1.55-1.291-4.649,0a22.155,22.155,0,0,1-7.231,1.291l-2.066-2.583s5.681-2.324,6.456-2.324h9.722s10.422-2.066,11.455-2.066a29.987,29.987,0,0,0,5.567,0c4.763-.258,13.8,0,13.8,0a7.785,7.785,0,0,0-1.145-3.1c-.921-1.291,0-9.039,0-9.039v-2.324h-7.856c-3.137,0-4.945-1.033-6.752,0s-8.264,1.033-8.264,1.033l-5.682-2.583,5.682-1.808h10.216s-.843-1.033,4.8-1.291a56.615,56.615,0,0,1,7.856,0s.146-3.616,0-4.649,3.986-2.841-1.7-2.841-5.937-.517-8.779,0-2.761,1.291-6.547,1.55-1.461-.775-5.851,0-6.806,1.291-6.806,1.291-6.4,1.55-3.928-1.291.921-3.1,5.053-3.1,1.55-.258,5.682,0,3.357.517,6.973,0,.519,1.291,5.425,0,3.86-1.291,5.674-1.291h4.8a4.985,4.985,0,0,0,0-3.874,31.928,31.928,0,0,1-1.7-4.39,12.635,12.635,0,0,0-4.649-2.583c-2.324-.517-9.3-2.583-9.555-2.583h-9.814l-6.2,1.291s-2.583,4.907-3.1,5.682-3.1.517-3.1-1.808a7.71,7.71,0,0,1,1.55-5.165,9.2,9.2,0,0,1,4.649-3.1c2.324-.775.258,1.033,6.2,0s3.357,1.291,7.49,0a29.556,29.556,0,0,1,10.368-1.291c1.254.258,6.16,1.291,6.16,1.291l1.7-4.907-1.7-2.066v-5.165s-3.282.517-6.16,1.291a49.325,49.325,0,0,1-6.752,1.549c-2.066.258-8.3,1.033-9.833,1.033h-10.57s-1.033-2.583,0-2.583,2.324-1.033,8.006-1.291,7.828.516,9.983,0,3.191,1.808,6.547,0a93.626,93.626,0,0,1,8.779-3.874s2.617-5.423,1.7-5.423-7.633.775-10.475,0-3.1-2.583-7.749-1.291-5.94,2.583-7.49,1.291-2.841-4.907-2.841-4.907h2.841l4.132,1.55h8.924l10.961,2.066v-13.429s-6.2-1.033-8.779,0-4.569.258-6.547,1.55-1.2,1.033-4.56,1.808-4.39-1.55-6.973,0-4.166,3.357-5.053,2.066a13.348,13.348,0,0,1-1.4-3.874s-.258-1.55,0-1.55a5.154,5.154,0,0,0,3.1,0c2.066-.516,1.808.258,3.357,0s3.061,1.033,4.113,0-1.531-.516,2.86-1.55,7.26-2.841,8.924-2.583a27.8,27.8,0,0,0,4.8,0l4.353,1.549,3.5,1.033v-2.583s-.933-2.583-4.8-2.583-3.322-.258-7.856,0-8.408-.517-8.924,0-.813,1.291-2.86,0-5.238-3.1-5.238-3.1-4.224-1.55,0-1.55a72.983,72.983,0,0,1,11.455,1.55h16.528v-9.039s-6.457.516-7.49,0-4.907,1.033-6.715,0-4.132-.775-5.682-1.291a29.234,29.234,0,0,1-4.132-1.55c-.258-.258-2.841,0-2.841,0l-3.357-2.324s-.441-1.808,2.233-1.291,5.773.516,6.806,1.291,5.423,2.583,8.264,2.324,4.132-.516,5.423,0,5.165,2.066,5.682,1.55,1.808,0,1.808,0-.4-5.084,0-5.848-.244-1.834,0-2.751-3.882-1.987-3.882-1.987a12.743,12.743,0,0,0-4.9-1.223h-4.134a31.906,31.906,0,0,0-5.64,0c-3.515.306-4.126-.306-6.113,0s-.829.153-3.318,0a19.029,19.029,0,0,1-6.156-1.681c-.458-.306.789-2.751,2.228-2.751s2.051-.764,3.12,0a6.555,6.555,0,0,0,3.482,1.223,47.035,47.035,0,0,1,5.423.917,14.844,14.844,0,0,0,4.56.611h4.365c2.8,0,5.394.153,6.313,0a16.6,16.6,0,0,1,2.841,0s1.135.917,1.135-.611v-2.139s2.75-.917,0-1.375-4.769-1.07-6.816-1.07-.618.458-3.472,0-2.473-.306-5.567-.764a35.557,35.557,0,0,1-5.539-.917c-1.375-.458-4.649-1.528-5.916-2.139a37.281,37.281,0,0,1-3.928-2.6s5.194,0,6.6.764,3.089,1.987,3.242,1.834-.527-1.375,2.182,0,3.917,1.987,5.682,2.139,2.375,1.223,4.362.917a32.115,32.115,0,0,1,6.737,0c.445.153,2.737.611,2.432,0s.735-2.292.673-3.056.521-1.222,0-1.834-.192-.764-1.808-.764-1.282.611-4.353,0-3.223-.917-5.974-1.375-2.75-.306-6.418-.917-1.815.764-4.193-.764a32.944,32.944,0,0,1-5.238-4.737,3.4,3.4,0,0,1,3.965,0c2.409,1.375.27.611,5.465,2.751a75.234,75.234,0,0,0,7.591,2.751c1.272.458.17.611,3.472.917a44.072,44.072,0,0,0,6.816,0v-5.5c0-.764-.13-2.6-1.135-3.362s.982-1.07-2.074-1.223a13.245,13.245,0,0,1-4.9-.917,22.148,22.148,0,0,0-4.134-1.07c-3.195-.611-3.5.153-4.876-1.07a18.723,18.723,0,0,1-2.1-2.139,32.313,32.313,0,0,0,3.357.917c2.56.611,1.309,1.528,3.615,1.223s-1.667-.153,3.071,0,6.737,0,6.737,0l3.105,1.07s.7-.611-.673-3.973-5.075-4.126-6.816-3.973-2.076-.611-5.423,0-3.195,1.223-5.64.611-1.834.306-3.515-.611-4.791-2.9-4.791-2.9,3.874-1.681,4.791-1.07,1.375,2.6,3.515,2.6,6.472-.458,7.591,0,3.44,2.292,4.8,1.375,1.693-2.6,3.055-1.375a13.326,13.326,0,0,0,3.105,1.987s-.521-2.6-.673-3.515-.13-.917-1.135-2.139-2.871-.917-5.682-1.375-2.993-.917-5.423-1.528a46.438,46.438,0,0,0-4.876-.917s-1.223-1.07,0-1.222,3.486,0,4.876,0,.473,1.07,3.071,1.222a22.728,22.728,0,0,1,5.193.917c1.989.458,2.012-1.375,2.841,0a2.936,2.936,0,0,0,1.808,1.528s-.4-3.362,0-3.667-1.411-1.528-3.105-1.681-.137.917-3.055,0-3.781-.917-4.8-1.528-1.951-1.223-1.951-1.223v-.764l5.423.764h3.607l3.209,1.223v-6.113a14.545,14.545,0,0,0-3.209-2.292c-1.222-.458-4.737-1.07-5.96-1.528s-4.362-1.528-4.362-1.528-1.868-1.681-1.122-1.834,1.052-2.292,3.192,0,7.486,3.362,7.486,3.362h3.975v-3.362s-4.709-3.056-5.487-2.9-6.127-4.279-5.974-4.89,3.973,1.07,3.973,1.07l5.056,3.209,1.3.611v-8.4l1.808-7.182v9.169s2.231,3.209,1.7,3.973,1.145,2.445,1.145,2.445l3.821,1.375s-.153.306,1.375.764,2.6.153,2.751.764-1.222,2.292-1.987,1.834-4.738-1.528-5.2-1.834-3.605-1.528-3.605-1.528,3.146,3.82,2.841,4.89.152,2.751,0,4.432.458,2.6,0,3.515-.765,2.445,0,1.987,0,.458,2.446,0,2.292.611,3.515,0a8.233,8.233,0,0,1,3.209-1.223,22.364,22.364,0,0,1,3.362,0,11.1,11.1,0,0,1-2.139,2.751c-.917.611.764.306-1.222.917s-2.292.306-3.973.764-1.986,1.834-2.75,1.222a1.5,1.5,0,0,0-1.681,0l-.765.917a5.256,5.256,0,0,1,.765,2.292v1.681s-1.069,2.139,1.681,1.07,3.82-1.681,5.5-2.139,1.987-1.07,3.515-1.375a5.175,5.175,0,0,1,2.445,0,1.421,1.421,0,0,1-.764,1.375c-.917.611-1.07.458-2.751,1.07s-.306.306-2.445,1.07-1.987,1.834-2.751,1.528-2.445-.764-2.75,0-1.681,1.375-1.681,1.375a4.875,4.875,0,0,1,0,1.528,3.04,3.04,0,0,0,0,1.223s-2.292.611.917,0,3.973-.458,5.654-1.223.612-.458,4.126-.917a66.264,66.264,0,0,1,6.724-.611c.764,0,1.681,1.528,0,1.528s1.834-2.139-3.362,0-10.391,4.126-10.391,4.126l-4.432-.917s-.306,2.751,0,3.209-.306,1.223,0,1.987-.612.458,0,1.223.306-.458,2.446,0,1.528,0,4.89,0,4.585.764,5.807,0a6.4,6.4,0,0,1,2.9-1.223c1.834-.458,3.821,2.139,3.821,2.139a1.688,1.688,0,0,1-1.681,1.528H3265.5c-.764,0-.153-.764-2.292,0s-1.07-.458-3.973.917-4.584,1.07-4.432,1.834a27.683,27.683,0,0,1,0,5.043c-.153.306-.458,2.292.917,1.834s3.515.153,5.654-1.07,5.349-1.681,7.488-2.139-.306-.153,3.362-.917,8.4-2.751,9.169-2.751,5.2-.764,3.82,0-.306.611-2.139,1.987-2.292,3.056-3.667,3.056.611-.611-1.987,0-3.973.917-5.2.764a24.65,24.65,0,0,0-3.362,0c-1.07,0-2.75-.917-3.362,0a4.377,4.377,0,0,1-3.515,1.834c-1.834.153-2.292-1.07-3.515,0a18.033,18.033,0,0,1-3.668,2.139l-.765,2.751s.612,3.82.765,5.807,2.6.306,3.056,0,2.292,0,3.515-1.681,1.681-3.668,3.056-4.126,1.375.153,2.139-1.07,4.431-4.279,3.515-2.9.306,3.973-1.222,5.349-3.515,1.681-4.432,2.751.459.153-1.222,1.681-1.528,1.375-2.6,2.445a8.23,8.23,0,0,1-2.139,1.834c-.458.153-2.445.458-2.751.917a31.271,31.271,0,0,0-.917,4.279,2.955,2.955,0,0,0,1.681.784c1.07.133,3.362-.478,4.89-.784s1.987-.942,5.807-1.541,3.667-1.067,5.807-1.291,3.209-.683,4.432-.683h1.987s-.306,1.961-1.987,1.974a7.111,7.111,0,0,0-3.515.777c-1.528.611-1.681,1.109-3.821,1.548s-3.362,1.59-4.584,1.55-5.043,1.248-5.5,1.291-3.362-.5-3.515,0-1.681,0-1.681,0v5.239l1.681,4.584v2.315s6.877-.94,7.946-1.7-.152-1.916,2.139-2.945,3.821-2.113,6.418-3.1,3.21-.833,4.432-2.055a31.614,31.614,0,0,1,4.889-4.279c1.375-.764,3.973-2.775,5.348-3.221s5.349-4.725,5.349-4.725l2.292-.764-2.292,5.489-5.349,3.874s-5.347,3.473-6.265,3.626-4.127,3.056-5.808,3.82-9.015,4.279-9.015,4.279-2.291,3.989-3.362,4.286-6.724,2.583-6.724,2.583a25.663,25.663,0,0,1,1.375,4.907c0,1.213-1.527,7.311-1.375,8.006s1.375,4.057,1.375,4.057,2.9-2.445,5.349-2.751a21.938,21.938,0,0,0,5.654-1.307c2.444-.833,3.057-1.9,5.043-2.667a13.683,13.683,0,0,0,4.431-2.292c2.139-1.528,4.737-2.121,6.265-3.047s3.056-1.808,3.056-1.808,1.834.136.611,1.808-1.986,1.519-3.667,3.047-3.361,1.47-5.2,3.409-5.195,2.4-5.5,2.856a14.354,14.354,0,0,1-5.043,2.051c-1.223.089-7.793,2.992-8.252,3.451s-2.139,1.973-2.139,1.973.764,3.3.764,3.874-1.68,6.556-1.375,7.231a6.269,6.269,0,0,1,.611,2.356c0,.764-.611,5.65-.611,5.65s-.672.377,3.515,0a81.09,81.09,0,0,0,8.71-1.172c2.032-.4,1.635-.795,3.821-.795s10.7-1.133,10.7-1.133.031-.338,1.819-1.291a13.468,13.468,0,0,1,3.775-1.259s.795-.172,0,1.259.717,2.027-1.926,2.424-3.178-.795-5.2.795-3.927.953-5.654,2.463a9.133,9.133,0,0,1-5.2,2.5c-2.69.6-4.049,1.549-5.654,1.37s-3.79.178-4.584,0a6.748,6.748,0,0,0-1.987,0,8.987,8.987,0,0,1-.764,3.2,5.826,5.826,0,0,0-.764,3.774c.137,1.589-1.329,4.29,0,4.132s-.2-1.748,4.737-1.549,2.659,0,6.876,0,5.332.794,8.251,0,0-1.391,4.738-1.291,6.326,1.291,6.326,1.291a1.788,1.788,0,0,1,0,1.549c-.4.835-1.453,1.47-4.8,1.55s-2.673-.08-5.2,0-2.141-.278-3.821,0-2.765-.676-5.5,0a45.618,45.618,0,0,1-6.876,1.291,25.171,25.171,0,0,1-3.973,0,6.765,6.765,0,0,0-.764,1.768,9.98,9.98,0,0,0,0,2.88s6.953.894,8.71,0,1.375-1.092,5.043-1.291,2.552.4,7.182,0,2.9,1.291,2.9,1.291.259.894-3.973,1.291-2.49,0-5.348.795-1.222.834-4.126,1.013-3.178-.378-4.432,0-4.034,1.927-4.432,1.549-.932.258-.764,1.033-.03-4.589.764,2.762.825,5.4.611,7.569.214,2.244,0,3.1-2.674.933,3.82,0,2.522-1.529,9.475-1.728,10.848-1.153,14.364-1.371a22.632,22.632,0,0,0,6.1-1.212,31.626,31.626,0,0,0-6.1,2.583c-3.239,1.788.6.079-5.2,1.728s-7.167.894-10.85,2.066-3.025.577-5.043,1.172-3.973,1.152-3.973,1.152a1.189,1.189,0,0,0-1.223,1.291c0,1.331-2.185,4.271-1.987,5.682a14.153,14.153,0,0,0,.611,3.795c.581,1.589-.642,1.192.764,2.384s2.858,1.192,5.807,1.391-4.4-2.98,6.724,0,6.539,5.187,1.68,4.878.016.309-5.5,0-5.256-.684-6.876,0a8.153,8.153,0,0,0-2.6,1.746s-.779.726,0,2.514a12.772,12.772,0,0,1,1.375,4.967c0,1.589-1.39-4.569,0,2.384s5.471,8.145,8.1,8.145,6.281-1.788,9.322-1.788,4.034.6,7.014,0,2.643.6,6.586,0a19.1,19.1,0,0,1,6.526,0s.993,1.589-.993,1.788-4.768,1.2-6.953,1.194-.994,0-5.165,0-4.294-.4-7.014,0-2.124,0-5.5.991-2.934.595-5.043,1.191a9.718,9.718,0,0,1-4.432,0h-2.445a17.618,17.618,0,0,1,0,4.8,18.118,18.118,0,0,0,0,6.547c.4,2.162,1.391,2.36,0,7.128s-1.36,3.5-1.375,7.711,2.033,1.727,2.6,8.729-.168,16.14,0,17.729-.366,23.243,0,26.223,1.681,17.283,1.222,20.263.459,13.906,0,15.893,0,14.9,0,14.9v6.686Z" transform="translate(-3136.868 -1630.055)" fill="#6d9f79"/>
      <path id="Path_9" data-name="Path 9" d="M3256.382,2115.055v-98.2s-6.983,1.309-11.348,3.928-12.221,3.928-12.221,3.928-2.182-7.42,0-7.856,9.6-3.492,9.6-3.492h10.475s-1.746-7.42,0-8.729,3.491-14.839,3.491-14.839v-11.348l-13.967,4.8-9.6,4.365-4.365-4.365,7.42-4.8h6.547l5.674-2.182,8.292-5.238v-10.475l-3.491-3.492s4.8-3.055-7.856,0-16.585,3.492-16.585,3.492h-9.166l3.928-3.492s.437-.873,5.238-1.746,11.784-2.182,11.784-2.182,13.32,2,12.657,0-.112-9.232,0-10.265a4.192,4.192,0,0,0,0-2.583c-.4-1.808-.921-2.841-1.7-3.1a24.685,24.685,0,0,0-6.16-1.291h-9.166s-5.631,1.549-7.42,1.291a11.015,11.015,0,0,0-4.113,0c-1.808.258-1.808-.258-3.357,0s-1.55-1.291-4.649,0a22.155,22.155,0,0,1-7.231,1.291l-2.066-2.583s5.681-2.324,6.456-2.324h9.722s10.422-2.066,11.455-2.066a29.987,29.987,0,0,0,5.567,0c4.763-.258,13.8,0,13.8,0a7.785,7.785,0,0,0-1.145-3.1c-.921-1.291,0-9.039,0-9.039v-2.324h-7.856c-3.137,0-4.945-1.033-6.752,0s-8.264,1.033-8.264,1.033l-5.682-2.583,5.682-1.808h10.216s-.843-1.033,4.8-1.291a56.615,56.615,0,0,1,7.856,0s.146-3.616,0-4.649,3.986-2.841-1.7-2.841-5.937-.517-8.779,0-2.761,1.291-6.547,1.55-1.461-.775-5.851,0-6.806,1.291-6.806,1.291-6.4,1.55-3.928-1.291.921-3.1,5.053-3.1,1.55-.258,5.682,0,3.357.517,6.973,0,.519,1.291,5.425,0,3.86-1.291,5.674-1.291h4.8a4.985,4.985,0,0,0,0-3.874,31.928,31.928,0,0,1-1.7-4.39,12.635,12.635,0,0,0-4.649-2.583c-2.324-.517-9.3-2.583-9.555-2.583h-9.814l-6.2,1.291s-2.583,4.907-3.1,5.682-3.1.517-3.1-1.808a7.71,7.71,0,0,1,1.55-5.165,9.2,9.2,0,0,1,4.649-3.1c2.324-.775.258,1.033,6.2,0s3.357,1.291,7.49,0a29.556,29.556,0,0,1,10.368-1.291c1.254.258,6.16,1.291,6.16,1.291l1.7-4.907-1.7-2.066v-5.165s-3.282.517-6.16,1.291a49.325,49.325,0,0,1-6.752,1.549c-2.066.258-8.3,1.033-9.833,1.033h-10.57s-1.033-2.583,0-2.583,2.324-1.033,8.006-1.291,7.828.516,9.983,0,3.191,1.808,6.547,0a93.626,93.626,0,0,1,8.779-3.874s2.617-5.423,1.7-5.423-7.633.775-10.475,0-3.1-2.583-7.749-1.291-5.94,2.583-7.49,1.291-2.841-4.907-2.841-4.907h2.841l4.132,1.55h8.924l10.961,2.066v-13.429s-6.2-1.033-8.779,0-4.569.258-6.547,1.55-1.2,1.033-4.56,1.808-4.39-1.55-6.973,0-4.166,3.357-5.053,2.066a13.348,13.348,0,0,1-1.4-3.874s-.258-1.55,0-1.55a5.154,5.154,0,0,0,3.1,0c2.066-.516,1.808.258,3.357,0s3.061,1.033,4.113,0-1.531-.516,2.86-1.55,7.26-2.841,8.924-2.583a27.8,27.8,0,0,0,4.8,0l4.353,1.549,3.5,1.033v-2.583s-.933-2.583-4.8-2.583-3.322-.258-7.856,0-8.408-.517-8.924,0-.813,1.291-2.86,0-5.238-3.1-5.238-3.1-4.224-1.55,0-1.55a72.983,72.983,0,0,1,11.455,1.55h16.528v-9.039s-6.457.516-7.49,0-4.907,1.033-6.715,0-4.132-.775-5.682-1.291a29.234,29.234,0,0,1-4.132-1.55c-.258-.258-2.841,0-2.841,0l-3.357-2.324s-.441-1.808,2.233-1.291,5.773.516,6.806,1.291,5.423,2.583,8.264,2.324,4.132-.516,5.423,0,5.165,2.066,5.682,1.55,1.808,0,1.808,0-.4-5.084,0-5.848-.244-1.834,0-2.751-3.882-1.987-3.882-1.987a12.743,12.743,0,0,0-4.9-1.223h-4.134a31.906,31.906,0,0,0-5.64,0c-3.515.306-4.126-.306-6.113,0s-.829.153-3.318,0a19.029,19.029,0,0,1-6.156-1.681c-.458-.306.789-2.751,2.228-2.751s2.051-.764,3.12,0a6.555,6.555,0,0,0,3.482,1.223,47.035,47.035,0,0,1,5.423.917,14.844,14.844,0,0,0,4.56.611h4.365c2.8,0,5.394.153,6.313,0a16.6,16.6,0,0,1,2.841,0s1.135.917,1.135-.611v-2.139s2.75-.917,0-1.375-4.769-1.07-6.816-1.07-.618.458-3.472,0-2.473-.306-5.567-.764a35.557,35.557,0,0,1-5.539-.917c-1.375-.458-4.649-1.528-5.916-2.139a37.281,37.281,0,0,1-3.928-2.6s5.194,0,6.6.764,3.089,1.987,3.242,1.834-.527-1.375,2.182,0,3.917,1.987,5.682,2.139,2.375,1.223,4.362.917a32.115,32.115,0,0,1,6.737,0c.445.153,2.737.611,2.432,0s.735-2.292.673-3.056.521-1.222,0-1.834-.192-.764-1.808-.764-1.282.611-4.353,0-3.223-.917-5.974-1.375-2.75-.306-6.418-.917-1.815.764-4.193-.764a32.944,32.944,0,0,1-5.238-4.737,3.4,3.4,0,0,1,3.965,0c2.409,1.375.27.611,5.465,2.751a75.234,75.234,0,0,0,7.591,2.751c1.272.458.17.611,3.472.917a44.072,44.072,0,0,0,6.816,0v-5.5c0-.764-.13-2.6-1.135-3.362s.982-1.07-2.074-1.223a13.245,13.245,0,0,1-4.9-.917,22.148,22.148,0,0,0-4.134-1.07c-3.195-.611-3.5.153-4.876-1.07a18.723,18.723,0,0,1-2.1-2.139,32.313,32.313,0,0,0,3.357.917c2.56.611,1.309,1.528,3.615,1.223s-1.667-.153,3.071,0,6.737,0,6.737,0l3.105,1.07s.7-.611-.673-3.973-5.075-4.126-6.816-3.973-2.076-.611-5.423,0-3.195,1.223-5.64.611-1.834.306-3.515-.611-4.791-2.9-4.791-2.9,3.874-1.681,4.791-1.07,1.375,2.6,3.515,2.6,6.472-.458,7.591,0,3.44,2.292,4.8,1.375,1.693-2.6,3.055-1.375a13.326,13.326,0,0,0,3.105,1.987s-.521-2.6-.673-3.515-.13-.917-1.135-2.139-2.871-.917-5.682-1.375-2.993-.917-5.423-1.528a46.438,46.438,0,0,0-4.876-.917s-1.223-1.07,0-1.222,3.486,0,4.876,0,.473,1.07,3.071,1.222a22.728,22.728,0,0,1,5.193.917c1.989.458,2.012-1.375,2.841,0a2.936,2.936,0,0,0,1.808,1.528s-.4-3.362,0-3.667-1.411-1.528-3.105-1.681-.137.917-3.055,0-3.781-.917-4.8-1.528-1.951-1.223-1.951-1.223v-.764l5.423.764h3.607l3.209,1.223v-6.113a14.545,14.545,0,0,0-3.209-2.292c-1.222-.458-4.737-1.07-5.96-1.528s-4.362-1.528-4.362-1.528-1.868-1.681-1.122-1.834,1.052-2.292,3.192,0,7.486,3.362,7.486,3.362h3.975v-3.362s-4.709-3.056-5.487-2.9-6.127-4.279-5.974-4.89,3.973,1.07,3.973,1.07l5.056,3.209,1.3.611v-8.4l1.808-7.182v9.169s2.231,3.209,1.7,3.973,1.145,2.445,1.145,2.445l3.821,1.375s-.153.306,1.375.764,2.6.153,2.751.764-1.222,2.292-1.987,1.834-4.738-1.528-5.2-1.834-3.605-1.528-3.605-1.528,3.146,3.82,2.841,4.89.152,2.751,0,4.432.458,2.6,0,3.515-.765,2.445,0,1.987,0,.458,2.446,0,2.292.611,3.515,0a8.233,8.233,0,0,1,3.209-1.223,22.364,22.364,0,0,1,3.362,0,11.1,11.1,0,0,1-2.139,2.751c-.917.611.764.306-1.222.917s-2.292.306-3.973.764-1.986,1.834-2.75,1.222a1.5,1.5,0,0,0-1.681,0l-.765.917a5.256,5.256,0,0,1,.765,2.292v1.681s-1.069,2.139,1.681,1.07,3.82-1.681,5.5-2.139,1.987-1.07,3.515-1.375a5.175,5.175,0,0,1,2.445,0,1.421,1.421,0,0,1-.764,1.375c-.917.611-1.07.458-2.751,1.07s-.306.306-2.445,1.07-1.987,1.834-2.751,1.528-2.445-.764-2.75,0-1.681,1.375-1.681,1.375a4.875,4.875,0,0,1,0,1.528,3.04,3.04,0,0,0,0,1.223s-2.292.611.917,0,3.973-.458,5.654-1.223.612-.458,4.126-.917a66.264,66.264,0,0,1,6.724-.611c.764,0,1.681,1.528,0,1.528s1.834-2.139-3.362,0-10.391,4.126-10.391,4.126l-4.432-.917s-.306,2.751,0,3.209-.306,1.223,0,1.987-.612.458,0,1.223.306-.458,2.446,0,1.528,0,4.89,0,4.585.764,5.807,0a6.4,6.4,0,0,1,2.9-1.223c1.834-.458,3.821,2.139,3.821,2.139a1.688,1.688,0,0,1-1.681,1.528H3265.5c-.764,0-.153-.764-2.292,0s-1.07-.458-3.973.917-4.584,1.07-4.432,1.834a27.683,27.683,0,0,1,0,5.043c-.153.306-.458,2.292.917,1.834s3.515.153,5.654-1.07,5.349-1.681,7.488-2.139-.306-.153,3.362-.917,8.4-2.751,9.169-2.751,5.2-.764,3.82,0-.306.611-2.139,1.987-2.292,3.056-3.667,3.056.611-.611-1.987,0-3.973.917-5.2.764a24.65,24.65,0,0,0-3.362,0c-1.07,0-2.75-.917-3.362,0a4.377,4.377,0,0,1-3.515,1.834c-1.834.153-2.292-1.07-3.515,0a18.033,18.033,0,0,1-3.668,2.139l-.765,2.751s.612,3.82.765,5.807,2.6.306,3.056,0,2.292,0,3.515-1.681,1.681-3.668,3.056-4.126,1.375.153,2.139-1.07,4.431-4.279,3.515-2.9.306,3.973-1.222,5.349-3.515,1.681-4.432,2.751.459.153-1.222,1.681-1.528,1.375-2.6,2.445a8.23,8.23,0,0,1-2.139,1.834c-.458.153-2.445.458-2.751.917a31.271,31.271,0,0,0-.917,4.279,2.955,2.955,0,0,0,1.681.784c1.07.133,3.362-.478,4.89-.784s1.987-.942,5.807-1.541,3.667-1.067,5.807-1.291,3.209-.683,4.432-.683h1.987s-.306,1.961-1.987,1.974a7.111,7.111,0,0,0-3.515.777c-1.528.611-1.681,1.109-3.821,1.548s-3.362,1.59-4.584,1.55-5.043,1.248-5.5,1.291-3.362-.5-3.515,0-1.681,0-1.681,0v5.239l1.681,4.584v2.315s6.877-.94,7.946-1.7-.152-1.916,2.139-2.945,3.821-2.113,6.418-3.1,3.21-.833,4.432-2.055a31.614,31.614,0,0,1,4.889-4.279c1.375-.764,3.973-2.775,5.348-3.221s5.349-4.725,5.349-4.725l2.292-.764-2.292,5.489-5.349,3.874s-5.347,3.473-6.265,3.626-4.127,3.056-5.808,3.82-9.015,4.279-9.015,4.279-2.291,3.989-3.362,4.286-6.724,2.583-6.724,2.583a25.663,25.663,0,0,1,1.375,4.907c0,1.213-1.527,7.311-1.375,8.006s1.375,4.057,1.375,4.057,2.9-2.445,5.349-2.751a21.938,21.938,0,0,0,5.654-1.307c2.444-.833,3.057-1.9,5.043-2.667a13.683,13.683,0,0,0,4.431-2.292c2.139-1.528,4.737-2.121,6.265-3.047s3.056-1.808,3.056-1.808,1.834.136.611,1.808-1.986,1.519-3.667,3.047-3.361,1.47-5.2,3.409-5.195,2.4-5.5,2.856a14.354,14.354,0,0,1-5.043,2.051c-1.223.089-7.793,2.992-8.252,3.451s-2.139,1.973-2.139,1.973.764,3.3.764,3.874-1.68,6.556-1.375,7.231a6.269,6.269,0,0,1,.611,2.356c0,.764-.611,5.65-.611,5.65s-.672.377,3.515,0a81.09,81.09,0,0,0,8.71-1.172c2.032-.4,1.635-.795,3.821-.795s10.7-1.133,10.7-1.133.031-.338,1.819-1.291a13.468,13.468,0,0,1,3.775-1.259s.795-.172,0,1.259.717,2.027-1.926,2.424-3.178-.795-5.2.795-3.927.953-5.654,2.463a9.133,9.133,0,0,1-5.2,2.5c-2.69.6-4.049,1.549-5.654,1.37s-3.79.178-4.584,0a6.748,6.748,0,0,0-1.987,0,8.987,8.987,0,0,1-.764,3.2,5.826,5.826,0,0,0-.764,3.774c.137,1.589-1.329,4.29,0,4.132s-.2-1.748,4.737-1.549,2.659,0,6.876,0,5.332.794,8.251,0,0-1.391,4.738-1.291,6.326,1.291,6.326,1.291a1.788,1.788,0,0,1,0,1.549c-.4.835-1.453,1.47-4.8,1.55s-2.673-.08-5.2,0-2.141-.278-3.821,0-2.765-.676-5.5,0a45.618,45.618,0,0,1-6.876,1.291,25.171,25.171,0,0,1-3.973,0,6.765,6.765,0,0,0-.764,1.768,9.98,9.98,0,0,0,0,2.88s6.953.894,8.71,0,1.375-1.092,5.043-1.291,2.552.4,7.182,0,2.9,1.291,2.9,1.291.259.894-3.973,1.291-2.49,0-5.348.795-1.222.834-4.126,1.013-3.178-.378-4.432,0-4.034,1.927-4.432,1.549-.932.258-.764,1.033-.03-4.589.764,2.762.825,5.4.611,7.569.214,2.244,0,3.1-2.674.933,3.82,0,2.522-1.529,9.475-1.728,10.848-1.153,14.364-1.371a22.632,22.632,0,0,0,6.1-1.212,31.626,31.626,0,0,0-6.1,2.583c-3.239,1.788.6.079-5.2,1.728s-7.167.894-10.85,2.066-3.025.577-5.043,1.172-3.973,1.152-3.973,1.152a1.189,1.189,0,0,0-1.223,1.291c0,1.331-2.185,4.271-1.987,5.682a14.153,14.153,0,0,0,.611,3.795c.581,1.589-.642,1.192.764,2.384s2.858,1.192,5.807,1.391-4.4-2.98,6.724,0,6.539,5.187,1.68,4.878.016.309-5.5,0-5.256-.684-6.876,0a8.153,8.153,0,0,0-2.6,1.746s-.779.726,0,2.514a12.772,12.772,0,0,1,1.375,4.967c0,1.589-1.39-4.569,0,2.384s5.471,8.145,8.1,8.145,6.281-1.788,9.322-1.788,4.034.6,7.014,0,2.643.6,6.586,0a19.1,19.1,0,0,1,6.526,0s.993,1.589-.993,1.788-4.768,1.2-6.953,1.194-.994,0-5.165,0-4.294-.4-7.014,0-2.124,0-5.5.991-2.934.595-5.043,1.191a9.718,9.718,0,0,1-4.432,0h-2.445a17.618,17.618,0,0,1,0,4.8,18.118,18.118,0,0,0,0,6.547c.4,2.162,1.391,2.36,0,7.128s-1.36,3.5-1.375,7.711,2.033,1.727,2.6,8.729-.168,16.14,0,17.729-.366,23.243,0,26.223,1.681,17.283,1.222,20.263.459,13.906,0,15.893,0,14.9,0,14.9v6.686Z" transform="translate(-3087.24 -1675.699)" fill="#6d9f79"/>
      <path id="Tree_Group_1" data-name="Tree Group 1" d="M1990,2031V1673.632h5.967l-5.967-11.8,3.017-11.064-3.017-7.376,5.967-2.95-5.967-4.426,10.393-8.114-4.426-5.163v-7.376l-2.95-3.688,7.376-22.128v22.128h8.114l2.522,5.612h-8.344l5.822,5.452-4.232,11.832,15.1-2.185,2.583,2.185-11.92,9.734-2.583,6.463h5.761l6.158-8.648,2.583,11.92,5.761,1.391-1.589,3.775-2.583,5.563-8.145,2.98-7.946,5.887h7.946l14.1-5.887-13.31,17.681,9.933-2.384,10.926-7.152-1.391,7.152s-1.986,4.37-2.583,5.165,8.344,2.781,8.344,2.781l-11.92,5.165-10.132,5.562,15.1,2.185-9.933,12.516,12.516.993,11.125-8.344-2.781,22.051h6.754l-9.337,3.775-5.761,7.748,2.384,7.946.993-7.946,14.9-1.589-1.788-6.158-5.364-10.132,2.185-16.687-3.178-10.728,18.674,11.721-12.317-19.27,12.317,6.357s7.549-.6,6.953,0-10.927-5.563-11.522-6.357-5.96-11.721-5.96-11.721,2.781-.4,3.576,0,2.384-12.317,2.384-12.317l8.741,7.874h2.781l-11.522-16.813L2073.8,1660l-3.774-13.31,6.158-3.3-6.158-4.451s8.542-6.158,8.344-6.556,0-22.051,0-22.051l4.371,16.29v6.953l5.165,2.439-6.556,1.137,1.391,6.239-4.371,5.482,13.906,7.946h-9.536l-1.391,5.012,5.563,2.935-1.192,6.953,3.178,6.357,7.152-6.357s-3.576,16.489-3.774,16.489h-5.364l-4.172,6.754,6.158-2.781,10.132-2.384-4.967,6.357v7.748l9.734-4.569,5.96-16.29v13.112l-6.953,9.734,2.185,5.96,9.138,3.178-10.33,2.384,3.377,5.364,4.172,1.192v4.768l-7.549.795-4.768-4.768-4.967,2.98s-4.768,5.761-4.172,6.158,9.138,0,9.138,0l8.145-1.589-9.734,10.33v2.583l6.357-1.589s3.576-5.165,4.569-5.562,8.94-6.953,8.94-6.953v11.522c0,.6-3.178,3.775-3.178,3.775s1.987,8.741,2.185,9.734-.795,6.357-2.185,6.754-8.145,2.98-8.145,2.98,4.172,4.569,5.364,5.165,8.94,0,8.94,0l5.761-1.589-5.761,3.576v5.563l1.7,2h5.043l.917,3.056,1.987,4.126-3.884,7.946-11.919,12.684,9.69.764,9.169-9.627,3.515,3.515-3.515,7.182-1.223,7.641,12.378-6.418-3.209,11.614,1.681,4.432,12.836-1.07-8.71,14.517-13.753,9.169-1.223,3.973,13.6-.764,5.915,4.723,18.078-4.723v-7.594h-18.078l-5.915-14.3,16.046,5.563,15.5-2.583,11.522-4.37,9.734-9.138-40.328-1.589s-16.521-13.509-16.9-14.3-9.506-10.33-11-12.516-5.271-7.946-5.271-7.946h9.933s18.673-.414,20.859-.9,18.277-1.651,19.866-3.056,10.132-3.193,13.112-3.789,14.9-3.777,14.9-3.777-5.959-7.551-7.152-7.152-16.886.8-17.482,1.194-26.819-8.145-27.415-8.94-18.292-14.5-18.292-14.5l-5.043-12.516s23.733,2.978,24.726,2.781,20.859,1.989,20.859,1.989l18.078-1.989-11.721-5.165s17.283-2.779,18.277-3.176,15.893-1.591,15.893-1.591v-8.94l-24.237,8.94h-12.913l-5.761-6.556-17.085-.993,21.257-6.156-34.384-2.187-5.348-8.741h21.455l-2.98-7.152h21.257l20.065-6.156.795-9.337-16.29,7.35-7.351-7.35-16.29-4.969-13.632-6.953,20.982-1.786,11.721,4.766,14.5-2.98,7.549-5.562h-14.1l-7.947-5.163s-4.966-10.372-5.96-10.649-3.377-5.442-3.377-5.442l13.906,4.569,9.933-3.578,14.3-1.788s-.4-8.54-1.987-9.732-12.317-6.556-12.317-6.556l-5.364,1.391-1.192-8.94h-12.118s-7.549-11.522-8.542-11.92,14.1.993,14.1.993v-7.152s12.714,4.768,13.112,4.768,4.172-8.94,4.768-8.94,6.953,4.966,9.536,5.761,17.482-1.987,18.078-1.589.993-5.562,0-6.158-21.058-2.384-21.058-2.384-17.283-4.569-17.879-5.562-6.556-8.344-6.556-8.344,7.549.6,7.748,0,6.556-6.953,6.556-6.953,12.714,3.576,13.906,3.973,13.707.795,15.5.795,15.893-3.178,16.886-4.768,6.556-8.344,6.556-8.344l-21.654,3.179s-14.3.2-15.5,0-7.549-6.953-7.549-6.953l-8.145,1.788-5.165-3.973-7.152-5.165-9.337-5.165-.795-3.377,12.516,3.377,9.933-3.377s13.708,1.589,13.906,3.377,12.317,4.967,13.906,5.165,23.839.993,25.031,0,6.556-5.165,6.556-5.165-7.549-4.768-8.344-4.768-12.714,0-14.1-.795-6.158-5.165-7.549-5.562-10.529-3.576-11.721-3.973a10.309,10.309,0,0,1-3.774-3.179c-.2-.6,1.192-2.781,1.788-3.377a46.811,46.811,0,0,0,2.781-4.768s-4.172-2.781-4.569-3.179-6.159-4.768-5.761-5.364,7.549,0,7.549,0l-2.583-7.35,14.7,7.35,11.323-2.781-5.165-12.714s13.509,3.377,15.1,3.576,3.774-5.165,3.774-5.165l-21.654-14.5,12.317,2.98,9.337,1.391-6.556-14.1L2233.133,1452l8.94,4.967,4.172-19.27,4.172,14.3,8.344-2.384-4.768,8.741v19.27l8.344-12.714,2.98,5.165,12.714-8.94-4.967,8.94-8.741,7.549,16.092-.993-16.092,6.755-8.145,1.987s-2.384,6.754-2.185,7.35,1.987,6.158,2.185,6.158,1.589,11.522,1.589,11.522l10.132-6.953s6.953-8.741,7.35-9.138,3.775-4.569,4.371-5.165,4.768,0,5.761,0,12.516-11.522,12.516-11.522l-6.953,11.522s-8.741,8.741-9.536,9.734-2.781,5.364-4.172,6.556,18.078-3.377,18.674-3.377,7.549-3.179,7.549-3.179l-8.344,7.35-13.708,5.364-12.516,6.158,14.9,3.377s13.509-.4,14.1,0,7.152-1.589,7.152-1.589l-7.152,5.165-19.866,1.391-9.138-1.391s-2.781,4.37-2.781,5.364a53.472,53.472,0,0,0,1.788,6.357s12.913.2,14.9,1.391,6.357,1.391,11.522,1.192,12.317-.4,14.5-1.192a47.24,47.24,0,0,1,7.35-1.391l-6.556,4.768s-8.542,2.384-10.926,2.781-13.707-1.192-14.9,0-9.735,1.391-10.728,1.391h-6.953l-.795,4.37s2.781,1.589,3.576,2.98,13.31,1.788,16.489,1.788,5.761-.795,8.94-.795,11.125-.795,12.317-.993,6.158,0,6.158,0-16.091,4.569-16.886,4.768-17.085.795-19.469,1.589-12.118.795-12.118.795,10.728,2.781,12.913,2.781,11.919.795,13.708.993,9.734-1.589,10.33-1.788,7.748,4.569,7.549,5.761,3.178,2.98,3.178,2.98,7.748-2.384,8.741-2.185,6.357,0,6.357,0l14.5,3.179a29.086,29.086,0,0,0-2.583,3.775c-.4.993-3.377,5.761-3.377,5.761l-8.542,2.781-2.185,2.781-8.741,2.384.993,3.576-15.893-8.741-14.3-1.987-15.1-.795s8.94,8.344,9.536,9.933,9.536,6.953,9.536,6.953,8.741,1.589,9.536,1.987,10.927,1.589,13.509,1.391,17.085-4.569,17.085-4.569l3.178-1.589s-1.391,1.987,0,2.781,13.708-1.192,13.708-1.192l.993,3.179-5.562,3.377-5.364,3.377s.6,3.179,0,4.967-11.919,0-11.919,0-2.583,5.364-2.583,6.158-13.112,4.37-13.112,4.37l-9.138-4.37s-16.886-2.185-17.482-2.185-10.728.795-10.728.795l2.185,10.926s11.522,3.576,11.721,4.37,13.31,1.987,14.3,2.384,6.754.4,8.344,0,13.906-4.172,13.906-4.172-1.788,5.562,0,5.761,9.933-.2,10.728,0,5.761-2.384,5.761-2.384l5.96,5.561,8.741,5.366-1.391,4.172-8.94,8.741s-1.788,2.583-2.781,2.98-14.5,2.781-14.5,2.781-2.384,4.768-3.576,5.563-11.522-3.777-11.522-3.777l-9.536,1.79-8.145,1.19s6.556,9.339,8.145,8.942,17.482-1.788,18.277-1.788,5.96-2.587,7.549-3.181,13.31-1.389,13.31-1.389.6,6.556,1.788,6.357,8.94,0,8.94,0,1.39-4.172,2.384-4.172,7.152,4.172,7.152,4.172l-1.589,9.337-5.562,9.536s-4.172.6-4.569,1.391.795,4.569-1.192,4.966-10.927-.993-10.927-.993,1.987,5.165.993,5.563-7.946,3.775-7.946,3.775l-8.344-2.187-1.987,2.187s5.364,2.781,5.364,2.98,10.33,1.585,11.919,1.786,7.549-1.194,9.933,0,11.125,1.391,11.125,1.391-6.556,9.538-8.145,10.332-5.761,3.969-6.556,4.368-8.542.4-11.323,0-15.694,2.781-15.694,2.781,1.192,9.732,2.384,9.734,7.152-1.194,11.324,0,12.714,2.187,15.694,2.982,12.118,1.192,13.509,1.788-13.509,6.556-13.509,6.556l-8.741,3.179,12.118,4.569s8.741,1.192,8.94,1.987,11.919,2.384,11.919,2.384l-14.3,8.145s-20.065,1.788-20.661,1.589-13.31.795-15.3,1.192-8.344,0-8.741,0-8.741,2.6-8.741,2.6,11.324,5.241,13.31,7.182,11.522,2.14,14.5,2.935,17.085,1.192,19.071,1.788,16.091,0,16.091,0h16.886s4.113,236.012,0,238.495" transform="translate(-1990 -1437.699)" fill="#669d73"/>
    </g>
    <g id="Group_2" data-name="Group 2" transform="translate(321.529 237.837)">
      <path id="Path_10" data-name="Path 10" d="M3256.382,2115.055v-98.2s-6.983,1.309-11.348,3.928-12.221,3.928-12.221,3.928-2.182-7.42,0-7.856,9.6-3.492,9.6-3.492h10.475s-1.746-7.42,0-8.729,3.491-14.839,3.491-14.839v-11.348l-13.967,4.8-9.6,4.365-4.365-4.365,7.42-4.8h6.547l5.674-2.182,8.292-5.238v-10.475l-3.491-3.492s4.8-3.055-7.856,0-16.585,3.492-16.585,3.492h-9.166l3.928-3.492s.437-.873,5.238-1.746,11.784-2.182,11.784-2.182,13.32,2,12.657,0-.112-9.232,0-10.265a4.192,4.192,0,0,0,0-2.583c-.4-1.808-.921-2.841-1.7-3.1a24.685,24.685,0,0,0-6.16-1.291h-9.166s-5.631,1.549-7.42,1.291a11.015,11.015,0,0,0-4.113,0c-1.808.258-1.808-.258-3.357,0s-1.55-1.291-4.649,0a22.155,22.155,0,0,1-7.231,1.291l-2.066-2.583s5.681-2.324,6.456-2.324h9.722s10.422-2.066,11.455-2.066a29.987,29.987,0,0,0,5.567,0c4.763-.258,13.8,0,13.8,0a7.785,7.785,0,0,0-1.145-3.1c-.921-1.291,0-9.039,0-9.039v-2.324h-7.856c-3.137,0-4.945-1.033-6.752,0s-8.264,1.033-8.264,1.033l-5.682-2.583,5.682-1.808h10.216s-.843-1.033,4.8-1.291a56.615,56.615,0,0,1,7.856,0s.146-3.616,0-4.649,3.986-2.841-1.7-2.841-5.937-.517-8.779,0-2.761,1.291-6.547,1.55-1.461-.775-5.851,0-6.806,1.291-6.806,1.291-6.4,1.55-3.928-1.291.921-3.1,5.053-3.1,1.55-.258,5.682,0,3.357.517,6.973,0,.519,1.291,5.425,0,3.86-1.291,5.674-1.291h4.8a4.985,4.985,0,0,0,0-3.874,31.928,31.928,0,0,1-1.7-4.39,12.635,12.635,0,0,0-4.649-2.583c-2.324-.517-9.3-2.583-9.555-2.583h-9.814l-6.2,1.291s-2.583,4.907-3.1,5.682-3.1.517-3.1-1.808a7.71,7.71,0,0,1,1.55-5.165,9.2,9.2,0,0,1,4.649-3.1c2.324-.775.258,1.033,6.2,0s3.357,1.291,7.49,0a29.556,29.556,0,0,1,10.368-1.291c1.254.258,6.16,1.291,6.16,1.291l1.7-4.907-1.7-2.066v-5.165s-3.282.517-6.16,1.291a49.325,49.325,0,0,1-6.752,1.549c-2.066.258-8.3,1.033-9.833,1.033h-10.57s-1.033-2.583,0-2.583,2.324-1.033,8.006-1.291,7.828.516,9.983,0,3.191,1.808,6.547,0a93.626,93.626,0,0,1,8.779-3.874s2.617-5.423,1.7-5.423-7.633.775-10.475,0-3.1-2.583-7.749-1.291-5.94,2.583-7.49,1.291-2.841-4.907-2.841-4.907h2.841l4.132,1.55h8.924l10.961,2.066v-13.429s-6.2-1.033-8.779,0-4.569.258-6.547,1.55-1.2,1.033-4.56,1.808-4.39-1.55-6.973,0-4.166,3.357-5.053,2.066a13.348,13.348,0,0,1-1.4-3.874s-.258-1.55,0-1.55a5.154,5.154,0,0,0,3.1,0c2.066-.516,1.808.258,3.357,0s3.061,1.033,4.113,0-1.531-.516,2.86-1.55,7.26-2.841,8.924-2.583a27.8,27.8,0,0,0,4.8,0l4.353,1.549,3.5,1.033v-2.583s-.933-2.583-4.8-2.583-3.322-.258-7.856,0-8.408-.517-8.924,0-.813,1.291-2.86,0-5.238-3.1-5.238-3.1-4.224-1.55,0-1.55a72.983,72.983,0,0,1,11.455,1.55h16.528v-9.039s-6.457.516-7.49,0-4.907,1.033-6.715,0-4.132-.775-5.682-1.291a29.234,29.234,0,0,1-4.132-1.55c-.258-.258-2.841,0-2.841,0l-3.357-2.324s-.441-1.808,2.233-1.291,5.773.516,6.806,1.291,5.423,2.583,8.264,2.324,4.132-.516,5.423,0,5.165,2.066,5.682,1.55,1.808,0,1.808,0-.4-5.084,0-5.848-.244-1.834,0-2.751-3.882-1.987-3.882-1.987a12.743,12.743,0,0,0-4.9-1.223h-4.134a31.906,31.906,0,0,0-5.64,0c-3.515.306-4.126-.306-6.113,0s-.829.153-3.318,0a19.029,19.029,0,0,1-6.156-1.681c-.458-.306.789-2.751,2.228-2.751s2.051-.764,3.12,0a6.555,6.555,0,0,0,3.482,1.223,47.035,47.035,0,0,1,5.423.917,14.844,14.844,0,0,0,4.56.611h4.365c2.8,0,5.394.153,6.313,0a16.6,16.6,0,0,1,2.841,0s1.135.917,1.135-.611v-2.139s2.75-.917,0-1.375-4.769-1.07-6.816-1.07-.618.458-3.472,0-2.473-.306-5.567-.764a35.557,35.557,0,0,1-5.539-.917c-1.375-.458-4.649-1.528-5.916-2.139a37.281,37.281,0,0,1-3.928-2.6s5.194,0,6.6.764,3.089,1.987,3.242,1.834-.527-1.375,2.182,0,3.917,1.987,5.682,2.139,2.375,1.223,4.362.917a32.115,32.115,0,0,1,6.737,0c.445.153,2.737.611,2.432,0s.735-2.292.673-3.056.521-1.222,0-1.834-.192-.764-1.808-.764-1.282.611-4.353,0-3.223-.917-5.974-1.375-2.75-.306-6.418-.917-1.815.764-4.193-.764a32.944,32.944,0,0,1-5.238-4.737,3.4,3.4,0,0,1,3.965,0c2.409,1.375.27.611,5.465,2.751a75.234,75.234,0,0,0,7.591,2.751c1.272.458.17.611,3.472.917a44.072,44.072,0,0,0,6.816,0v-5.5c0-.764-.13-2.6-1.135-3.362s.982-1.07-2.074-1.223a13.245,13.245,0,0,1-4.9-.917,22.148,22.148,0,0,0-4.134-1.07c-3.195-.611-3.5.153-4.876-1.07a18.723,18.723,0,0,1-2.1-2.139,32.313,32.313,0,0,0,3.357.917c2.56.611,1.309,1.528,3.615,1.223s-1.667-.153,3.071,0,6.737,0,6.737,0l3.105,1.07s.7-.611-.673-3.973-5.075-4.126-6.816-3.973-2.076-.611-5.423,0-3.195,1.223-5.64.611-1.834.306-3.515-.611-4.791-2.9-4.791-2.9,3.874-1.681,4.791-1.07,1.375,2.6,3.515,2.6,6.472-.458,7.591,0,3.44,2.292,4.8,1.375,1.693-2.6,3.055-1.375a13.326,13.326,0,0,0,3.105,1.987s-.521-2.6-.673-3.515-.13-.917-1.135-2.139-2.871-.917-5.682-1.375-2.993-.917-5.423-1.528a46.438,46.438,0,0,0-4.876-.917s-1.223-1.07,0-1.222,3.486,0,4.876,0,.473,1.07,3.071,1.222a22.728,22.728,0,0,1,5.193.917c1.989.458,2.012-1.375,2.841,0a2.936,2.936,0,0,0,1.808,1.528s-.4-3.362,0-3.667-1.411-1.528-3.105-1.681-.137.917-3.055,0-3.781-.917-4.8-1.528-1.951-1.223-1.951-1.223v-.764l5.423.764h3.607l3.209,1.223v-6.113a14.545,14.545,0,0,0-3.209-2.292c-1.222-.458-4.737-1.07-5.96-1.528s-4.362-1.528-4.362-1.528-1.868-1.681-1.122-1.834,1.052-2.292,3.192,0,7.486,3.362,7.486,3.362h3.975v-3.362s-4.709-3.056-5.487-2.9-6.127-4.279-5.974-4.89,3.973,1.07,3.973,1.07l5.056,3.209,1.3.611v-8.4l1.808-7.182v9.169s2.231,3.209,1.7,3.973,1.145,2.445,1.145,2.445l3.821,1.375s-.153.306,1.375.764,2.6.153,2.751.764-1.222,2.292-1.987,1.834-4.738-1.528-5.2-1.834-3.605-1.528-3.605-1.528,3.146,3.82,2.841,4.89.152,2.751,0,4.432.458,2.6,0,3.515-.765,2.445,0,1.987,0,.458,2.446,0,2.292.611,3.515,0a8.233,8.233,0,0,1,3.209-1.223,22.364,22.364,0,0,1,3.362,0,11.1,11.1,0,0,1-2.139,2.751c-.917.611.764.306-1.222.917s-2.292.306-3.973.764-1.986,1.834-2.75,1.222a1.5,1.5,0,0,0-1.681,0l-.765.917a5.256,5.256,0,0,1,.765,2.292v1.681s-1.069,2.139,1.681,1.07,3.82-1.681,5.5-2.139,1.987-1.07,3.515-1.375a5.175,5.175,0,0,1,2.445,0,1.421,1.421,0,0,1-.764,1.375c-.917.611-1.07.458-2.751,1.07s-.306.306-2.445,1.07-1.987,1.834-2.751,1.528-2.445-.764-2.75,0-1.681,1.375-1.681,1.375a4.875,4.875,0,0,1,0,1.528,3.04,3.04,0,0,0,0,1.223s-2.292.611.917,0,3.973-.458,5.654-1.223.612-.458,4.126-.917a66.264,66.264,0,0,1,6.724-.611c.764,0,1.681,1.528,0,1.528s1.834-2.139-3.362,0-10.391,4.126-10.391,4.126l-4.432-.917s-.306,2.751,0,3.209-.306,1.223,0,1.987-.612.458,0,1.223.306-.458,2.446,0,1.528,0,4.89,0,4.585.764,5.807,0a6.4,6.4,0,0,1,2.9-1.223c1.834-.458,3.821,2.139,3.821,2.139a1.688,1.688,0,0,1-1.681,1.528H3265.5c-.764,0-.153-.764-2.292,0s-1.07-.458-3.973.917-4.584,1.07-4.432,1.834a27.683,27.683,0,0,1,0,5.043c-.153.306-.458,2.292.917,1.834s3.515.153,5.654-1.07,5.349-1.681,7.488-2.139-.306-.153,3.362-.917,8.4-2.751,9.169-2.751,5.2-.764,3.82,0-.306.611-2.139,1.987-2.292,3.056-3.667,3.056.611-.611-1.987,0-3.973.917-5.2.764a24.65,24.65,0,0,0-3.362,0c-1.07,0-2.75-.917-3.362,0a4.377,4.377,0,0,1-3.515,1.834c-1.834.153-2.292-1.07-3.515,0a18.033,18.033,0,0,1-3.668,2.139l-.765,2.751s.612,3.82.765,5.807,2.6.306,3.056,0,2.292,0,3.515-1.681,1.681-3.668,3.056-4.126,1.375.153,2.139-1.07,4.431-4.279,3.515-2.9.306,3.973-1.222,5.349-3.515,1.681-4.432,2.751.459.153-1.222,1.681-1.528,1.375-2.6,2.445a8.23,8.23,0,0,1-2.139,1.834c-.458.153-2.445.458-2.751.917a31.271,31.271,0,0,0-.917,4.279,2.955,2.955,0,0,0,1.681.784c1.07.133,3.362-.478,4.89-.784s1.987-.942,5.807-1.541,3.667-1.067,5.807-1.291,3.209-.683,4.432-.683h1.987s-.306,1.961-1.987,1.974a7.111,7.111,0,0,0-3.515.777c-1.528.611-1.681,1.109-3.821,1.548s-3.362,1.59-4.584,1.55-5.043,1.248-5.5,1.291-3.362-.5-3.515,0-1.681,0-1.681,0v5.239l1.681,4.584v2.315s6.877-.94,7.946-1.7-.152-1.916,2.139-2.945,3.821-2.113,6.418-3.1,3.21-.833,4.432-2.055a31.614,31.614,0,0,1,4.889-4.279c1.375-.764,3.973-2.775,5.348-3.221s5.349-4.725,5.349-4.725l2.292-.764-2.292,5.489-5.349,3.874s-5.347,3.473-6.265,3.626-4.127,3.056-5.808,3.82-9.015,4.279-9.015,4.279-2.291,3.989-3.362,4.286-6.724,2.583-6.724,2.583a25.663,25.663,0,0,1,1.375,4.907c0,1.213-1.527,7.311-1.375,8.006s1.375,4.057,1.375,4.057,2.9-2.445,5.349-2.751a21.938,21.938,0,0,0,5.654-1.307c2.444-.833,3.057-1.9,5.043-2.667a13.683,13.683,0,0,0,4.431-2.292c2.139-1.528,4.737-2.121,6.265-3.047s3.056-1.808,3.056-1.808,1.834.136.611,1.808-1.986,1.519-3.667,3.047-3.361,1.47-5.2,3.409-5.195,2.4-5.5,2.856a14.354,14.354,0,0,1-5.043,2.051c-1.223.089-7.793,2.992-8.252,3.451s-2.139,1.973-2.139,1.973.764,3.3.764,3.874-1.68,6.556-1.375,7.231a6.269,6.269,0,0,1,.611,2.356c0,.764-.611,5.65-.611,5.65s-.672.377,3.515,0a81.09,81.09,0,0,0,8.71-1.172c2.032-.4,1.635-.795,3.821-.795s10.7-1.133,10.7-1.133.031-.338,1.819-1.291a13.468,13.468,0,0,1,3.775-1.259s.795-.172,0,1.259.717,2.027-1.926,2.424-3.178-.795-5.2.795-3.927.953-5.654,2.463a9.133,9.133,0,0,1-5.2,2.5c-2.69.6-4.049,1.549-5.654,1.37s-3.79.178-4.584,0a6.748,6.748,0,0,0-1.987,0,8.987,8.987,0,0,1-.764,3.2,5.826,5.826,0,0,0-.764,3.774c.137,1.589-1.329,4.29,0,4.132s-.2-1.748,4.737-1.549,2.659,0,6.876,0,5.332.794,8.251,0,0-1.391,4.738-1.291,6.326,1.291,6.326,1.291a1.788,1.788,0,0,1,0,1.549c-.4.835-1.453,1.47-4.8,1.55s-2.673-.08-5.2,0-2.141-.278-3.821,0-2.765-.676-5.5,0a45.618,45.618,0,0,1-6.876,1.291,25.171,25.171,0,0,1-3.973,0,6.765,6.765,0,0,0-.764,1.768,9.98,9.98,0,0,0,0,2.88s6.953.894,8.71,0,1.375-1.092,5.043-1.291,2.552.4,7.182,0,2.9,1.291,2.9,1.291.259.894-3.973,1.291-2.49,0-5.348.795-1.222.834-4.126,1.013-3.178-.378-4.432,0-4.034,1.927-4.432,1.549-.932.258-.764,1.033-.03-4.589.764,2.762.825,5.4.611,7.569.214,2.244,0,3.1-2.674.933,3.82,0,2.522-1.529,9.475-1.728,10.848-1.153,14.364-1.371a22.632,22.632,0,0,0,6.1-1.212,31.626,31.626,0,0,0-6.1,2.583c-3.239,1.788.6.079-5.2,1.728s-7.167.894-10.85,2.066-3.025.577-5.043,1.172-3.973,1.152-3.973,1.152a1.189,1.189,0,0,0-1.223,1.291c0,1.331-2.185,4.271-1.987,5.682a14.153,14.153,0,0,0,.611,3.795c.581,1.589-.642,1.192.764,2.384s2.858,1.192,5.807,1.391-4.4-2.98,6.724,0,6.539,5.187,1.68,4.878.016.309-5.5,0-5.256-.684-6.876,0a8.153,8.153,0,0,0-2.6,1.746s-.779.726,0,2.514a12.772,12.772,0,0,1,1.375,4.967c0,1.589-1.39-4.569,0,2.384s5.471,8.145,8.1,8.145,6.281-1.788,9.322-1.788,4.034.6,7.014,0,2.643.6,6.586,0a19.1,19.1,0,0,1,6.526,0s.993,1.589-.993,1.788-4.768,1.2-6.953,1.194-.994,0-5.165,0-4.294-.4-7.014,0-2.124,0-5.5.991-2.934.595-5.043,1.191a9.718,9.718,0,0,1-4.432,0h-2.445a17.618,17.618,0,0,1,0,4.8,18.118,18.118,0,0,0,0,6.547c.4,2.162,1.391,2.36,0,7.128s-1.36,3.5-1.375,7.711,2.033,1.727,2.6,8.729-.168,16.14,0,17.729-.366,23.243,0,26.223,1.681,17.283,1.222,20.263.459,13.906,0,15.893,0,14.9,0,14.9v6.686Z" transform="translate(-2920.445 -1720.892)" fill="#6d9f79"/>
      <path id="Tree_Group_2" data-name="Tree Group 2" d="M320.686,837V608.086h47.506l-3.808-46.508v-21.9l-5.712-21.421,9.52-10.948,7.616-2.38L364.383,475.22l5.988-3.9-8.017-13h5.837l1.313-3.9-5.121-14.95-2.029-10.833,5.837,4.117h4.13l-1.95-9.533v-7.583l1.95-3.9v-8.017l7.583,5.633,3.25-2.167-3.25-9.75,4.333.867-1.083-12.35-3.25-3.9s3.9-1.517,4.333-1.3,0-5.2,0-5.2l7.367-1.3-1.3-8.45-3.033-6.283,3.033,2.167,2.817-13.867,4.55-2.817,4.55,2.817,5.633,3.25,1.3,9.533,4.333,3.683V372.3s1.95,3.25,1.95,4.983,2.383,6.933,2.383,6.933l5.417,1.733s-2.167,11.05-1.95,11.483a31.746,31.746,0,0,1,0,4.55l5.417-8.667,3.683,11.267,3.033,4.767s-.867,7.8-.867,8.45-3.467,7.367-3.9,8.233,4.767,5.2,4.767,5.2l-3.033,6.067.867,8.667L434.938,436l4.117,4.55.867,5.417v8.45l-4.983,4.767,8.233-.867V445.97L447.938,436l2.167,12.133,3.25-2.167V436l-3.25-4.767,5.417-3.9L451.4,420.4l-3.467-9.533h5.417v-7.15l4.117-10.4,3.683,10.4v-14.3l6.717-6.067,2.6-7.8,1.733-3.25-4.333-5.417,8.45-6.283,1.733-9.533,4.55-1.517a60.022,60.022,0,0,0,4.983-3.683l3.467,14.733,6.067-8.017L499.5,365.8h3.683V351.069L498.421,345l9.1-3.683L499.5,319.653l5.85-1.3,1.3-17.55,3.033-2.383,5.85,11.7v-22.1l5.633-1.517,3.033-5.85v-6.933l3.467-2.817-3.467-8.017,6.067-3.683s5.417-12.567,5.417-13.217,6.933-4.55,6.933-4.55,1.3-2.817,2.383-3.467,6.067,1.3,6.067,1.3,5.2,5.633,4.116,6.717-1.3,11.05-1.3,11.05l7.367,1.083-2.384,6.717-3.683,7.367s5.85,2.383,6.067,2.383,4.116,2.6,4.116,2.6-1.95,5.417-1.517,6.283,5.2,3.033,5.2,3.033l-3.683,6.5v12.567h4.767s-.433,3.683,0,4.55-4.767,5.2-4.767,5.2l7.8,3.033,7.8-9.317-2.167,9.317,5.2,11.7-2.167,15.817,4.983,3.683,4.333-6.067s3.467,1.083,3.467,2.383-3.467,6.717-3.467,6.717-1.083,13.867-1.083,14.3-1.95,10.4-1.95,10.4L584,378.8l8.233,3.25-4.116,5.85s-3.9,8.45-4.117,9.533,4.117,9.75,4.117,9.75V393.319l6.5-16.033,1.517-4.983-2.6-3.683,6.283-4.333,2.6-10.4,5.85-2.817,2.817-3.25,4.55,3.25v8.45L619.1,365.8h1.95v6.5s-6.283,2.384-5.417,3.25,5.85,3.9,6.717,3.25,3.683,0,3.683,0-1.3,6.933-1.083,7.15a34.977,34.977,0,0,0,4.767,0l-3.683,10.183v5.85h3.683l-4.767,9.75h8.233l3.25-4.55s.65,9.75.867,10.617.867,11.7.867,11.7l4.55,1.733L640.555,417.8l2.167-15.817,8.017,7.367,5.633-2.167-5.633-3.467-.867-7.583,4.767,2.167v-8.883l-3.9-7.367,3.9-1.3v-6.5l6.933-1.95s-3.682-13-2.815-12.783,4.55,1.083,4.55,1.083l1.3-15.6,4.117-1.517a25.849,25.849,0,0,1,2.6,2.383c0,.218,6.5,3.249,6.5,3.683s1.95,9.749,1.95,9.967,6.5,4.767,6.5,4.767l-3.033,4.333s3.25,6.282,3.033,6.933a13.937,13.937,0,0,0,0,5.2c.433,1.084,7.583,6.068,7.583,6.068l-1.3,11.482,5.417-6.932s3.9,9.315,3.9,10.616,1.3,7.367,1.3,7.367h2.6s-3.467,11.484-3.9,12.134-.867,9.749-.867,9.749l5.85-13.433V436l8.883,8.884-3.9,4.767,5.417,1.733,2.6,10.617,6.5,1.083-2.817,6.933,4.333,8.667v7.367s4.333,3.467,4.116,4.117-5.633,6.5-5.633,6.5l-4.767,4.117s4.116,1.733,4.767,1.517,9.967-5.633,9.967-5.633l-2.817,7.15-5.633,3.492-4.333,10.948,4.333-4.393,4.116,4.393,1.517,17.211-3.614,13.182,6.431,4.76-8.45,16.478s5.952,9.887,5.633,10.985S723.54,591.5,723.54,591.5a22.052,22.052,0,0,1,0,6.591c-.6,2.563,3.779,9.747,4.333,10s5.633,3.548,5.633,3.548-6.292,5.126-7.15,4.76-6.5,0-6.5,0l1.733,5.859,4.767,4.76L729.893,837Z" transform="translate(-320.686 -237.837)" fill="#669d73"/>
    </g>
    <g id="Group_3" data-name="Group 3" transform="translate(721.7 213.073)">
      <path id="Path_15" data-name="Path 15" d="M3256.382,2115.055v-98.2s-6.983,1.309-11.348,3.928-12.221,3.928-12.221,3.928-2.182-7.42,0-7.856,9.6-3.492,9.6-3.492h10.475s-1.746-7.42,0-8.729,3.491-14.839,3.491-14.839v-11.348l-13.967,4.8-9.6,4.365-4.365-4.365,7.42-4.8h6.547l5.674-2.182,8.292-5.238v-10.475l-3.491-3.492s4.8-3.055-7.856,0-16.585,3.492-16.585,3.492h-9.166l3.928-3.492s.437-.873,5.238-1.746,11.784-2.182,11.784-2.182,13.32,2,12.657,0-.112-9.232,0-10.265a4.192,4.192,0,0,0,0-2.583c-.4-1.808-.921-2.841-1.7-3.1a24.685,24.685,0,0,0-6.16-1.291h-9.166s-5.631,1.549-7.42,1.291a11.015,11.015,0,0,0-4.113,0c-1.808.258-1.808-.258-3.357,0s-1.55-1.291-4.649,0a22.155,22.155,0,0,1-7.231,1.291l-2.066-2.583s5.681-2.324,6.456-2.324h9.722s10.422-2.066,11.455-2.066a29.987,29.987,0,0,0,5.567,0c4.763-.258,13.8,0,13.8,0a7.785,7.785,0,0,0-1.145-3.1c-.921-1.291,0-9.039,0-9.039v-2.324h-7.856c-3.137,0-4.945-1.033-6.752,0s-8.264,1.033-8.264,1.033l-5.682-2.583,5.682-1.808h10.216s-.843-1.033,4.8-1.291a56.615,56.615,0,0,1,7.856,0s.146-3.616,0-4.649,3.986-2.841-1.7-2.841-5.937-.517-8.779,0-2.761,1.291-6.547,1.55-1.461-.775-5.851,0-6.806,1.291-6.806,1.291-6.4,1.55-3.928-1.291.921-3.1,5.053-3.1,1.55-.258,5.682,0,3.357.517,6.973,0,.519,1.291,5.425,0,3.86-1.291,5.674-1.291h4.8a4.985,4.985,0,0,0,0-3.874,31.928,31.928,0,0,1-1.7-4.39,12.635,12.635,0,0,0-4.649-2.583c-2.324-.517-9.3-2.583-9.555-2.583h-9.814l-6.2,1.291s-2.583,4.907-3.1,5.682-3.1.517-3.1-1.808a7.71,7.71,0,0,1,1.55-5.165,9.2,9.2,0,0,1,4.649-3.1c2.324-.775.258,1.033,6.2,0s3.357,1.291,7.49,0a29.556,29.556,0,0,1,10.368-1.291c1.254.258,6.16,1.291,6.16,1.291l1.7-4.907-1.7-2.066v-5.165s-3.282.517-6.16,1.291a49.325,49.325,0,0,1-6.752,1.549c-2.066.258-8.3,1.033-9.833,1.033h-10.57s-1.033-2.583,0-2.583,2.324-1.033,8.006-1.291,7.828.516,9.983,0,3.191,1.808,6.547,0a93.626,93.626,0,0,1,8.779-3.874s2.617-5.423,1.7-5.423-7.633.775-10.475,0-3.1-2.583-7.749-1.291-5.94,2.583-7.49,1.291-2.841-4.907-2.841-4.907h2.841l4.132,1.55h8.924l10.961,2.066v-13.429s-6.2-1.033-8.779,0-4.569.258-6.547,1.55-1.2,1.033-4.56,1.808-4.39-1.55-6.973,0-4.166,3.357-5.053,2.066a13.348,13.348,0,0,1-1.4-3.874s-.258-1.55,0-1.55a5.154,5.154,0,0,0,3.1,0c2.066-.516,1.808.258,3.357,0s3.061,1.033,4.113,0-1.531-.516,2.86-1.55,7.26-2.841,8.924-2.583a27.8,27.8,0,0,0,4.8,0l4.353,1.549,3.5,1.033v-2.583s-.933-2.583-4.8-2.583-3.322-.258-7.856,0-8.408-.517-8.924,0-.813,1.291-2.86,0-5.238-3.1-5.238-3.1-4.224-1.55,0-1.55a72.983,72.983,0,0,1,11.455,1.55h16.528v-9.039s-6.457.516-7.49,0-4.907,1.033-6.715,0-4.132-.775-5.682-1.291a29.234,29.234,0,0,1-4.132-1.55c-.258-.258-2.841,0-2.841,0l-3.357-2.324s-.441-1.808,2.233-1.291,5.773.516,6.806,1.291,5.423,2.583,8.264,2.324,4.132-.516,5.423,0,5.165,2.066,5.682,1.55,1.808,0,1.808,0-.4-5.084,0-5.848-.244-1.834,0-2.751-3.882-1.987-3.882-1.987a12.743,12.743,0,0,0-4.9-1.223h-4.134a31.906,31.906,0,0,0-5.64,0c-3.515.306-4.126-.306-6.113,0s-.829.153-3.318,0a19.029,19.029,0,0,1-6.156-1.681c-.458-.306.789-2.751,2.228-2.751s2.051-.764,3.12,0a6.555,6.555,0,0,0,3.482,1.223,47.035,47.035,0,0,1,5.423.917,14.844,14.844,0,0,0,4.56.611h4.365c2.8,0,5.394.153,6.313,0a16.6,16.6,0,0,1,2.841,0s1.135.917,1.135-.611v-2.139s2.75-.917,0-1.375-4.769-1.07-6.816-1.07-.618.458-3.472,0-2.473-.306-5.567-.764a35.557,35.557,0,0,1-5.539-.917c-1.375-.458-4.649-1.528-5.916-2.139a37.281,37.281,0,0,1-3.928-2.6s5.194,0,6.6.764,3.089,1.987,3.242,1.834-.527-1.375,2.182,0,3.917,1.987,5.682,2.139,2.375,1.223,4.362.917a32.115,32.115,0,0,1,6.737,0c.445.153,2.737.611,2.432,0s.735-2.292.673-3.056.521-1.222,0-1.834-.192-.764-1.808-.764-1.282.611-4.353,0-3.223-.917-5.974-1.375-2.75-.306-6.418-.917-1.815.764-4.193-.764a32.944,32.944,0,0,1-5.238-4.737,3.4,3.4,0,0,1,3.965,0c2.409,1.375.27.611,5.465,2.751a75.234,75.234,0,0,0,7.591,2.751c1.272.458.17.611,3.472.917a44.072,44.072,0,0,0,6.816,0v-5.5c0-.764-.13-2.6-1.135-3.362s.982-1.07-2.074-1.223a13.245,13.245,0,0,1-4.9-.917,22.148,22.148,0,0,0-4.134-1.07c-3.195-.611-3.5.153-4.876-1.07a18.723,18.723,0,0,1-2.1-2.139,32.313,32.313,0,0,0,3.357.917c2.56.611,1.309,1.528,3.615,1.223s-1.667-.153,3.071,0,6.737,0,6.737,0l3.105,1.07s.7-.611-.673-3.973-5.075-4.126-6.816-3.973-2.076-.611-5.423,0-3.195,1.223-5.64.611-1.834.306-3.515-.611-4.791-2.9-4.791-2.9,3.874-1.681,4.791-1.07,1.375,2.6,3.515,2.6,6.472-.458,7.591,0,3.44,2.292,4.8,1.375,1.693-2.6,3.055-1.375a13.326,13.326,0,0,0,3.105,1.987s-.521-2.6-.673-3.515-.13-.917-1.135-2.139-2.871-.917-5.682-1.375-2.993-.917-5.423-1.528a46.438,46.438,0,0,0-4.876-.917s-1.223-1.07,0-1.222,3.486,0,4.876,0,.473,1.07,3.071,1.222a22.728,22.728,0,0,1,5.193.917c1.989.458,2.012-1.375,2.841,0a2.936,2.936,0,0,0,1.808,1.528s-.4-3.362,0-3.667-1.411-1.528-3.105-1.681-.137.917-3.055,0-3.781-.917-4.8-1.528-1.951-1.223-1.951-1.223v-.764l5.423.764h3.607l3.209,1.223v-6.113a14.545,14.545,0,0,0-3.209-2.292c-1.222-.458-4.737-1.07-5.96-1.528s-4.362-1.528-4.362-1.528-1.868-1.681-1.122-1.834,1.052-2.292,3.192,0,7.486,3.362,7.486,3.362h3.975v-3.362s-4.709-3.056-5.487-2.9-6.127-4.279-5.974-4.89,3.973,1.07,3.973,1.07l5.056,3.209,1.3.611v-8.4l1.808-7.182v9.169s2.231,3.209,1.7,3.973,1.145,2.445,1.145,2.445l3.821,1.375s-.153.306,1.375.764,2.6.153,2.751.764-1.222,2.292-1.987,1.834-4.738-1.528-5.2-1.834-3.605-1.528-3.605-1.528,3.146,3.82,2.841,4.89.152,2.751,0,4.432.458,2.6,0,3.515-.765,2.445,0,1.987,0,.458,2.446,0,2.292.611,3.515,0a8.233,8.233,0,0,1,3.209-1.223,22.364,22.364,0,0,1,3.362,0,11.1,11.1,0,0,1-2.139,2.751c-.917.611.764.306-1.222.917s-2.292.306-3.973.764-1.986,1.834-2.75,1.222a1.5,1.5,0,0,0-1.681,0l-.765.917a5.256,5.256,0,0,1,.765,2.292v1.681s-1.069,2.139,1.681,1.07,3.82-1.681,5.5-2.139,1.987-1.07,3.515-1.375a5.175,5.175,0,0,1,2.445,0,1.421,1.421,0,0,1-.764,1.375c-.917.611-1.07.458-2.751,1.07s-.306.306-2.445,1.07-1.987,1.834-2.751,1.528-2.445-.764-2.75,0-1.681,1.375-1.681,1.375a4.875,4.875,0,0,1,0,1.528,3.04,3.04,0,0,0,0,1.223s-2.292.611.917,0,3.973-.458,5.654-1.223.612-.458,4.126-.917a66.264,66.264,0,0,1,6.724-.611c.764,0,1.681,1.528,0,1.528s1.834-2.139-3.362,0-10.391,4.126-10.391,4.126l-4.432-.917s-.306,2.751,0,3.209-.306,1.223,0,1.987-.612.458,0,1.223.306-.458,2.446,0,1.528,0,4.89,0,4.585.764,5.807,0a6.4,6.4,0,0,1,2.9-1.223c1.834-.458,3.821,2.139,3.821,2.139a1.688,1.688,0,0,1-1.681,1.528H3265.5c-.764,0-.153-.764-2.292,0s-1.07-.458-3.973.917-4.584,1.07-4.432,1.834a27.683,27.683,0,0,1,0,5.043c-.153.306-.458,2.292.917,1.834s3.515.153,5.654-1.07,5.349-1.681,7.488-2.139-.306-.153,3.362-.917,8.4-2.751,9.169-2.751,5.2-.764,3.82,0-.306.611-2.139,1.987-2.292,3.056-3.667,3.056.611-.611-1.987,0-3.973.917-5.2.764a24.65,24.65,0,0,0-3.362,0c-1.07,0-2.75-.917-3.362,0a4.377,4.377,0,0,1-3.515,1.834c-1.834.153-2.292-1.07-3.515,0a18.033,18.033,0,0,1-3.668,2.139l-.765,2.751s.612,3.82.765,5.807,2.6.306,3.056,0,2.292,0,3.515-1.681,1.681-3.668,3.056-4.126,1.375.153,2.139-1.07,4.431-4.279,3.515-2.9.306,3.973-1.222,5.349-3.515,1.681-4.432,2.751.459.153-1.222,1.681-1.528,1.375-2.6,2.445a8.23,8.23,0,0,1-2.139,1.834c-.458.153-2.445.458-2.751.917a31.271,31.271,0,0,0-.917,4.279,2.955,2.955,0,0,0,1.681.784c1.07.133,3.362-.478,4.89-.784s1.987-.942,5.807-1.541,3.667-1.067,5.807-1.291,3.209-.683,4.432-.683h1.987s-.306,1.961-1.987,1.974a7.111,7.111,0,0,0-3.515.777c-1.528.611-1.681,1.109-3.821,1.548s-3.362,1.59-4.584,1.55-5.043,1.248-5.5,1.291-3.362-.5-3.515,0-1.681,0-1.681,0v5.239l1.681,4.584v2.315s6.877-.94,7.946-1.7-.152-1.916,2.139-2.945,3.821-2.113,6.418-3.1,3.21-.833,4.432-2.055a31.614,31.614,0,0,1,4.889-4.279c1.375-.764,3.973-2.775,5.348-3.221s5.349-4.725,5.349-4.725l2.292-.764-2.292,5.489-5.349,3.874s-5.347,3.473-6.265,3.626-4.127,3.056-5.808,3.82-9.015,4.279-9.015,4.279-2.291,3.989-3.362,4.286-6.724,2.583-6.724,2.583a25.663,25.663,0,0,1,1.375,4.907c0,1.213-1.527,7.311-1.375,8.006s1.375,4.057,1.375,4.057,2.9-2.445,5.349-2.751a21.938,21.938,0,0,0,5.654-1.307c2.444-.833,3.057-1.9,5.043-2.667a13.683,13.683,0,0,0,4.431-2.292c2.139-1.528,4.737-2.121,6.265-3.047s3.056-1.808,3.056-1.808,1.834.136.611,1.808-1.986,1.519-3.667,3.047-3.361,1.47-5.2,3.409-5.195,2.4-5.5,2.856a14.354,14.354,0,0,1-5.043,2.051c-1.223.089-7.793,2.992-8.252,3.451s-2.139,1.973-2.139,1.973.764,3.3.764,3.874-1.68,6.556-1.375,7.231a6.269,6.269,0,0,1,.611,2.356c0,.764-.611,5.65-.611,5.65s-.672.377,3.515,0a81.09,81.09,0,0,0,8.71-1.172c2.032-.4,1.635-.795,3.821-.795s10.7-1.133,10.7-1.133.031-.338,1.819-1.291a13.468,13.468,0,0,1,3.775-1.259s.795-.172,0,1.259.717,2.027-1.926,2.424-3.178-.795-5.2.795-3.927.953-5.654,2.463a9.133,9.133,0,0,1-5.2,2.5c-2.69.6-4.049,1.549-5.654,1.37s-3.79.178-4.584,0a6.748,6.748,0,0,0-1.987,0,8.987,8.987,0,0,1-.764,3.2,5.826,5.826,0,0,0-.764,3.774c.137,1.589-1.329,4.29,0,4.132s-.2-1.748,4.737-1.549,2.659,0,6.876,0,5.332.794,8.251,0,0-1.391,4.738-1.291,6.326,1.291,6.326,1.291a1.788,1.788,0,0,1,0,1.549c-.4.835-1.453,1.47-4.8,1.55s-2.673-.08-5.2,0-2.141-.278-3.821,0-2.765-.676-5.5,0a45.618,45.618,0,0,1-6.876,1.291,25.171,25.171,0,0,1-3.973,0,6.765,6.765,0,0,0-.764,1.768,9.98,9.98,0,0,0,0,2.88s6.953.894,8.71,0,1.375-1.092,5.043-1.291,2.552.4,7.182,0,2.9,1.291,2.9,1.291.259.894-3.973,1.291-2.49,0-5.348.795-1.222.834-4.126,1.013-3.178-.378-4.432,0-4.034,1.927-4.432,1.549-.932.258-.764,1.033-.03-4.589.764,2.762.825,5.4.611,7.569.214,2.244,0,3.1-2.674.933,3.82,0,2.522-1.529,9.475-1.728,10.848-1.153,14.364-1.371a22.632,22.632,0,0,0,6.1-1.212,31.626,31.626,0,0,0-6.1,2.583c-3.239,1.788.6.079-5.2,1.728s-7.167.894-10.85,2.066-3.025.577-5.043,1.172-3.973,1.152-3.973,1.152a1.189,1.189,0,0,0-1.223,1.291c0,1.331-2.185,4.271-1.987,5.682a14.153,14.153,0,0,0,.611,3.795c.581,1.589-.642,1.192.764,2.384s2.858,1.192,5.807,1.391-4.4-2.98,6.724,0,6.539,5.187,1.68,4.878.016.309-5.5,0-5.256-.684-6.876,0a8.153,8.153,0,0,0-2.6,1.746s-.779.726,0,2.514a12.772,12.772,0,0,1,1.375,4.967c0,1.589-1.39-4.569,0,2.384s5.471,8.145,8.1,8.145,6.281-1.788,9.322-1.788,4.034.6,7.014,0,2.643.6,6.586,0a19.1,19.1,0,0,1,6.526,0s.993,1.589-.993,1.788-4.768,1.2-6.953,1.194-.994,0-5.165,0-4.294-.4-7.014,0-2.124,0-5.5.991-2.934.595-5.043,1.191a9.718,9.718,0,0,1-4.432,0h-2.445a17.618,17.618,0,0,1,0,4.8,18.118,18.118,0,0,0,0,6.547c.4,2.162,1.391,2.36,0,7.128s-1.36,3.5-1.375,7.711,2.033,1.727,2.6,8.729-.168,16.14,0,17.729-.366,23.243,0,26.223,1.681,17.283,1.222,20.263.459,13.906,0,15.893,0,14.9,0,14.9v6.686Z" transform="translate(-3099.583 -1696.129)" fill="#6d9f79"/>
      <path id="Tree_Group_3" data-name="Tree Group 3" d="M2713.536,1961l-3.713-281.516,14.742-6.945-1.972-7.887c-.281-1.127-3.662-19.717-3.662-19.717l1.972-7.887-7.323-12.112s11.267,3.662,12.393,3.662,19.717,1.69,19.717,1.69l9.577-3.38s-1.408-4.788-3.662-3.943-10.422,1.972-10.422,1.972l-6.478-5.352v-3.662l-17.745-3.1,1.972-5.07-1.972-4.507-1.127-10.14,16.618-4.225,2.253-4.788H2747.1l13.8,6.478,16.9-6.478,2.535-3.38-18.027-2.535-8.732,2.535-6.478-4.225-9.577-1.69-5.07-3.1s-.563-2.535,0-3.38-16.618-17.182-16.618-17.182l14.928,1.972s2.817-9.013,3.943-9.3,9.576,2.817,10.985,3.1,7.887-4.507,7.887-4.507l8.732,1.408,19.717,3.1,14.646-8.168,1.972-3.662h-23.1l-13.238,3.662-12.393-6.76,1.69-11.267-14.083,1.69-2.817-6.76-3.943-1.69-4.788-9.3,11.548,3.1,3.662-4.788,15.492,7.042,18.872,2.535,14.083-6.478,5.352-7.887-14.647,6.478-8.732-8.732-6.76,3.38-8.168-1.127h-5.07l-1.69-6.2-8.732,1.972-4.788-10.422-3.943-5.352,13.238,1.972,5.915-4.788,10.7,2.817,7.323-7.323,10.7,2.817,14.647,1.69,1.69-4.507,13.239-1.69s-2.535-5.633-3.38-5.633-9.858,2.253-9.858,2.253l-7.042-6.2-5.633,6.2H2772.73l-10.422-6.2-5.633-2.535,6.76-6.76h15.492l1.408-10.7,3.662,1.408,7.042-3.662L2766.252,1432l14.083-1.972,10.7,1.972,1.69-10.14-5.634,2.253-10.422-3.662h-7.042l12.394-7.323-1.69-7.323-3.662-10.14,5.352,1.127v-13.238s4.506,3.943,5.07,5.352,11.548,3.662,11.548,3.662,2.817,5.352,2.817,7.323,14.928,16.9,14.928,16.9v-16.9h4.507l-4.507-7.323-6.478,4.225s-9.859-7.887-10.14-7.887,6.76-3.38,6.76-3.38l-15.492-10.422,7.6-3.1-1.972-6.2,8.732,6.2,6.479-6.2,6.478,10.985v-9.858l-8.45-10.985V1348.9l6.478,7.042,4.507-4.507v-7.323l3.38-1.127,2.253-5.915a18.679,18.679,0,0,1,2.817,4.788c.563,1.972-1.408,8.168-1.408,9.577a42.053,42.053,0,0,0,1.408,6.2l5.915-4.788h5.915l-5.915,6.2-3.1,4.788,1.408,6.76-1.408,8.168,1.408,3.662,3.662-11.83h3.943l1.127-3.662,7.323,3.662h5.07l-10.422,4.507-5.633,5.352-1.408,6.76,10.985-1.69,6.478-3.1,3.1,6.478-4.788-3.38s-1.971,3.662-3.38,3.38-10.985,1.408-10.985,1.408l-6.478,5.352,3.1,4.225,12.957-4.225v4.225l-10.985,3.38,3.943,4.788,11.83,1.127,11.548-5.915h5.633v4.788l3.662,5.07h-25.632l9.577,3.662,12.393,3.662,1.408,5.07-7.042-1.408-9.858-5.352-7.887,1.69-8.168-7.323-5.07-1.972s1.408,11.267,1.69,12.957,0,10.422,0,11.83,22.533-2.253,22.533-2.253l9.858-3.662-3.1,5.915s-4.507-1.408-6.76,0-13.52,3.662-13.52,3.662l-10.7,1.408v5.352l13.238,1.972s14.646-5.07,15.492-5.633,5.352,0,5.352,0l-6.759,3.662-7.888,1.972-8.732,3.381-7.042-1.409v6.76s7.322,1.971,9.577,2.535,12.395-.846,14.085,0,12.955,0,12.955,0l4.508,3.943h-17.463s0,1.971,1.407,2.253,11.548,1.409,11.548,1.409l4.508,6.478s-12.959-4.789-13.8-4.507-13.8-2.534-14.928-1.971-8.45,1.971-8.45,1.971v6.2l1.127,2.817s10.42,1.689,10.7,1.972,11.548,0,11.548,0l10.986,1.972v3.943l8.45,2.817s-5.352,3.66-5.633,3.1-12.675-3.1-12.675-3.1,4.786,1.97,4.505,3.1,8.17,4.788,8.17,6.2-14.93-4.225-14.93-4.225-3.381-5.633-5.633-5.069-13.52,1.408-13.52,1.408l1.128,9.013,19.152,5.352,14.93,3.1-3.943-59.432-3.945-5.633,9.578,1.127s4.507-3.945,4.507-4.226-1.69-9.577-1.69-9.577l6.479-2.816-9.3-3.1s8.45-4.507,9.3-5.352,1.127-21.97,1.127-21.97l4.507,16.337,5.07,7.323-5.07,1.408-1.127,8.168-3.38,3.662s5.915,6.478,6.76,5.915,8.45,3.1,8.45,3.1l-8.45,1.127h-4.788l1.408,4.506,11.83,1.972,6.2-1.972s.563,5.352,0,5.634-6.76-.282-8.731,0-9.577-1.127-10.7,0,.282,3.942,0,5.633,9.577,3.943,9.577,3.943,6.76-.282,9.858,0a24.053,24.053,0,0,0,5.07,0l4.225,3.662-8.168,1.971-10.985-1.971-9.577-1.409,2.535,7.887s2.253,6.478,5.07,6.478,12.957-1.972,12.957-1.972h8.168v3.944s-14.928.562-15.492,1.408-8.45,2.536-8.45,2.536l2.817,4.225,12.957,1.689h9.858l-19.717,1.972-1.127,7.606,9.858,1.408h16.9s4.788,7.323,5.915,7.042,3.38,5.633,3.38,5.633v3.662l-5.633-5.352-6.76-3.943s2.817,6.2,3.1,7.887,3.662,6.76,3.662,6.76l-6.76-2.254-10.14-12.393-9.858-2.253,3.662,11.549s9.858,3.38,13.52,5.352,16.9,1.972,15.21,2.817-20,1.69-20,1.69l-10.422,2.816,16.618,6.76s9.858,4.224,10.422,5.07,10.14-1.408,10.14-1.408l5.634-10.422L2939.2,1533.4l11.267-5.915-3.1-6.761h-6.76s5.633-3.662,5.352-5.07,1.69-10.422,1.408-10.985-8.168,0-8.168,0l-6.76-5.352h-8.45l8.45-5.352h13.52s4.789,1.971,4.507-1.972-.563-10.7,1.127-11.83,16.055-1.972,16.055-1.972l-1.127-12.393-11.267,1.409s-12.675.845-13.239,0-6.2-3.662-6.2-3.662l-10.422-2.534-6.2-1.409,4.788-9.295,15.21,1.409,2.817-14.366,8.45,5.352,1.127-3.1-15.773-5.915-7.887-3.662s11.267.844,12.675,0,14.647,0,14.647,0v-8.168l-9.3,2.253-6.76-5.352h-6.76l11.83-5.633-3.662-7.323-4.788-5.915,4.788-1.689,3.662-10.986,7.323,5.352h6.478l7.042,5.634,9.858,5.069s0,5.069,1.127,5.915,1.972-9.3,1.972-9.3l1.408-5.633-12.957-1.691-11.267-5.352,9.858-3.662-9.858-3.1-4.788-5.352,7.6-3.1-2.817-6.2s5.634.846,7.887,2.536,8.168,0,8.168,0a37.02,37.02,0,0,0,4.788,3.661,70.084,70.084,0,0,0,7.887,3.1s-3.662-12.674-4.507-12.956-11.83-15.21-11.83-15.21l13.52,5.914,2.817-13.519s3.38,1.407,3.38,4.788,2.253,11.83,2.253,11.83l7.6-14.083v7.042l7.6,1.127-3.38,10.422,9.858-5.915s-.845,5.633,0,7.605,7.887,12.956,7.887,12.956h10.422s-6.76,8.449-7.6,8.45,1.972,9.013,1.972,9.013l-8.732,3.1-10.422,1.127s5.07,2.253,7.605,3.1,11.548,0,11.548,0l-1.972,3.38h9.577l-1.972,5.915,11.267-4.788,2.817,6.759,2.535,10.7-9.577-6.478v8.731l4.225,7.887-11.267-7.887,11.267,13.238-9.295-1.408-7.6,3.662-12.675,3.1v5.633s16.618-1.127,16.618-1.972,6.478-5.352,6.478-5.352l5.07,5.352,11.548-6.76,3.662,4.226,7.042-1.127,2.535,3.662,9.013-2.534-7.6,4.506h17.182l-8.168,5.634H3047.92l6.76,9.576s10.14,5.351,9.577,5.633-20.562-5.633-20.562-5.633-5.351,6.2-7.042,5.633-18.308-.846-19.435,0-12.394-1.971-12.394-1.971,3.662,5.07,4.507,5.07,22.252.844,22.252,1.408,12.112-1.408,12.112-1.408a5.747,5.747,0,0,0,2.535,3.1c1.972,1.127,8.45-1.69,8.45-1.69l1.972,4.507,9.013,3.944s1.972,4.225,1.69,5.07-10.7,6.759-10.7,6.759l-12.957,5.352s-14.083,3.379-14.083,3.662-3.1,4.788-3.1,4.788,14.928-4.226,16.055-4.788,12.112-3.662,12.112-3.662-4.225,5.633-2.535,5.352,13.52-3.1,13.52-3.1l-3.943,6.2s15.492-.282,15.492,0-3.943,2.253-3.943,2.253l5.633,3.943h9.577l-11.267,8.45v5.071h-7.323s-2.535.563-8.168,0-9.577-1.127-9.577-1.127l12.112,9.3-13.238-6.478h-10.14l-4.225,8.168,11.267,5.069,12.675,2.536,12.675,2.817,7.6,8.168-17.745-.563-12.112,3.38,13.238,11.548,16.618,3.38-29.857,15.209-3.1,14.365s9.145,4.75,12.675,4.507,18.308,0,18.308,0l7.594,8.168,8.568,9.013-21.8,1.972,15.21,10.14h-22.815l-17.745-6.76-18.308,9.116,21.407,2.38,9.577,6.188-12.675,4.76h29.293l11.267,1.9,11.822,12.376-25.624,8.092-26.758-8.092L3034.4,1683.2l17.745,10.472S3076.069,1697,3078.9,1697s12.354,3.808,12.354,3.808l-43.338,7.14,40.56,14.281-51.827,4.76,42.25,15.232L3077.214,1961Z" transform="translate(-2709.823 -1337.073)" fill="#669d73"/>
    </g>
    <g id="Group_4" data-name="Group 4">
      <path id="Tree_group_4" data-name="Tree group 4" d="M3066.973,1961V1749.366l11.588-4.76-11.588-3.808-25.695-13.328,25.695-9.52,24.688-5.236s-3.527-10.472-5.542-11.424-28.718-10.472-28.718-10.472l17.634-7.616,16.626-7.616-13.1-1.828s-17.934-1.3-18.622-1.3-6.421-6.717-6.421-6.717,15.135-1.3,15.135,0,9.908,2.167,9.908,2.167l10.272-3.683,1.147-11.7-20.181,1.517-14.906-1.517,23.667-5.2s6.447,1.95,7.557,0,3.862-9.1,3.862-9.1l7.338-1.95-7.338-4.333h-8.944s6.65-4.117,7.8-4.117,8.485-2.6,8.485-2.6l-12.842-7.15s4.586-6.717,4.357-7.583,0-8.667,0-8.667l8.485,4.333s-1.146-10.617-1.834-12.133-6.192-4.767-6.651-4.767-13.8,1.95-13.8,1.95h-10.28l2.218-2.817H3077.6s9.4-3.033,11.237-3.033,8.485-1.3,8.485-1.3l-7.338-4.767-6.88-3.683h12.384l-5.5-11.7-3.862-10.833,5.542,2.817,5.658,1.733v-8.883l-3.21-7.8h6.421l-8.869-11.483-5.542-1.3,5.542-1.3,8.869,5.85h8.027l-3.44-6.717v-5.2l-6.421-4.55,9.861,4.55,3.21-1.733-4.128-7.8-5.733-6.067,5.733,1.733,2.752-5.2-5.274-5.633,7.8-2.383,6.421-3.9-6.421-4.55,1.376-4.767,6.192,2.167-1.146-4.767v-7.15L3123,1467.7l4.816,4.333,6.651,1.95v6.5l2.981,4.767,6.88,2.383-3.44,6.067,1.605,3.25,4.816,4.767-6.421,5.2,7.568,1.733h5.045l-3.21,5.417-5.962,4.983,4.128,1.733,6.88-4.55,4.816,10.617v7.8l4.128-1.95s-.459,6.5-1.605,8.233-3.44,9.967-3.44,9.967l5.045,2.167s-1.147,5.634-1.605,6.283-1.605,7.583-1.605,7.583l5.5-5.417,2.064,4.333v9.75l-2.064,8.45,5.733-3.467,4.816-1.3-3,4.767-1.813,4.333,6.583.867-8.347,7.8,3.578,4.766,4.77,2.275-4.77,6.391,4.77,2.34,3.876-6.674,4.174,6.674V1604.1c0-1.408-2.981-10.075-2.981-10.075l8.646-2.817-2.981-5.85-4.174-9.75,5.664,1.452-1.49-11.2-1.491-4.333,9.54,12.719s-1.491-6.631-2.087-8.385-1.192-17.117-1.192-17.117l4.77,7.15,4.472-2.817-5.962-9.815,4.472-2.319s-2.385-11.549-2.981-12.783-1.491-7.367-1.491-7.367a18.126,18.126,0,0,0,4.472,0c1.49-.346,2.683-12.133,2.683-12.133s6.26,6.76,6.857,7.583,0-12.7,0-12.7l3.876-7.454,3.875-6.283-3.875-5.979,6.558-4.788,1.193-7,4.472-1.3,2.385-8.883h4.174l4.77-4.225,2.087,2.253v15.773s6.857-.845,7.155,0-2.683,4.831-2.683,4.831l-2.385,7.15h5.068v6.067l5.664,2.383,2.683,2.1-5.068,3.531-1.789,9.533,4.174,1.582-2.385,6.218,2.385,4.2,8.944-7.02v7.02l1.49,9.446,3.28,5.764-3.28,6.2-1.49,6.24,9.242-4.831v4.831l-1.789,4.983-2.683,5.633-1.789,5.417,4.472,5.331-1.192,7.02,2.981,4.767,5.962-3.467,4.174,1.539s.894-5.439,0-6.522-5.664-5.59-5.962-7,4.472-7.085,4.472-7.085l4.77,2.383-5.963-8.017,8.646-2.817-4.472-7-2.981-7.605-2.683-12.48,4.174-2.73v-7.02c0-2.275,1.49-9.317,1.49-9.317l5.963,4.333,1.49,6.652v-10.985l-1.49-7.323,6.26-1.408,3.876-8.385,1.789-2.167-1.789-7.15,1.789-4.831,3.876-3.619,3.279-5.676,5.962-6.478,5.366,1.972,1.789,10.183,5.366,8.45-4.174,4.767,4.174,6.457,3.875,6.478v8.731l5.665,1.733a52.283,52.283,0,0,0,0-6.933c-.3-1.56-3.875-7.151-3.875-8.017s5.664,0,5.664,0a43.59,43.59,0,0,1-1.789-6.067c-.6-2.968-.894-11.7-1.193-11.981s5.664-7.952,5.664-7.952,2.981,4.333,2.683,6.283,5.366,6.5,5.366,6.5l6.559,3.337,7.453,1.43-7.453-7.367-6.559-5.85v-5.676l2.981-6.478,4.77,1.972v-6.76l6.26,6.76,4.174-6.76-6.559-7.605,6.559-4.788v-6.957l-6.559-11.351-3.875-6.957H3367.6l-1.817-8.788,7.364-10.985,3.875,10.985,6.589-2.929-3.488-12.816,3.488-5.859,9.689-5.859V1371.3l-2.325-7.69,7.364-3.3,5.426-7.689,2.325-6.957h6.2l5.038-6.591h8.526v13.548l5.038,7.689h5.038l-5.038,7.69v7.69l7.751,2.563v4.76h8.139v4.028l-4.65,5.859-3.488,12.816h8.139s2.713,7.689,0,8.788-5.425,1.831-4.65,2.929,8.526,1.831,8.526,1.831l9.689-8.422a35.831,35.831,0,0,1,0,6.591c-.388,1.831,0,12.816,0,12.816l1.938,3.3v9.154s-.388,8.788,0,8.788,10.077-5.859,10.077-5.859h4.263a46.518,46.518,0,0,0-4.263,5.859c-1.163,2.2-1.938,8.646-1.938,10.365v10.183c0,2.521-8.139,5.85-8.139,5.85s4.263,1.938,6.2,2.6,8.138,0,8.138,0l-6.2,4.767-6.589,6.457v6.478l-3.488,5.352v7.713s9.3-1.459,10.077-2.6,6.2-2.326,6.2-1.733,3.1,4.333,3.1,4.333l-7.363,2.817s5.426,5.71,4.263,6.717-1.938,8.667-1.938,8.667-12.014,7.013-10.852,9.014,0,14.6,0,14.6l6.589-7s4.263,7.292,4.263,9.815,1.938,11.05,1.938,11.05l-8.138,5.331v8.32c0,1.624,3.875,4.767,3.875,4.767l11.239,3.033-6.976,2.817-4.263,8.949,2.325,10.334-6.2,10.172,12.791,4.561-8.915,2.6-1.938,8.45,6.2,11.05,3.1,9.223-5.038,5.126,8.914,6.234-8.914,5.85-2.325,11.351,4.263,5.71s-5.427,4.177-6.2,4.177-8.916,4.535-6.589,6.3a17.889,17.889,0,0,1,4.651,5.788c.776,1.465,2.711,7.69,1.938,8.788s-3.874,5.493-5.037,5.493,0,12.816,0,12.816,8.911-.366,6.975,0-8.526,6.625-8.526,6.625l-3.488,3.808,8.139,9.706s6.974,7.323,6.2,9.154-6.2,4.394-6.2,4.394l3.875,6.957-3.875,8.422-3.1,177.761Z" transform="translate(-1987.204 -1124)" fill="#669d73"/>
    </g>
    <g id="Group_5" data-name="Group 5" transform="translate(1446 156.505)">
      <path id="Path_14" data-name="Path 14" d="M3256.382,2115.055v-98.2s-6.983,1.309-11.348,3.928-12.221,3.928-12.221,3.928-2.182-7.42,0-7.856,9.6-3.492,9.6-3.492h10.475s-1.746-7.42,0-8.729,3.491-14.839,3.491-14.839v-11.348l-13.967,4.8-9.6,4.365-4.365-4.365,7.42-4.8h6.547l5.674-2.182,8.292-5.238v-10.475l-3.491-3.492s4.8-3.055-7.856,0-16.585,3.492-16.585,3.492h-9.166l3.928-3.492s.437-.873,5.238-1.746,11.784-2.182,11.784-2.182,13.32,2,12.657,0-.112-9.232,0-10.265a4.192,4.192,0,0,0,0-2.583c-.4-1.808-.921-2.841-1.7-3.1a24.685,24.685,0,0,0-6.16-1.291h-9.166s-5.631,1.549-7.42,1.291a11.015,11.015,0,0,0-4.113,0c-1.808.258-1.808-.258-3.357,0s-1.55-1.291-4.649,0a22.155,22.155,0,0,1-7.231,1.291l-2.066-2.583s5.681-2.324,6.456-2.324h9.722s10.422-2.066,11.455-2.066a29.987,29.987,0,0,0,5.567,0c4.763-.258,13.8,0,13.8,0a7.785,7.785,0,0,0-1.145-3.1c-.921-1.291,0-9.039,0-9.039v-2.324h-7.856c-3.137,0-4.945-1.033-6.752,0s-8.264,1.033-8.264,1.033l-5.682-2.583,5.682-1.808h10.216s-.843-1.033,4.8-1.291a56.615,56.615,0,0,1,7.856,0s.146-3.616,0-4.649,3.986-2.841-1.7-2.841-5.937-.517-8.779,0-2.761,1.291-6.547,1.55-1.461-.775-5.851,0-6.806,1.291-6.806,1.291-6.4,1.55-3.928-1.291.921-3.1,5.053-3.1,1.55-.258,5.682,0,3.357.517,6.973,0,.519,1.291,5.425,0,3.86-1.291,5.674-1.291h4.8a4.985,4.985,0,0,0,0-3.874,31.928,31.928,0,0,1-1.7-4.39,12.635,12.635,0,0,0-4.649-2.583c-2.324-.517-9.3-2.583-9.555-2.583h-9.814l-6.2,1.291s-2.583,4.907-3.1,5.682-3.1.517-3.1-1.808a7.71,7.71,0,0,1,1.55-5.165,9.2,9.2,0,0,1,4.649-3.1c2.324-.775.258,1.033,6.2,0s3.357,1.291,7.49,0a29.556,29.556,0,0,1,10.368-1.291c1.254.258,6.16,1.291,6.16,1.291l1.7-4.907-1.7-2.066v-5.165s-3.282.517-6.16,1.291a49.325,49.325,0,0,1-6.752,1.549c-2.066.258-8.3,1.033-9.833,1.033h-10.57s-1.033-2.583,0-2.583,2.324-1.033,8.006-1.291,7.828.516,9.983,0,3.191,1.808,6.547,0a93.626,93.626,0,0,1,8.779-3.874s2.617-5.423,1.7-5.423-7.633.775-10.475,0-3.1-2.583-7.749-1.291-5.94,2.583-7.49,1.291-2.841-4.907-2.841-4.907h2.841l4.132,1.55h8.924l10.961,2.066v-13.429s-6.2-1.033-8.779,0-4.569.258-6.547,1.55-1.2,1.033-4.56,1.808-4.39-1.55-6.973,0-4.166,3.357-5.053,2.066a13.348,13.348,0,0,1-1.4-3.874s-.258-1.55,0-1.55a5.154,5.154,0,0,0,3.1,0c2.066-.516,1.808.258,3.357,0s3.061,1.033,4.113,0-1.531-.516,2.86-1.55,7.26-2.841,8.924-2.583a27.8,27.8,0,0,0,4.8,0l4.353,1.549,3.5,1.033v-2.583s-.933-2.583-4.8-2.583-3.322-.258-7.856,0-8.408-.517-8.924,0-.813,1.291-2.86,0-5.238-3.1-5.238-3.1-4.224-1.55,0-1.55a72.983,72.983,0,0,1,11.455,1.55h16.528v-9.039s-6.457.516-7.49,0-4.907,1.033-6.715,0-4.132-.775-5.682-1.291a29.234,29.234,0,0,1-4.132-1.55c-.258-.258-2.841,0-2.841,0l-3.357-2.324s-.441-1.808,2.233-1.291,5.773.516,6.806,1.291,5.423,2.583,8.264,2.324,4.132-.516,5.423,0,5.165,2.066,5.682,1.55,1.808,0,1.808,0-.4-5.084,0-5.848-.244-1.834,0-2.751-3.882-1.987-3.882-1.987a12.743,12.743,0,0,0-4.9-1.223h-4.134a31.906,31.906,0,0,0-5.64,0c-3.515.306-4.126-.306-6.113,0s-.829.153-3.318,0a19.029,19.029,0,0,1-6.156-1.681c-.458-.306.789-2.751,2.228-2.751s2.051-.764,3.12,0a6.555,6.555,0,0,0,3.482,1.223,47.035,47.035,0,0,1,5.423.917,14.844,14.844,0,0,0,4.56.611h4.365c2.8,0,5.394.153,6.313,0a16.6,16.6,0,0,1,2.841,0s1.135.917,1.135-.611v-2.139s2.75-.917,0-1.375-4.769-1.07-6.816-1.07-.618.458-3.472,0-2.473-.306-5.567-.764a35.557,35.557,0,0,1-5.539-.917c-1.375-.458-4.649-1.528-5.916-2.139a37.281,37.281,0,0,1-3.928-2.6s5.194,0,6.6.764,3.089,1.987,3.242,1.834-.527-1.375,2.182,0,3.917,1.987,5.682,2.139,2.375,1.223,4.362.917a32.115,32.115,0,0,1,6.737,0c.445.153,2.737.611,2.432,0s.735-2.292.673-3.056.521-1.222,0-1.834-.192-.764-1.808-.764-1.282.611-4.353,0-3.223-.917-5.974-1.375-2.75-.306-6.418-.917-1.815.764-4.193-.764a32.944,32.944,0,0,1-5.238-4.737,3.4,3.4,0,0,1,3.965,0c2.409,1.375.27.611,5.465,2.751a75.234,75.234,0,0,0,7.591,2.751c1.272.458.17.611,3.472.917a44.072,44.072,0,0,0,6.816,0v-5.5c0-.764-.13-2.6-1.135-3.362s.982-1.07-2.074-1.223a13.245,13.245,0,0,1-4.9-.917,22.148,22.148,0,0,0-4.134-1.07c-3.195-.611-3.5.153-4.876-1.07a18.723,18.723,0,0,1-2.1-2.139,32.313,32.313,0,0,0,3.357.917c2.56.611,1.309,1.528,3.615,1.223s-1.667-.153,3.071,0,6.737,0,6.737,0l3.105,1.07s.7-.611-.673-3.973-5.075-4.126-6.816-3.973-2.076-.611-5.423,0-3.195,1.223-5.64.611-1.834.306-3.515-.611-4.791-2.9-4.791-2.9,3.874-1.681,4.791-1.07,1.375,2.6,3.515,2.6,6.472-.458,7.591,0,3.44,2.292,4.8,1.375,1.693-2.6,3.055-1.375a13.326,13.326,0,0,0,3.105,1.987s-.521-2.6-.673-3.515-.13-.917-1.135-2.139-2.871-.917-5.682-1.375-2.993-.917-5.423-1.528a46.438,46.438,0,0,0-4.876-.917s-1.223-1.07,0-1.222,3.486,0,4.876,0,.473,1.07,3.071,1.222a22.728,22.728,0,0,1,5.193.917c1.989.458,2.012-1.375,2.841,0a2.936,2.936,0,0,0,1.808,1.528s-.4-3.362,0-3.667-1.411-1.528-3.105-1.681-.137.917-3.055,0-3.781-.917-4.8-1.528-1.951-1.223-1.951-1.223v-.764l5.423.764h3.607l3.209,1.223v-6.113a14.545,14.545,0,0,0-3.209-2.292c-1.222-.458-4.737-1.07-5.96-1.528s-4.362-1.528-4.362-1.528-1.868-1.681-1.122-1.834,1.052-2.292,3.192,0,7.486,3.362,7.486,3.362h3.975v-3.362s-4.709-3.056-5.487-2.9-6.127-4.279-5.974-4.89,3.973,1.07,3.973,1.07l5.056,3.209,1.3.611v-8.4l1.808-7.182v9.169s2.231,3.209,1.7,3.973,1.145,2.445,1.145,2.445l3.821,1.375s-.153.306,1.375.764,2.6.153,2.751.764-1.222,2.292-1.987,1.834-4.738-1.528-5.2-1.834-3.605-1.528-3.605-1.528,3.146,3.82,2.841,4.89.152,2.751,0,4.432.458,2.6,0,3.515-.765,2.445,0,1.987,0,.458,2.446,0,2.292.611,3.515,0a8.233,8.233,0,0,1,3.209-1.223,22.364,22.364,0,0,1,3.362,0,11.1,11.1,0,0,1-2.139,2.751c-.917.611.764.306-1.222.917s-2.292.306-3.973.764-1.986,1.834-2.75,1.222a1.5,1.5,0,0,0-1.681,0l-.765.917a5.256,5.256,0,0,1,.765,2.292v1.681s-1.069,2.139,1.681,1.07,3.82-1.681,5.5-2.139,1.987-1.07,3.515-1.375a5.175,5.175,0,0,1,2.445,0,1.421,1.421,0,0,1-.764,1.375c-.917.611-1.07.458-2.751,1.07s-.306.306-2.445,1.07-1.987,1.834-2.751,1.528-2.445-.764-2.75,0-1.681,1.375-1.681,1.375a4.875,4.875,0,0,1,0,1.528,3.04,3.04,0,0,0,0,1.223s-2.292.611.917,0,3.973-.458,5.654-1.223.612-.458,4.126-.917a66.264,66.264,0,0,1,6.724-.611c.764,0,1.681,1.528,0,1.528s1.834-2.139-3.362,0-10.391,4.126-10.391,4.126l-4.432-.917s-.306,2.751,0,3.209-.306,1.223,0,1.987-.612.458,0,1.223.306-.458,2.446,0,1.528,0,4.89,0,4.585.764,5.807,0a6.4,6.4,0,0,1,2.9-1.223c1.834-.458,3.821,2.139,3.821,2.139a1.688,1.688,0,0,1-1.681,1.528H3265.5c-.764,0-.153-.764-2.292,0s-1.07-.458-3.973.917-4.584,1.07-4.432,1.834a27.683,27.683,0,0,1,0,5.043c-.153.306-.458,2.292.917,1.834s3.515.153,5.654-1.07,5.349-1.681,7.488-2.139-.306-.153,3.362-.917,8.4-2.751,9.169-2.751,5.2-.764,3.82,0-.306.611-2.139,1.987-2.292,3.056-3.667,3.056.611-.611-1.987,0-3.973.917-5.2.764a24.65,24.65,0,0,0-3.362,0c-1.07,0-2.75-.917-3.362,0a4.377,4.377,0,0,1-3.515,1.834c-1.834.153-2.292-1.07-3.515,0a18.033,18.033,0,0,1-3.668,2.139l-.765,2.751s.612,3.82.765,5.807,2.6.306,3.056,0,2.292,0,3.515-1.681,1.681-3.668,3.056-4.126,1.375.153,2.139-1.07,4.431-4.279,3.515-2.9.306,3.973-1.222,5.349-3.515,1.681-4.432,2.751.459.153-1.222,1.681-1.528,1.375-2.6,2.445a8.23,8.23,0,0,1-2.139,1.834c-.458.153-2.445.458-2.751.917a31.271,31.271,0,0,0-.917,4.279,2.955,2.955,0,0,0,1.681.784c1.07.133,3.362-.478,4.89-.784s1.987-.942,5.807-1.541,3.667-1.067,5.807-1.291,3.209-.683,4.432-.683h1.987s-.306,1.961-1.987,1.974a7.111,7.111,0,0,0-3.515.777c-1.528.611-1.681,1.109-3.821,1.548s-3.362,1.59-4.584,1.55-5.043,1.248-5.5,1.291-3.362-.5-3.515,0-1.681,0-1.681,0v5.239l1.681,4.584v2.315s6.877-.94,7.946-1.7-.152-1.916,2.139-2.945,3.821-2.113,6.418-3.1,3.21-.833,4.432-2.055a31.614,31.614,0,0,1,4.889-4.279c1.375-.764,3.973-2.775,5.348-3.221s5.349-4.725,5.349-4.725l2.292-.764-2.292,5.489-5.349,3.874s-5.347,3.473-6.265,3.626-4.127,3.056-5.808,3.82-9.015,4.279-9.015,4.279-2.291,3.989-3.362,4.286-6.724,2.583-6.724,2.583a25.663,25.663,0,0,1,1.375,4.907c0,1.213-1.527,7.311-1.375,8.006s1.375,4.057,1.375,4.057,2.9-2.445,5.349-2.751a21.938,21.938,0,0,0,5.654-1.307c2.444-.833,3.057-1.9,5.043-2.667a13.683,13.683,0,0,0,4.431-2.292c2.139-1.528,4.737-2.121,6.265-3.047s3.056-1.808,3.056-1.808,1.834.136.611,1.808-1.986,1.519-3.667,3.047-3.361,1.47-5.2,3.409-5.195,2.4-5.5,2.856a14.354,14.354,0,0,1-5.043,2.051c-1.223.089-7.793,2.992-8.252,3.451s-2.139,1.973-2.139,1.973.764,3.3.764,3.874-1.68,6.556-1.375,7.231a6.269,6.269,0,0,1,.611,2.356c0,.764-.611,5.65-.611,5.65s-.672.377,3.515,0a81.09,81.09,0,0,0,8.71-1.172c2.032-.4,1.635-.795,3.821-.795s10.7-1.133,10.7-1.133.031-.338,1.819-1.291a13.468,13.468,0,0,1,3.775-1.259s.795-.172,0,1.259.717,2.027-1.926,2.424-3.178-.795-5.2.795-3.927.953-5.654,2.463a9.133,9.133,0,0,1-5.2,2.5c-2.69.6-4.049,1.549-5.654,1.37s-3.79.178-4.584,0a6.748,6.748,0,0,0-1.987,0,8.987,8.987,0,0,1-.764,3.2,5.826,5.826,0,0,0-.764,3.774c.137,1.589-1.329,4.29,0,4.132s-.2-1.748,4.737-1.549,2.659,0,6.876,0,5.332.794,8.251,0,0-1.391,4.738-1.291,6.326,1.291,6.326,1.291a1.788,1.788,0,0,1,0,1.549c-.4.835-1.453,1.47-4.8,1.55s-2.673-.08-5.2,0-2.141-.278-3.821,0-2.765-.676-5.5,0a45.618,45.618,0,0,1-6.876,1.291,25.171,25.171,0,0,1-3.973,0,6.765,6.765,0,0,0-.764,1.768,9.98,9.98,0,0,0,0,2.88s6.953.894,8.71,0,1.375-1.092,5.043-1.291,2.552.4,7.182,0,2.9,1.291,2.9,1.291.259.894-3.973,1.291-2.49,0-5.348.795-1.222.834-4.126,1.013-3.178-.378-4.432,0-4.034,1.927-4.432,1.549-.932.258-.764,1.033-.03-4.589.764,2.762.825,5.4.611,7.569.214,2.244,0,3.1-2.674.933,3.82,0,2.522-1.529,9.475-1.728,10.848-1.153,14.364-1.371a22.632,22.632,0,0,0,6.1-1.212,31.626,31.626,0,0,0-6.1,2.583c-3.239,1.788.6.079-5.2,1.728s-7.167.894-10.85,2.066-3.025.577-5.043,1.172-3.973,1.152-3.973,1.152a1.189,1.189,0,0,0-1.223,1.291c0,1.331-2.185,4.271-1.987,5.682a14.153,14.153,0,0,0,.611,3.795c.581,1.589-.642,1.192.764,2.384s2.858,1.192,5.807,1.391-4.4-2.98,6.724,0,6.539,5.187,1.68,4.878.016.309-5.5,0-5.256-.684-6.876,0a8.153,8.153,0,0,0-2.6,1.746s-.779.726,0,2.514a12.772,12.772,0,0,1,1.375,4.967c0,1.589-1.39-4.569,0,2.384s5.471,8.145,8.1,8.145,6.281-1.788,9.322-1.788,4.034.6,7.014,0,2.643.6,6.586,0a19.1,19.1,0,0,1,6.526,0s.993,1.589-.993,1.788-4.768,1.2-6.953,1.194-.994,0-5.165,0-4.294-.4-7.014,0-2.124,0-5.5.991-2.934.595-5.043,1.191a9.718,9.718,0,0,1-4.432,0h-2.445a17.618,17.618,0,0,1,0,4.8,18.118,18.118,0,0,0,0,6.547c.4,2.162,1.391,2.36,0,7.128s-1.36,3.5-1.375,7.711,2.033,1.727,2.6,8.729-.168,16.14,0,17.729-.366,23.243,0,26.223,1.681,17.283,1.222,20.263.459,13.906,0,15.893,0,14.9,0,14.9v6.686Z" transform="translate(-2846.627 -1588.505)" fill="#6d9f79"/>
      <path id="Tree_Group_5" data-name="Tree Group 5" d="M3432,1961l3.094-187.45L3449.3,1762l-4.028-11.717,4.028-10.985,10.253-13.914-6.591-5.493,6.591-1.831-8.788-5.859-5.493-8.788,10.985-7.69h5.126l-5.126-7.69-5.492-8.788,8.788-4.394h26.364l2.2-5.126h-10.985l-7.689-2.929s4.76-4.394,0-4.76a77.459,77.459,0,0,0-9.887,0l-3.3-13.182-5.492-11.717,8.788-9.154-3.3,6.225h9.154l6.957-6.225,10.253,6.225s15.379,2.929,16.478,2.929,10.985-.732,10.985-2.929a70.881,70.881,0,0,1,1.465-8.788H3499.1l-10.985-5.126-5.493,2.2-13.182-3.662h-8.056l4.028-5.492-9.154-9.154v-4.76l9.154-4.76,4.028-5.492,7.689,5.492,8.788-1.831,6.225-3.662,5.492,1.831,13.915,1.831,12.083-3.662,6.225-3.662v-6.225H3516.68l-17.576,2.2h-6.957l-9.521-7.323v-7.323h-5.492l-4.76-1.465-2.929-5.126-13.182-9.154h13.182l4.394-1.465,12.083,4.028s10.252,4.028,11.717,4.028h13.915s11.351-4.394,12.083-6.591,4.028-6.957,4.028-6.957h-12.816l-7.689,6.957-2.929-12.816-9.886,5.859h-8.422l-5.126-5.859-11.351-2.2-4.028-10.253h11.717l8.788-4.76,13.182,4.76,5.126-10.253,14.647,4.028h8.788l2.2-5.859,10.253,1.831v-7.69h-10.253l-6.225-2.563-8.788,5.126h-12.816l-16.111-8.056,8.422-4.394,9.886-2.2h7.323v-12.816l7.323,4.225,2.534-4.225-20.844-7.324,9.3-1.69,6.817,1.69h6.957V1465.8h-6.957l-9.52-1.408-2.929-5.352h7.323a48.741,48.741,0,0,0,5.126-1.408c1.351-.563-3.156-6.2-3.156-6.2l-6.365-7.042,6.365-3.1v-9.577s7.6,6.2,7.887,6.2,8.451,1.972,8.451,1.972l2.816,8.45,7.437,7.887,7.491,2.817,1.972-10.7,3.662-3.943-1.972-6.478-9.858-1.69-8.732-4.507h8.732l6.2-2.253-6.2-3.943s-8.168-3.662-8.732-4.788-5.013-8.732-5.013-8.732l12.45,4.507,1.295-1.972,8.168,1.972,1.69,2.535,1.972-4.507-3.662-5.915s-5.915-1.972-6.76-4.507-2.7-10.7-2.7-10.7l7.491,5.915,1.972-5.915,7.042-7.605,7.887-6.2-4.788,9.013a13.844,13.844,0,0,1,1.408,4.788c0,1.972,3.38,8.45,3.38,8.45l7.323-2.535,7.042-5.915-4.225,8.45-6.478,2.253-3.662,6.76s-1.127,7.323-1.127,8.168v7.887l4.788-2.817,2.535-9.577h14.647l5.915-2.535-5.915,4.507-8.45,2.535-5.07,5.07-7.323,7.6-1.127,6.2,1.127,3.38s4.507,1.69,7.323,1.69,14.928-1.69,14.928-1.69h4.507l-5.915,3.1-10.7,2.535s-5.07-1.127-6.478,0-1.127,4.507-1.127,4.507l9.858,3.38h9.858l10.14-3.38,7.042,3.38v4.225H3596.9l-5.634-1.408-15.492,3.38-8.732-1.972,1.127,6.76,11.83,2.535,14.365-2.535h7.6l-5.07,3.943s8.731,5.07,7.042,4.225-14.928,0-14.928,0l9.577,3.943-19.717-2.253h-11.83s-.845,9.013,1.127,9.013h8.732s9.859.845,12.112,0,7.887,2.535,7.887,2.535l7.042,3.943h8.732l7.605-3.943,3.662,1.972-4.788,3.38-6.479,1.408H3596.9l14.365,4.028h-20l-18.027-2.2-5.07,2.2,14.928,4.394s12.675-.873,13.8,0,20.28,2.929,20.28,2.929l-4.507,2.563h-10.7s-14.365-.732-16.618,0-14.647,2.563-14.647,2.563l-2.535,5.126s5.352,4.028,8.732,4.028,27.04,1.465,27.04,1.465h10.7l14.083,7.83h-14.083l9.3,3.38-27.04,3.8-13.8,3.8-7.323-1.605-3.943,5.859s18.308,5.1,19.435,5.492,16.055,0,16.055,0l14.928,1.465h-16.9l11.83,6.591s13.52,1.24,13.238,2.563-20.843,1.887-20.843,1.887l-15.21,1.408,9.577,7.042,23.66,6.76s3.1,4.338,2.817,4.141-17.745.479-19.153,0-11.548,6.281-11.548,6.281,6.479,5.071,9.858,5.07,9.013-1.69,14.365,0,15.773,6.591,15.773,6.591L3617.178,1601l-13.239-2.817s-13.8-.282-14.928,0-9.013,1.24-9.013,1.24l3.1,4.76s14.365,3.014,16.618,3.859,10.14,4.958,16.337,5.3,18.027,2.028,18.027,2.028l6.76,4.93-16.9,2.2-14.365,2.929-18.309,4.027h-18.027l18.027,13.238s13.52-1.127,16.055,0,14.083,3.662,16.618,3.943,15.773,8.168,15.773,8.168l-15.773,2.817s-21.407,1.127-21.97,1.972-7.6,4.507-7.6,4.507l-9.013,2.7,3.662,2.929,10.7,5.126,7.6,1.633-16.055,2.761,5.634,5.971s16.618-1.127,17.745,0,10.7,0,10.7,0l11.549,4.506,12.393,3.1-16.337,5.07s-28.447-.563-29.011,0-18.59,5.521-18.59,5.521l58.023,7.154,13.238-12.675-19.717,1.408,19.717-14.083,8.732-12.394-21.97,2.029h-28.729l2.535-6.535s9.859-.787,11.548-1.52,20.561-4.76,20.561-4.76,7.6-5.268,8.732-5.831,5.633-3.38,7.323-4.507-2.535-5.07-2.535-5.07-10.7-2.254-13.52-2.254h-16.337s-4.507-4.788-7.605-4.788-14.083-5.379-14.083-5.379l10.985-2.508,22.814,2.508a48.524,48.524,0,0,1,9.577-2.508c4.507-.563,15.21-6.281,15.21-6.281v-6.591s-12.957-4.985-15.21-5.492-10.985-.056-12.393,0-14.646-2.761-14.646-2.761l2.817-6.393h34.926l9.858-4.76,3.38-8.422h-33.519l-10.984,1.831-3.662-5.07,11.829-2.253,12.393-4.028s10.422-5.435,12.112-7.323,8.45-7.323,8.45-7.323h-27.6l-10.7,3.746-6.478-7.042,11.829-1.408,23.1-4.45,9.858-8.056,1.972-5.492-15.773-2.564-19.153,2.564-14.646-2.564,2.817-5.492s15.491.7,17.181,0,21.97-7.182,22.252-7.183,12.675-5.07,12.675-5.07l-19.717-6.478s-15.773-1.127-17.745,0-14.646-3.6-14.646-3.6l2.534-8.422s17.745-3.52,18.872-2.929,20,2.929,20,2.929l10.7-7.323,5.352-6.845-22.533,1.408-16.055-3.38-13.52-6.2,16.055-3.381,21.407-1.69,12.675-5.352,4.788-6.76h-38.87l-10.984-4.788,17.181-4.788,19.153,1.408,10.7-6.2h-33.237l-11.267-4.507-9.294-9.013s-3.661-2.817-3.662-3.944,16.054-2.253,16.054-2.253l6.76-4.788h16.618s12.675,3.944,12.675,4.788,10.422,0,10.422,0l8.732-10.985,3.119-4.225s-3.033-6.869-4.983-6.652-13.3,1.388-13.909,1.019-18.027,0-18.027,0l-9.858-3.836s-5.654-7.409-6.2-7.713,14.841-3.987,14.841-3.987l8.45,2.6,10.791-6.717,15.773-7.367,3.119-4.246-18.893-4.2h-16.055l8.3-5.417,18.2-1.95,9.967-3.467-11.267-6.717h-17.874l-9.295-4.767L3684,1352l23.4,1.083-3.467-9.317-10.984-7.8c-2.746-1.95,17.484,3.467,17.484,3.467l-4.117-8.017-16.9-8.017,1.279-8.017,10.985,5.633-1.864-6.717,1.864-10.183,9.619,7.8s4.983,2.167,4.333,0-4.55-19.067-4.333-20.367,2.817-11.05,2.817-11.05l7.15,7.15,3.467,8.883,18.633-1.95-14.517,6.283,8.883,4.55,11.7,5.2-23.183-3.467,15.383,8.233s14.95,3.033,15.167,3.683-19.067,3.467-19.067,3.467l-13-5.85,1.517,14.733,11.483,2.167s22.1,1.083,22.75,2.383,11.917,0,11.917,0l-15.6,3.467-20.8,1.733-9.75,2.6v4.983a51.078,51.078,0,0,1,3.9,4.333c1.083,1.517,17.333,1.95,17.333,1.95l-15.167,1.95-6.067,5.85s1.3,3.9,1.517,5.2,19.717-2.383,19.717-2.383l6.933-1.083s-.65,3.033-1.517,3.467-10.184,1.3-11.267,1.95-12.783,4.333-12.783,4.333-3.25,3.425-2.6,5.287-3.033,6.2-3.033,6.2l-1.95,7.605s15.817,2.144,16.467,1.928,6.933-.822,9.75-1.928,9.317-7.605,9.317-7.605l-5.417,7.605s16.9-.844,15.817,0-13.867,2.794-14.95,3.444-23.617,4.333-23.617,4.333l21.667,4.333-18.633.65s-3.9,3.467-3.9,4.767,4.55,9.317,5.2,9.967,12.134,4.117,15.167,4.55,4.333.433,8.667-.217,13.65-1.733,15.384-1.517,4.117-2.167,4.117-2.167a5.114,5.114,0,0,1,1.3,2.383c.217,1.3,5.417,3.9,6.933,3.9s8.884.217,8.884.217l-10.4,3.033s7.8,3.033,7.367,3.9-10.617.217-10.617.217l9.533,8.017-18.85-6.933-12.783-3.9-20.367,3.033s-5.417,5.85-5.633,6.5,12.783,6.283,12.783,6.283-11.05-1.95-11.7-.65,23.183,8.45,23.183,8.45,10.617.217,14.517.433,18.069,1.192,18.069,1.192l4.9-1.192.894,8h13.127l-9.266,8.117,5.6,5.352h-15.25l-12.219-3.943-20.367,1.69-11.483,4.808,21.676,9.652s-13.849-.772-14.743,0,12.812,10.424,12.812,10.424,21.428,5.984,23.358,5.984,14.479,2.7,14.479,2.7l-1.93,4.51-14.285-2.194s-23.166-1.624-23.938-1.1-17.429,0-17.429,0l28.819,10.619s-27.413,1.1-26.833,1.293,31.165,8.687,31.165,8.687l18.255,7.23h27.605l-13.513,7.828-11.776,4.988-20.572-2.478-20.8,6.757-4.55,4.876,17.351,5.742,14.932,4.6s16.341,1.2,17.5,1.2h12.741v7.508h16.023l9.459,1.179-10.424,8.3,6.949,4.068h-15.83l-22.779,3.075s-16.6,1.158-17.181,1.158-18.532,1.658-20.077,1.119-8.664-3.242-8.664-3.242,9.629,8.445,10.4,9.242,16.278,3.832,17.115,3.859,9.474,1.954,13.65,2.535,19.426-.191,19.426-.191-25.289,3.475-26.447,3.475-16.6,3.282-16.6,3.282,16.6,6.95,17.181,6.95,12.741-2.317,15.251-2.317,17.567-1.351,20.077-1.351,16.023-2.7,16.023-2.7v7.7l-16.023,11.717-22.2-1.321s-28.951,7.192-29.652,6.87-21.749,9.013-21.749,9.013,11.622,15.912,13.177,16.618,31.538,4.507,31.538,4.507,17.854,3.174,19.426,3.662,23.938,3.763,23.938,3.763l-11.375,4.969h-37.852s-24.751,2.514-24.9,3.216,35.521,9.459,35.521,9.459l-38.713,3.637,77.322,10.056,7.087-5.046v-13.717h-15.809l19.761-9.6-19.761-10.4-18.112-8.731,19.884-2.056s7.207,6.395,10.424,6.281,17.445-1.52,17.445-1.52l-17.445-15.1,3.613-12.112h7.9v-14.167l16.6,11.717-7.114-13.047,11.856,1.33-11.856-11.561-9.485-9.677,9.485,3.859,2.371-13.379,13.042,6.337-1.146-5.093s-6.751-4.84-7.153-4.905-4.742-5.493-4.742-5.493h7.4l7.2,3.255-7.2-10.421,5.644-1-1.146-5.564s-4.857-4.758-4.5-4.942,8.1.543,8.455,0,3.418-9.154,3.418-9.154v-16.112s4.317,9.972,4.677,11.231,1.439,9.331,1.439,9.331l5.937,3.855-7.375.849v4.942l-3.958,4.229,3.958,5.476s7.735.82,8.275,1.359,7.735,5.911,7.2,5.924-12.052,0-12.052,0l6.476,2.237-15.65,3.94,5.756,11.464,8.275,4.171,8.275-7.229-2.339,7.229-9.354,6.565-5.756,1.688.9,9.882,16.55-6.937-2.339,6.937-9.354,4.137,8.455,7.555,6.476,3.972h-16.37l6.476,7.323s-4.677,2.916-3.958,2.916,14.571,6.116,14.571,6.116h-9.174l-1.439,5.037,6.656,4.137-5.217,5.756,5.217,7.56,6.116,3.773v274Z" transform="translate(-3431.999 -1280.505)" fill="#669d73"/>
    </g>
  </g>
</svg>
