<svg xmlns="http://www.w3.org/2000/svg" preserveAspectRatio="none" viewBox="0 0 390.479 623.927">
  <g id="Group_3" data-name="Group 3" transform="translate(0)">
    <path id="Path_15" data-name="Path 15" d="M3256.382,2115.055v-98.2s-6.983,1.309-11.348,3.928-12.221,3.928-12.221,3.928-2.182-7.42,0-7.856,9.6-3.492,9.6-3.492h10.475s-1.746-7.42,0-8.729,3.491-14.839,3.491-14.839v-11.348l-13.967,4.8-9.6,4.365-4.365-4.365,7.42-4.8h6.547l5.674-2.182,8.292-5.238v-10.475l-3.491-3.492s4.8-3.055-7.856,0-16.585,3.492-16.585,3.492h-9.166l3.928-3.492s.437-.873,5.238-1.746,11.784-2.182,11.784-2.182,13.32,2,12.657,0-.112-9.232,0-10.265a4.192,4.192,0,0,0,0-2.583c-.4-1.808-.921-2.841-1.7-3.1a24.685,24.685,0,0,0-6.16-1.291h-9.166s-5.631,1.549-7.42,1.291a11.015,11.015,0,0,0-4.113,0c-1.808.258-1.808-.258-3.357,0s-1.55-1.291-4.649,0a22.155,22.155,0,0,1-7.231,1.291l-2.066-2.583s5.681-2.324,6.456-2.324h9.722s10.422-2.066,11.455-2.066a29.987,29.987,0,0,0,5.567,0c4.763-.258,13.8,0,13.8,0a7.785,7.785,0,0,0-1.145-3.1c-.921-1.291,0-9.039,0-9.039v-2.324h-7.856c-3.137,0-4.945-1.033-6.752,0s-8.264,1.033-8.264,1.033l-5.682-2.583,5.682-1.808h10.216s-.843-1.033,4.8-1.291a56.615,56.615,0,0,1,7.856,0s.146-3.616,0-4.649,3.986-2.841-1.7-2.841-5.937-.517-8.779,0-2.761,1.291-6.547,1.55-1.461-.775-5.851,0-6.806,1.291-6.806,1.291-6.4,1.55-3.928-1.291.921-3.1,5.053-3.1,1.55-.258,5.682,0,3.357.517,6.973,0,.519,1.291,5.425,0,3.86-1.291,5.674-1.291h4.8a4.985,4.985,0,0,0,0-3.874,31.928,31.928,0,0,1-1.7-4.39,12.635,12.635,0,0,0-4.649-2.583c-2.324-.517-9.3-2.583-9.555-2.583h-9.814l-6.2,1.291s-2.583,4.907-3.1,5.682-3.1.517-3.1-1.808a7.71,7.71,0,0,1,1.55-5.165,9.2,9.2,0,0,1,4.649-3.1c2.324-.775.258,1.033,6.2,0s3.357,1.291,7.49,0a29.556,29.556,0,0,1,10.368-1.291c1.254.258,6.16,1.291,6.16,1.291l1.7-4.907-1.7-2.066v-5.165s-3.282.517-6.16,1.291a49.325,49.325,0,0,1-6.752,1.549c-2.066.258-8.3,1.033-9.833,1.033h-10.57s-1.033-2.583,0-2.583,2.324-1.033,8.006-1.291,7.828.516,9.983,0,3.191,1.808,6.547,0a93.626,93.626,0,0,1,8.779-3.874s2.617-5.423,1.7-5.423-7.633.775-10.475,0-3.1-2.583-7.749-1.291-5.94,2.583-7.49,1.291-2.841-4.907-2.841-4.907h2.841l4.132,1.55h8.924l10.961,2.066v-13.429s-6.2-1.033-8.779,0-4.569.258-6.547,1.55-1.2,1.033-4.56,1.808-4.39-1.55-6.973,0-4.166,3.357-5.053,2.066a13.348,13.348,0,0,1-1.4-3.874s-.258-1.55,0-1.55a5.154,5.154,0,0,0,3.1,0c2.066-.516,1.808.258,3.357,0s3.061,1.033,4.113,0-1.531-.516,2.86-1.55,7.26-2.841,8.924-2.583a27.8,27.8,0,0,0,4.8,0l4.353,1.549,3.5,1.033v-2.583s-.933-2.583-4.8-2.583-3.322-.258-7.856,0-8.408-.517-8.924,0-.813,1.291-2.86,0-5.238-3.1-5.238-3.1-4.224-1.55,0-1.55a72.983,72.983,0,0,1,11.455,1.55h16.528v-9.039s-6.457.516-7.49,0-4.907,1.033-6.715,0-4.132-.775-5.682-1.291a29.234,29.234,0,0,1-4.132-1.55c-.258-.258-2.841,0-2.841,0l-3.357-2.324s-.441-1.808,2.233-1.291,5.773.516,6.806,1.291,5.423,2.583,8.264,2.324,4.132-.516,5.423,0,5.165,2.066,5.682,1.55,1.808,0,1.808,0-.4-5.084,0-5.848-.244-1.834,0-2.751-3.882-1.987-3.882-1.987a12.743,12.743,0,0,0-4.9-1.223h-4.134a31.906,31.906,0,0,0-5.64,0c-3.515.306-4.126-.306-6.113,0s-.829.153-3.318,0a19.029,19.029,0,0,1-6.156-1.681c-.458-.306.789-2.751,2.228-2.751s2.051-.764,3.12,0a6.555,6.555,0,0,0,3.482,1.223,47.035,47.035,0,0,1,5.423.917,14.844,14.844,0,0,0,4.56.611h4.365c2.8,0,5.394.153,6.313,0a16.6,16.6,0,0,1,2.841,0s1.135.917,1.135-.611v-2.139s2.75-.917,0-1.375-4.769-1.07-6.816-1.07-.618.458-3.472,0-2.473-.306-5.567-.764a35.557,35.557,0,0,1-5.539-.917c-1.375-.458-4.649-1.528-5.916-2.139a37.281,37.281,0,0,1-3.928-2.6s5.194,0,6.6.764,3.089,1.987,3.242,1.834-.527-1.375,2.182,0,3.917,1.987,5.682,2.139,2.375,1.223,4.362.917a32.115,32.115,0,0,1,6.737,0c.445.153,2.737.611,2.432,0s.735-2.292.673-3.056.521-1.222,0-1.834-.192-.764-1.808-.764-1.282.611-4.353,0-3.223-.917-5.974-1.375-2.75-.306-6.418-.917-1.815.764-4.193-.764a32.944,32.944,0,0,1-5.238-4.737,3.4,3.4,0,0,1,3.965,0c2.409,1.375.27.611,5.465,2.751a75.234,75.234,0,0,0,7.591,2.751c1.272.458.17.611,3.472.917a44.072,44.072,0,0,0,6.816,0v-5.5c0-.764-.13-2.6-1.135-3.362s.982-1.07-2.074-1.223a13.245,13.245,0,0,1-4.9-.917,22.148,22.148,0,0,0-4.134-1.07c-3.195-.611-3.5.153-4.876-1.07a18.723,18.723,0,0,1-2.1-2.139,32.313,32.313,0,0,0,3.357.917c2.56.611,1.309,1.528,3.615,1.223s-1.667-.153,3.071,0,6.737,0,6.737,0l3.105,1.07s.7-.611-.673-3.973-5.075-4.126-6.816-3.973-2.076-.611-5.423,0-3.195,1.223-5.64.611-1.834.306-3.515-.611-4.791-2.9-4.791-2.9,3.874-1.681,4.791-1.07,1.375,2.6,3.515,2.6,6.472-.458,7.591,0,3.44,2.292,4.8,1.375,1.693-2.6,3.055-1.375a13.326,13.326,0,0,0,3.105,1.987s-.521-2.6-.673-3.515-.13-.917-1.135-2.139-2.871-.917-5.682-1.375-2.993-.917-5.423-1.528a46.438,46.438,0,0,0-4.876-.917s-1.223-1.07,0-1.222,3.486,0,4.876,0,.473,1.07,3.071,1.222a22.728,22.728,0,0,1,5.193.917c1.989.458,2.012-1.375,2.841,0a2.936,2.936,0,0,0,1.808,1.528s-.4-3.362,0-3.667-1.411-1.528-3.105-1.681-.137.917-3.055,0-3.781-.917-4.8-1.528-1.951-1.223-1.951-1.223v-.764l5.423.764h3.607l3.209,1.223v-6.113a14.545,14.545,0,0,0-3.209-2.292c-1.222-.458-4.737-1.07-5.96-1.528s-4.362-1.528-4.362-1.528-1.868-1.681-1.122-1.834,1.052-2.292,3.192,0,7.486,3.362,7.486,3.362h3.975v-3.362s-4.709-3.056-5.487-2.9-6.127-4.279-5.974-4.89,3.973,1.07,3.973,1.07l5.056,3.209,1.3.611v-8.4l1.808-7.182v9.169s2.231,3.209,1.7,3.973,1.145,2.445,1.145,2.445l3.821,1.375s-.153.306,1.375.764,2.6.153,2.751.764-1.222,2.292-1.987,1.834-4.738-1.528-5.2-1.834-3.605-1.528-3.605-1.528,3.146,3.82,2.841,4.89.152,2.751,0,4.432.458,2.6,0,3.515-.765,2.445,0,1.987,0,.458,2.446,0,2.292.611,3.515,0a8.233,8.233,0,0,1,3.209-1.223,22.364,22.364,0,0,1,3.362,0,11.1,11.1,0,0,1-2.139,2.751c-.917.611.764.306-1.222.917s-2.292.306-3.973.764-1.986,1.834-2.75,1.222a1.5,1.5,0,0,0-1.681,0l-.765.917a5.256,5.256,0,0,1,.765,2.292v1.681s-1.069,2.139,1.681,1.07,3.82-1.681,5.5-2.139,1.987-1.07,3.515-1.375a5.175,5.175,0,0,1,2.445,0,1.421,1.421,0,0,1-.764,1.375c-.917.611-1.07.458-2.751,1.07s-.306.306-2.445,1.07-1.987,1.834-2.751,1.528-2.445-.764-2.75,0-1.681,1.375-1.681,1.375a4.875,4.875,0,0,1,0,1.528,3.04,3.04,0,0,0,0,1.223s-2.292.611.917,0,3.973-.458,5.654-1.223.612-.458,4.126-.917a66.264,66.264,0,0,1,6.724-.611c.764,0,1.681,1.528,0,1.528s1.834-2.139-3.362,0-10.391,4.126-10.391,4.126l-4.432-.917s-.306,2.751,0,3.209-.306,1.223,0,1.987-.612.458,0,1.223.306-.458,2.446,0,1.528,0,4.89,0,4.585.764,5.807,0a6.4,6.4,0,0,1,2.9-1.223c1.834-.458,3.821,2.139,3.821,2.139a1.688,1.688,0,0,1-1.681,1.528H3265.5c-.764,0-.153-.764-2.292,0s-1.07-.458-3.973.917-4.584,1.07-4.432,1.834a27.683,27.683,0,0,1,0,5.043c-.153.306-.458,2.292.917,1.834s3.515.153,5.654-1.07,5.349-1.681,7.488-2.139-.306-.153,3.362-.917,8.4-2.751,9.169-2.751,5.2-.764,3.82,0-.306.611-2.139,1.987-2.292,3.056-3.667,3.056.611-.611-1.987,0-3.973.917-5.2.764a24.65,24.65,0,0,0-3.362,0c-1.07,0-2.75-.917-3.362,0a4.377,4.377,0,0,1-3.515,1.834c-1.834.153-2.292-1.07-3.515,0a18.033,18.033,0,0,1-3.668,2.139l-.765,2.751s.612,3.82.765,5.807,2.6.306,3.056,0,2.292,0,3.515-1.681,1.681-3.668,3.056-4.126,1.375.153,2.139-1.07,4.431-4.279,3.515-2.9.306,3.973-1.222,5.349-3.515,1.681-4.432,2.751.459.153-1.222,1.681-1.528,1.375-2.6,2.445a8.23,8.23,0,0,1-2.139,1.834c-.458.153-2.445.458-2.751.917a31.271,31.271,0,0,0-.917,4.279,2.955,2.955,0,0,0,1.681.784c1.07.133,3.362-.478,4.89-.784s1.987-.942,5.807-1.541,3.667-1.067,5.807-1.291,3.209-.683,4.432-.683h1.987s-.306,1.961-1.987,1.974a7.111,7.111,0,0,0-3.515.777c-1.528.611-1.681,1.109-3.821,1.548s-3.362,1.59-4.584,1.55-5.043,1.248-5.5,1.291-3.362-.5-3.515,0-1.681,0-1.681,0v5.239l1.681,4.584v2.315s6.877-.94,7.946-1.7-.152-1.916,2.139-2.945,3.821-2.113,6.418-3.1,3.21-.833,4.432-2.055a31.614,31.614,0,0,1,4.889-4.279c1.375-.764,3.973-2.775,5.348-3.221s5.349-4.725,5.349-4.725l2.292-.764-2.292,5.489-5.349,3.874s-5.347,3.473-6.265,3.626-4.127,3.056-5.808,3.82-9.015,4.279-9.015,4.279-2.291,3.989-3.362,4.286-6.724,2.583-6.724,2.583a25.663,25.663,0,0,1,1.375,4.907c0,1.213-1.527,7.311-1.375,8.006s1.375,4.057,1.375,4.057,2.9-2.445,5.349-2.751a21.938,21.938,0,0,0,5.654-1.307c2.444-.833,3.057-1.9,5.043-2.667a13.683,13.683,0,0,0,4.431-2.292c2.139-1.528,4.737-2.121,6.265-3.047s3.056-1.808,3.056-1.808,1.834.136.611,1.808-1.986,1.519-3.667,3.047-3.361,1.47-5.2,3.409-5.195,2.4-5.5,2.856a14.354,14.354,0,0,1-5.043,2.051c-1.223.089-7.793,2.992-8.252,3.451s-2.139,1.973-2.139,1.973.764,3.3.764,3.874-1.68,6.556-1.375,7.231a6.269,6.269,0,0,1,.611,2.356c0,.764-.611,5.65-.611,5.65s-.672.377,3.515,0a81.09,81.09,0,0,0,8.71-1.172c2.032-.4,1.635-.795,3.821-.795s10.7-1.133,10.7-1.133.031-.338,1.819-1.291a13.468,13.468,0,0,1,3.775-1.259s.795-.172,0,1.259.717,2.027-1.926,2.424-3.178-.795-5.2.795-3.927.953-5.654,2.463a9.133,9.133,0,0,1-5.2,2.5c-2.69.6-4.049,1.549-5.654,1.37s-3.79.178-4.584,0a6.748,6.748,0,0,0-1.987,0,8.987,8.987,0,0,1-.764,3.2,5.826,5.826,0,0,0-.764,3.774c.137,1.589-1.329,4.29,0,4.132s-.2-1.748,4.737-1.549,2.659,0,6.876,0,5.332.794,8.251,0,0-1.391,4.738-1.291,6.326,1.291,6.326,1.291a1.788,1.788,0,0,1,0,1.549c-.4.835-1.453,1.47-4.8,1.55s-2.673-.08-5.2,0-2.141-.278-3.821,0-2.765-.676-5.5,0a45.618,45.618,0,0,1-6.876,1.291,25.171,25.171,0,0,1-3.973,0,6.765,6.765,0,0,0-.764,1.768,9.98,9.98,0,0,0,0,2.88s6.953.894,8.71,0,1.375-1.092,5.043-1.291,2.552.4,7.182,0,2.9,1.291,2.9,1.291.259.894-3.973,1.291-2.49,0-5.348.795-1.222.834-4.126,1.013-3.178-.378-4.432,0-4.034,1.927-4.432,1.549-.932.258-.764,1.033-.03-4.589.764,2.762.825,5.4.611,7.569.214,2.244,0,3.1-2.674.933,3.82,0,2.522-1.529,9.475-1.728,10.848-1.153,14.364-1.371a22.632,22.632,0,0,0,6.1-1.212,31.626,31.626,0,0,0-6.1,2.583c-3.239,1.788.6.079-5.2,1.728s-7.167.894-10.85,2.066-3.025.577-5.043,1.172-3.973,1.152-3.973,1.152a1.189,1.189,0,0,0-1.223,1.291c0,1.331-2.185,4.271-1.987,5.682a14.153,14.153,0,0,0,.611,3.795c.581,1.589-.642,1.192.764,2.384s2.858,1.192,5.807,1.391-4.4-2.98,6.724,0,6.539,5.187,1.68,4.878.016.309-5.5,0-5.256-.684-6.876,0a8.153,8.153,0,0,0-2.6,1.746s-.779.726,0,2.514a12.772,12.772,0,0,1,1.375,4.967c0,1.589-1.39-4.569,0,2.384s5.471,8.145,8.1,8.145,6.281-1.788,9.322-1.788,4.034.6,7.014,0,2.643.6,6.586,0a19.1,19.1,0,0,1,6.526,0s.993,1.589-.993,1.788-4.768,1.2-6.953,1.194-.994,0-5.165,0-4.294-.4-7.014,0-2.124,0-5.5.991-2.934.595-5.043,1.191a9.718,9.718,0,0,1-4.432,0h-2.445a17.618,17.618,0,0,1,0,4.8,18.118,18.118,0,0,0,0,6.547c.4,2.162,1.391,2.36,0,7.128s-1.36,3.5-1.375,7.711,2.033,1.727,2.6,8.729-.168,16.14,0,17.729-.366,23.243,0,26.223,1.681,17.283,1.222,20.263.459,13.906,0,15.893,0,14.9,0,14.9v6.686Z" transform="translate(-3099.583 -1696.129)" fill="#6d9f79"/>
    <path id="Tree_Group_3" data-name="Tree Group 3" d="M2713.536,1961l-3.713-281.516,14.742-6.945-1.972-7.887c-.281-1.127-3.662-19.717-3.662-19.717l1.972-7.887-7.323-12.112s11.267,3.662,12.393,3.662,19.717,1.69,19.717,1.69l9.577-3.38s-1.408-4.788-3.662-3.943-10.422,1.972-10.422,1.972l-6.478-5.352v-3.662l-17.745-3.1,1.972-5.07-1.972-4.507-1.127-10.14,16.618-4.225,2.253-4.788H2747.1l13.8,6.478,16.9-6.478,2.535-3.38-18.027-2.535-8.732,2.535-6.478-4.225-9.577-1.69-5.07-3.1s-.563-2.535,0-3.38-16.618-17.182-16.618-17.182l14.928,1.972s2.817-9.013,3.943-9.3,9.576,2.817,10.985,3.1,7.887-4.507,7.887-4.507l8.732,1.408,19.717,3.1,14.646-8.168,1.972-3.662h-23.1l-13.238,3.662-12.393-6.76,1.69-11.267-14.083,1.69-2.817-6.76-3.943-1.69-4.788-9.3,11.548,3.1,3.662-4.788,15.492,7.042,18.872,2.535,14.083-6.478,5.352-7.887-14.647,6.478-8.732-8.732-6.76,3.38-8.168-1.127h-5.07l-1.69-6.2-8.732,1.972-4.788-10.422-3.943-5.352,13.238,1.972,5.915-4.788,10.7,2.817,7.323-7.323,10.7,2.817,14.647,1.69,1.69-4.507,13.239-1.69s-2.535-5.633-3.38-5.633-9.858,2.253-9.858,2.253l-7.042-6.2-5.633,6.2H2772.73l-10.422-6.2-5.633-2.535,6.76-6.76h15.492l1.408-10.7,3.662,1.408,7.042-3.662L2766.252,1432l14.083-1.972,10.7,1.972,1.69-10.14-5.634,2.253-10.422-3.662h-7.042l12.394-7.323-1.69-7.323-3.662-10.14,5.352,1.127v-13.238s4.506,3.943,5.07,5.352,11.548,3.662,11.548,3.662,2.817,5.352,2.817,7.323,14.928,16.9,14.928,16.9v-16.9h4.507l-4.507-7.323-6.478,4.225s-9.859-7.887-10.14-7.887,6.76-3.38,6.76-3.38l-15.492-10.422,7.6-3.1-1.972-6.2,8.732,6.2,6.479-6.2,6.478,10.985v-9.858l-8.45-10.985V1348.9l6.478,7.042,4.507-4.507v-7.323l3.38-1.127,2.253-5.915a18.679,18.679,0,0,1,2.817,4.788c.563,1.972-1.408,8.168-1.408,9.577a42.053,42.053,0,0,0,1.408,6.2l5.915-4.788h5.915l-5.915,6.2-3.1,4.788,1.408,6.76-1.408,8.168,1.408,3.662,3.662-11.83h3.943l1.127-3.662,7.323,3.662h5.07l-10.422,4.507-5.633,5.352-1.408,6.76,10.985-1.69,6.478-3.1,3.1,6.478-4.788-3.38s-1.971,3.662-3.38,3.38-10.985,1.408-10.985,1.408l-6.478,5.352,3.1,4.225,12.957-4.225v4.225l-10.985,3.38,3.943,4.788,11.83,1.127,11.548-5.915h5.633v4.788l3.662,5.07h-25.632l9.577,3.662,12.393,3.662,1.408,5.07-7.042-1.408-9.858-5.352-7.887,1.69-8.168-7.323-5.07-1.972s1.408,11.267,1.69,12.957,0,10.422,0,11.83,22.533-2.253,22.533-2.253l9.858-3.662-3.1,5.915s-4.507-1.408-6.76,0-13.52,3.662-13.52,3.662l-10.7,1.408v5.352l13.238,1.972s14.646-5.07,15.492-5.633,5.352,0,5.352,0l-6.759,3.662-7.888,1.972-8.732,3.381-7.042-1.409v6.76s7.322,1.971,9.577,2.535,12.395-.846,14.085,0,12.955,0,12.955,0l4.508,3.943h-17.463s0,1.971,1.407,2.253,11.548,1.409,11.548,1.409l4.508,6.478s-12.959-4.789-13.8-4.507-13.8-2.534-14.928-1.971-8.45,1.971-8.45,1.971v6.2l1.127,2.817s10.42,1.689,10.7,1.972,11.548,0,11.548,0l10.986,1.972v3.943l8.45,2.817s-5.352,3.66-5.633,3.1-12.675-3.1-12.675-3.1,4.786,1.97,4.505,3.1,8.17,4.788,8.17,6.2-14.93-4.225-14.93-4.225-3.381-5.633-5.633-5.069-13.52,1.408-13.52,1.408l1.128,9.013,19.152,5.352,14.93,3.1-3.943-59.432-3.945-5.633,9.578,1.127s4.507-3.945,4.507-4.226-1.69-9.577-1.69-9.577l6.479-2.816-9.3-3.1s8.45-4.507,9.3-5.352,1.127-21.97,1.127-21.97l4.507,16.337,5.07,7.323-5.07,1.408-1.127,8.168-3.38,3.662s5.915,6.478,6.76,5.915,8.45,3.1,8.45,3.1l-8.45,1.127h-4.788l1.408,4.506,11.83,1.972,6.2-1.972s.563,5.352,0,5.634-6.76-.282-8.731,0-9.577-1.127-10.7,0,.282,3.942,0,5.633,9.577,3.943,9.577,3.943,6.76-.282,9.858,0a24.053,24.053,0,0,0,5.07,0l4.225,3.662-8.168,1.971-10.985-1.971-9.577-1.409,2.535,7.887s2.253,6.478,5.07,6.478,12.957-1.972,12.957-1.972h8.168v3.944s-14.928.562-15.492,1.408-8.45,2.536-8.45,2.536l2.817,4.225,12.957,1.689h9.858l-19.717,1.972-1.127,7.606,9.858,1.408h16.9s4.788,7.323,5.915,7.042,3.38,5.633,3.38,5.633v3.662l-5.633-5.352-6.76-3.943s2.817,6.2,3.1,7.887,3.662,6.76,3.662,6.76l-6.76-2.254-10.14-12.393-9.858-2.253,3.662,11.549s9.858,3.38,13.52,5.352,16.9,1.972,15.21,2.817-20,1.69-20,1.69l-10.422,2.816,16.618,6.76s9.858,4.224,10.422,5.07,10.14-1.408,10.14-1.408l5.634-10.422L2939.2,1533.4l11.267-5.915-3.1-6.761h-6.76s5.633-3.662,5.352-5.07,1.69-10.422,1.408-10.985-8.168,0-8.168,0l-6.76-5.352h-8.45l8.45-5.352h13.52s4.789,1.971,4.507-1.972-.563-10.7,1.127-11.83,16.055-1.972,16.055-1.972l-1.127-12.393-11.267,1.409s-12.675.845-13.239,0-6.2-3.662-6.2-3.662l-10.422-2.534-6.2-1.409,4.788-9.295,15.21,1.409,2.817-14.366,8.45,5.352,1.127-3.1-15.773-5.915-7.887-3.662s11.267.844,12.675,0,14.647,0,14.647,0v-8.168l-9.3,2.253-6.76-5.352h-6.76l11.83-5.633-3.662-7.323-4.788-5.915,4.788-1.689,3.662-10.986,7.323,5.352h6.478l7.042,5.634,9.858,5.069s0,5.069,1.127,5.915,1.972-9.3,1.972-9.3l1.408-5.633-12.957-1.691-11.267-5.352,9.858-3.662-9.858-3.1-4.788-5.352,7.6-3.1-2.817-6.2s5.634.846,7.887,2.536,8.168,0,8.168,0a37.02,37.02,0,0,0,4.788,3.661,70.084,70.084,0,0,0,7.887,3.1s-3.662-12.674-4.507-12.956-11.83-15.21-11.83-15.21l13.52,5.914,2.817-13.519s3.38,1.407,3.38,4.788,2.253,11.83,2.253,11.83l7.6-14.083v7.042l7.6,1.127-3.38,10.422,9.858-5.915s-.845,5.633,0,7.605,7.887,12.956,7.887,12.956h10.422s-6.76,8.449-7.6,8.45,1.972,9.013,1.972,9.013l-8.732,3.1-10.422,1.127s5.07,2.253,7.605,3.1,11.548,0,11.548,0l-1.972,3.38h9.577l-1.972,5.915,11.267-4.788,2.817,6.759,2.535,10.7-9.577-6.478v8.731l4.225,7.887-11.267-7.887,11.267,13.238-9.295-1.408-7.6,3.662-12.675,3.1v5.633s16.618-1.127,16.618-1.972,6.478-5.352,6.478-5.352l5.07,5.352,11.548-6.76,3.662,4.226,7.042-1.127,2.535,3.662,9.013-2.534-7.6,4.506h17.182l-8.168,5.634H3047.92l6.76,9.576s10.14,5.351,9.577,5.633-20.562-5.633-20.562-5.633-5.351,6.2-7.042,5.633-18.308-.846-19.435,0-12.394-1.971-12.394-1.971,3.662,5.07,4.507,5.07,22.252.844,22.252,1.408,12.112-1.408,12.112-1.408a5.747,5.747,0,0,0,2.535,3.1c1.972,1.127,8.45-1.69,8.45-1.69l1.972,4.507,9.013,3.944s1.972,4.225,1.69,5.07-10.7,6.759-10.7,6.759l-12.957,5.352s-14.083,3.379-14.083,3.662-3.1,4.788-3.1,4.788,14.928-4.226,16.055-4.788,12.112-3.662,12.112-3.662-4.225,5.633-2.535,5.352,13.52-3.1,13.52-3.1l-3.943,6.2s15.492-.282,15.492,0-3.943,2.253-3.943,2.253l5.633,3.943h9.577l-11.267,8.45v5.071h-7.323s-2.535.563-8.168,0-9.577-1.127-9.577-1.127l12.112,9.3-13.238-6.478h-10.14l-4.225,8.168,11.267,5.069,12.675,2.536,12.675,2.817,7.6,8.168-17.745-.563-12.112,3.38,13.238,11.548,16.618,3.38-29.857,15.209-3.1,14.365s9.145,4.75,12.675,4.507,18.308,0,18.308,0l7.594,8.168,8.568,9.013-21.8,1.972,15.21,10.14h-22.815l-17.745-6.76-18.308,9.116,21.407,2.38,9.577,6.188-12.675,4.76h29.293l11.267,1.9,11.822,12.376-25.624,8.092-26.758-8.092L3034.4,1683.2l17.745,10.472S3076.069,1697,3078.9,1697s12.354,3.808,12.354,3.808l-43.338,7.14,40.56,14.281-51.827,4.76,42.25,15.232L3077.214,1961Z" transform="translate(-2709.823 -1337.073)" fill="#669d73"/>
  </g>
</svg>
