<svg xmlns="http://www.w3.org/2000/svg" preserveAspectRatio="none" viewBox="0 0 442.323 621.924">
  <g id="Group_4" data-name="Group 4" transform="translate(-1054.074 -215.076)">
    <path id="Tree_group_4" data-name="Tree group 4" d="M3066.973,1961V1749.366l11.588-4.76-11.588-3.808-25.695-13.328,25.695-9.52,24.688-5.236s-3.527-10.472-5.542-11.424-28.718-10.472-28.718-10.472l17.634-7.616,16.626-7.616-13.1-1.828s-17.934-1.3-18.622-1.3-6.421-6.717-6.421-6.717,15.135-1.3,15.135,0,9.908,2.167,9.908,2.167l10.272-3.683,1.147-11.7-20.181,1.517-14.906-1.517,23.667-5.2s6.447,1.95,7.557,0,3.862-9.1,3.862-9.1l7.338-1.95-7.338-4.333h-8.944s6.65-4.117,7.8-4.117,8.485-2.6,8.485-2.6l-12.842-7.15s4.586-6.717,4.357-7.583,0-8.667,0-8.667l8.485,4.333s-1.146-10.617-1.834-12.133-6.192-4.767-6.651-4.767-13.8,1.95-13.8,1.95h-10.28l2.218-2.817H3077.6s9.4-3.033,11.237-3.033,8.485-1.3,8.485-1.3l-7.338-4.767-6.88-3.683h12.384l-5.5-11.7-3.862-10.833,5.542,2.817,5.658,1.733v-8.883l-3.21-7.8h6.421l-8.869-11.483-5.542-1.3,5.542-1.3,8.869,5.85h8.027l-3.44-6.717v-5.2l-6.421-4.55,9.861,4.55,3.21-1.733-4.128-7.8-5.733-6.067,5.733,1.733,2.752-5.2-5.274-5.633,7.8-2.383,6.421-3.9-6.421-4.55,1.376-4.767,6.192,2.167-1.146-4.767v-7.15L3123,1467.7l4.816,4.333,6.651,1.95v6.5l2.981,4.767,6.88,2.383-3.44,6.067,1.605,3.25,4.816,4.767-6.421,5.2,7.568,1.733h5.045l-3.21,5.417-5.962,4.983,4.128,1.733,6.88-4.55,4.816,10.617v7.8l4.128-1.95s-.459,6.5-1.605,8.233-3.44,9.967-3.44,9.967l5.045,2.167s-1.147,5.634-1.605,6.283-1.605,7.583-1.605,7.583l5.5-5.417,2.064,4.333v9.75l-2.064,8.45,5.733-3.467,4.816-1.3-3,4.767-1.813,4.333,6.583.867-8.347,7.8,3.578,4.766,4.77,2.275-4.77,6.391,4.77,2.34,3.876-6.674,4.174,6.674V1604.1c0-1.408-2.981-10.075-2.981-10.075l8.646-2.817-2.981-5.85-4.174-9.75,5.664,1.452-1.49-11.2-1.491-4.333,9.54,12.719s-1.491-6.631-2.087-8.385-1.192-17.117-1.192-17.117l4.77,7.15,4.472-2.817-5.962-9.815,4.472-2.319s-2.385-11.549-2.981-12.783-1.491-7.367-1.491-7.367a18.126,18.126,0,0,0,4.472,0c1.49-.346,2.683-12.133,2.683-12.133s6.26,6.76,6.857,7.583,0-12.7,0-12.7l3.876-7.454,3.875-6.283-3.875-5.979,6.558-4.788,1.193-7,4.472-1.3,2.385-8.883h4.174l4.77-4.225,2.087,2.253v15.773s6.857-.845,7.155,0-2.683,4.831-2.683,4.831l-2.385,7.15h5.068v6.067l5.664,2.383,2.683,2.1-5.068,3.531-1.789,9.533,4.174,1.582-2.385,6.218,2.385,4.2,8.944-7.02v7.02l1.49,9.446,3.28,5.764-3.28,6.2-1.49,6.24,9.242-4.831v4.831l-1.789,4.983-2.683,5.633-1.789,5.417,4.472,5.331-1.192,7.02,2.981,4.767,5.962-3.467,4.174,1.539s.894-5.439,0-6.522-5.664-5.59-5.962-7,4.472-7.085,4.472-7.085l4.77,2.383-5.963-8.017,8.646-2.817-4.472-7-2.981-7.605-2.683-12.48,4.174-2.73v-7.02c0-2.275,1.49-9.317,1.49-9.317l5.963,4.333,1.49,6.652v-10.985l-1.49-7.323,6.26-1.408,3.876-8.385,1.789-2.167-1.789-7.15,1.789-4.831,3.876-3.619,3.279-5.676,5.962-6.478,5.366,1.972,1.789,10.183,5.366,8.45-4.174,4.767,4.174,6.457,3.875,6.478v8.731l5.665,1.733a52.283,52.283,0,0,0,0-6.933c-.3-1.56-3.875-7.151-3.875-8.017s5.664,0,5.664,0a43.59,43.59,0,0,1-1.789-6.067c-.6-2.968-.894-11.7-1.193-11.981s5.664-7.952,5.664-7.952,2.981,4.333,2.683,6.283,5.366,6.5,5.366,6.5l6.559,3.337,7.453,1.43-7.453-7.367-6.559-5.85v-5.676l2.981-6.478,4.77,1.972v-6.76l6.26,6.76,4.174-6.76-6.559-7.605,6.559-4.788v-6.957l-6.559-11.351-3.875-6.957H3367.6l-1.817-8.788,7.364-10.985,3.875,10.985,6.589-2.929-3.488-12.816,3.488-5.859,9.689-5.859V1371.3l-2.325-7.69,7.364-3.3,5.426-7.689,2.325-6.957h6.2l5.038-6.591h8.526v13.548l5.038,7.689h5.038l-5.038,7.69v7.69l7.751,2.563v4.76h8.139v4.028l-4.65,5.859-3.488,12.816h8.139s2.713,7.689,0,8.788-5.425,1.831-4.65,2.929,8.526,1.831,8.526,1.831l9.689-8.422a35.831,35.831,0,0,1,0,6.591c-.388,1.831,0,12.816,0,12.816l1.938,3.3v9.154s-.388,8.788,0,8.788,10.077-5.859,10.077-5.859h4.263a46.518,46.518,0,0,0-4.263,5.859c-1.163,2.2-1.938,8.646-1.938,10.365v10.183c0,2.521-8.139,5.85-8.139,5.85s4.263,1.938,6.2,2.6,8.138,0,8.138,0l-6.2,4.767-6.589,6.457v6.478l-3.488,5.352v7.713s9.3-1.459,10.077-2.6,6.2-2.326,6.2-1.733,3.1,4.333,3.1,4.333l-7.363,2.817s5.426,5.71,4.263,6.717-1.938,8.667-1.938,8.667-12.014,7.013-10.852,9.014,0,14.6,0,14.6l6.589-7s4.263,7.292,4.263,9.815,1.938,11.05,1.938,11.05l-8.138,5.331v8.32c0,1.624,3.875,4.767,3.875,4.767l11.239,3.033-6.976,2.817-4.263,8.949,2.325,10.334-6.2,10.172,12.791,4.561-8.915,2.6-1.938,8.45,6.2,11.05,3.1,9.223-5.038,5.126,8.914,6.234-8.914,5.85-2.325,11.351,4.263,5.71s-5.427,4.177-6.2,4.177-8.916,4.535-6.589,6.3a17.889,17.889,0,0,1,4.651,5.788c.776,1.465,2.711,7.69,1.938,8.788s-3.874,5.493-5.037,5.493,0,12.816,0,12.816,8.911-.366,6.975,0-8.526,6.625-8.526,6.625l-3.488,3.808,8.139,9.706s6.974,7.323,6.2,9.154-6.2,4.394-6.2,4.394l3.875,6.957-3.875,8.422-3.1,177.761Z" transform="translate(-1987.204 -1124)" fill="#3c7743"/>
    <path id="Path_8" data-name="Path 8" d="M3256.382,2115.055v-98.2s-6.983,1.309-11.348,3.928-12.221,3.928-12.221,3.928-2.182-7.42,0-7.856,9.6-3.492,9.6-3.492h10.475s-1.746-7.42,0-8.729,3.491-14.839,3.491-14.839v-11.348l-13.967,4.8-9.6,4.365-4.365-4.365,7.42-4.8h6.547l5.674-2.182,8.292-5.238v-10.475l-3.491-3.492s4.8-3.055-7.856,0-16.585,3.492-16.585,3.492h-9.166l3.928-3.492s.437-.873,5.238-1.746,11.784-2.182,11.784-2.182,13.32,2,12.657,0-.112-9.232,0-10.265a4.192,4.192,0,0,0,0-2.583c-.4-1.808-.921-2.841-1.7-3.1a24.685,24.685,0,0,0-6.16-1.291h-9.166s-5.631,1.549-7.42,1.291a11.015,11.015,0,0,0-4.113,0c-1.808.258-1.808-.258-3.357,0s-1.55-1.291-4.649,0a22.155,22.155,0,0,1-7.231,1.291l-2.066-2.583s5.681-2.324,6.456-2.324h9.722s10.422-2.066,11.455-2.066a29.987,29.987,0,0,0,5.567,0c4.763-.258,13.8,0,13.8,0a7.785,7.785,0,0,0-1.145-3.1c-.921-1.291,0-9.039,0-9.039v-2.324h-7.856c-3.137,0-4.945-1.033-6.752,0s-8.264,1.033-8.264,1.033l-5.682-2.583,5.682-1.808h10.216s-.843-1.033,4.8-1.291a56.615,56.615,0,0,1,7.856,0s.146-3.616,0-4.649,3.986-2.841-1.7-2.841-5.937-.517-8.779,0-2.761,1.291-6.547,1.55-1.461-.775-5.851,0-6.806,1.291-6.806,1.291-6.4,1.55-3.928-1.291.921-3.1,5.053-3.1,1.55-.258,5.682,0,3.357.517,6.973,0,.519,1.291,5.425,0,3.86-1.291,5.674-1.291h4.8a4.985,4.985,0,0,0,0-3.874,31.928,31.928,0,0,1-1.7-4.39,12.635,12.635,0,0,0-4.649-2.583c-2.324-.517-9.3-2.583-9.555-2.583h-9.814l-6.2,1.291s-2.583,4.907-3.1,5.682-3.1.517-3.1-1.808a7.71,7.71,0,0,1,1.55-5.165,9.2,9.2,0,0,1,4.649-3.1c2.324-.775.258,1.033,6.2,0s3.357,1.291,7.49,0a29.556,29.556,0,0,1,10.368-1.291c1.254.258,6.16,1.291,6.16,1.291l1.7-4.907-1.7-2.066v-5.165s-3.282.517-6.16,1.291a49.325,49.325,0,0,1-6.752,1.549c-2.066.258-8.3,1.033-9.833,1.033h-10.57s-1.033-2.583,0-2.583,2.324-1.033,8.006-1.291,7.828.516,9.983,0,3.191,1.808,6.547,0a93.626,93.626,0,0,1,8.779-3.874s2.617-5.423,1.7-5.423-7.633.775-10.475,0-3.1-2.583-7.749-1.291-5.94,2.583-7.49,1.291-2.841-4.907-2.841-4.907h2.841l4.132,1.55h8.924l10.961,2.066v-13.429s-6.2-1.033-8.779,0-4.569.258-6.547,1.55-1.2,1.033-4.56,1.808-4.39-1.55-6.973,0-4.166,3.357-5.053,2.066a13.348,13.348,0,0,1-1.4-3.874s-.258-1.55,0-1.55a5.154,5.154,0,0,0,3.1,0c2.066-.516,1.808.258,3.357,0s3.061,1.033,4.113,0-1.531-.516,2.86-1.55,7.26-2.841,8.924-2.583a27.8,27.8,0,0,0,4.8,0l4.353,1.549,3.5,1.033v-2.583s-.933-2.583-4.8-2.583-3.322-.258-7.856,0-8.408-.517-8.924,0-.813,1.291-2.86,0-5.238-3.1-5.238-3.1-4.224-1.55,0-1.55a72.983,72.983,0,0,1,11.455,1.55h16.528v-9.039s-6.457.516-7.49,0-4.907,1.033-6.715,0-4.132-.775-5.682-1.291a29.234,29.234,0,0,1-4.132-1.55c-.258-.258-2.841,0-2.841,0l-3.357-2.324s-.441-1.808,2.233-1.291,5.773.516,6.806,1.291,5.423,2.583,8.264,2.324,4.132-.516,5.423,0,5.165,2.066,5.682,1.55,1.808,0,1.808,0-.4-5.084,0-5.848-.244-1.834,0-2.751-3.882-1.987-3.882-1.987a12.743,12.743,0,0,0-4.9-1.223h-4.134a31.906,31.906,0,0,0-5.64,0c-3.515.306-4.126-.306-6.113,0s-.829.153-3.318,0a19.029,19.029,0,0,1-6.156-1.681c-.458-.306.789-2.751,2.228-2.751s2.051-.764,3.12,0a6.555,6.555,0,0,0,3.482,1.223,47.035,47.035,0,0,1,5.423.917,14.844,14.844,0,0,0,4.56.611h4.365c2.8,0,5.394.153,6.313,0a16.6,16.6,0,0,1,2.841,0s1.135.917,1.135-.611v-2.139s2.75-.917,0-1.375-4.769-1.07-6.816-1.07-.618.458-3.472,0-2.473-.306-5.567-.764a35.557,35.557,0,0,1-5.539-.917c-1.375-.458-4.649-1.528-5.916-2.139a37.281,37.281,0,0,1-3.928-2.6s5.194,0,6.6.764,3.089,1.987,3.242,1.834-.527-1.375,2.182,0,3.917,1.987,5.682,2.139,2.375,1.223,4.362.917a32.115,32.115,0,0,1,6.737,0c.445.153,2.737.611,2.432,0s.735-2.292.673-3.056.521-1.222,0-1.834-.192-.764-1.808-.764-1.282.611-4.353,0-3.223-.917-5.974-1.375-2.75-.306-6.418-.917-1.815.764-4.193-.764a32.944,32.944,0,0,1-5.238-4.737,3.4,3.4,0,0,1,3.965,0c2.409,1.375.27.611,5.465,2.751a75.234,75.234,0,0,0,7.591,2.751c1.272.458.17.611,3.472.917a44.072,44.072,0,0,0,6.816,0v-5.5c0-.764-.13-2.6-1.135-3.362s.982-1.07-2.074-1.223a13.245,13.245,0,0,1-4.9-.917,22.148,22.148,0,0,0-4.134-1.07c-3.195-.611-3.5.153-4.876-1.07a18.723,18.723,0,0,1-2.1-2.139,32.313,32.313,0,0,0,3.357.917c2.56.611,1.309,1.528,3.615,1.223s-1.667-.153,3.071,0,6.737,0,6.737,0l3.105,1.07s.7-.611-.673-3.973-5.075-4.126-6.816-3.973-2.076-.611-5.423,0-3.195,1.223-5.64.611-1.834.306-3.515-.611-4.791-2.9-4.791-2.9,3.874-1.681,4.791-1.07,1.375,2.6,3.515,2.6,6.472-.458,7.591,0,3.44,2.292,4.8,1.375,1.693-2.6,3.055-1.375a13.326,13.326,0,0,0,3.105,1.987s-.521-2.6-.673-3.515-.13-.917-1.135-2.139-2.871-.917-5.682-1.375-2.993-.917-5.423-1.528a46.438,46.438,0,0,0-4.876-.917s-1.223-1.07,0-1.222,3.486,0,4.876,0,.473,1.07,3.071,1.222a22.728,22.728,0,0,1,5.193.917c1.989.458,2.012-1.375,2.841,0a2.936,2.936,0,0,0,1.808,1.528s-.4-3.362,0-3.667-1.411-1.528-3.105-1.681-.137.917-3.055,0-3.781-.917-4.8-1.528-1.951-1.223-1.951-1.223v-.764l5.423.764h3.607l3.209,1.223v-6.113a14.545,14.545,0,0,0-3.209-2.292c-1.222-.458-4.737-1.07-5.96-1.528s-4.362-1.528-4.362-1.528-1.868-1.681-1.122-1.834,1.052-2.292,3.192,0,7.486,3.362,7.486,3.362h3.975v-3.362s-4.709-3.056-5.487-2.9-6.127-4.279-5.974-4.89,3.973,1.07,3.973,1.07l5.056,3.209,1.3.611v-8.4l1.808-7.182v9.169s2.231,3.209,1.7,3.973,1.145,2.445,1.145,2.445l3.821,1.375s-.153.306,1.375.764,2.6.153,2.751.764-1.222,2.292-1.987,1.834-4.738-1.528-5.2-1.834-3.605-1.528-3.605-1.528,3.146,3.82,2.841,4.89.152,2.751,0,4.432.458,2.6,0,3.515-.765,2.445,0,1.987,0,.458,2.446,0,2.292.611,3.515,0a8.233,8.233,0,0,1,3.209-1.223,22.364,22.364,0,0,1,3.362,0,11.1,11.1,0,0,1-2.139,2.751c-.917.611.764.306-1.222.917s-2.292.306-3.973.764-1.986,1.834-2.75,1.222a1.5,1.5,0,0,0-1.681,0l-.765.917a5.256,5.256,0,0,1,.765,2.292v1.681s-1.069,2.139,1.681,1.07,3.82-1.681,5.5-2.139,1.987-1.07,3.515-1.375a5.175,5.175,0,0,1,2.445,0,1.421,1.421,0,0,1-.764,1.375c-.917.611-1.07.458-2.751,1.07s-.306.306-2.445,1.07-1.987,1.834-2.751,1.528-2.445-.764-2.75,0-1.681,1.375-1.681,1.375a4.875,4.875,0,0,1,0,1.528,3.04,3.04,0,0,0,0,1.223s-2.292.611.917,0,3.973-.458,5.654-1.223.612-.458,4.126-.917a66.264,66.264,0,0,1,6.724-.611c.764,0,1.681,1.528,0,1.528s1.834-2.139-3.362,0-10.391,4.126-10.391,4.126l-4.432-.917s-.306,2.751,0,3.209-.306,1.223,0,1.987-.612.458,0,1.223.306-.458,2.446,0,1.528,0,4.89,0,4.585.764,5.807,0a6.4,6.4,0,0,1,2.9-1.223c1.834-.458,3.821,2.139,3.821,2.139a1.688,1.688,0,0,1-1.681,1.528H3265.5c-.764,0-.153-.764-2.292,0s-1.07-.458-3.973.917-4.584,1.07-4.432,1.834a27.683,27.683,0,0,1,0,5.043c-.153.306-.458,2.292.917,1.834s3.515.153,5.654-1.07,5.349-1.681,7.488-2.139-.306-.153,3.362-.917,8.4-2.751,9.169-2.751,5.2-.764,3.82,0-.306.611-2.139,1.987-2.292,3.056-3.667,3.056.611-.611-1.987,0-3.973.917-5.2.764a24.65,24.65,0,0,0-3.362,0c-1.07,0-2.75-.917-3.362,0a4.377,4.377,0,0,1-3.515,1.834c-1.834.153-2.292-1.07-3.515,0a18.033,18.033,0,0,1-3.668,2.139l-.765,2.751s.612,3.82.765,5.807,2.6.306,3.056,0,2.292,0,3.515-1.681,1.681-3.668,3.056-4.126,1.375.153,2.139-1.07,4.431-4.279,3.515-2.9.306,3.973-1.222,5.349-3.515,1.681-4.432,2.751.459.153-1.222,1.681-1.528,1.375-2.6,2.445a8.23,8.23,0,0,1-2.139,1.834c-.458.153-2.445.458-2.751.917a31.271,31.271,0,0,0-.917,4.279,2.955,2.955,0,0,0,1.681.784c1.07.133,3.362-.478,4.89-.784s1.987-.942,5.807-1.541,3.667-1.067,5.807-1.291,3.209-.683,4.432-.683h1.987s-.306,1.961-1.987,1.974a7.111,7.111,0,0,0-3.515.777c-1.528.611-1.681,1.109-3.821,1.548s-3.362,1.59-4.584,1.55-5.043,1.248-5.5,1.291-3.362-.5-3.515,0-1.681,0-1.681,0v5.239l1.681,4.584v2.315s6.877-.94,7.946-1.7-.152-1.916,2.139-2.945,3.821-2.113,6.418-3.1,3.21-.833,4.432-2.055a31.614,31.614,0,0,1,4.889-4.279c1.375-.764,3.973-2.775,5.348-3.221s5.349-4.725,5.349-4.725l2.292-.764-2.292,5.489-5.349,3.874s-5.347,3.473-6.265,3.626-4.127,3.056-5.808,3.82-9.015,4.279-9.015,4.279-2.291,3.989-3.362,4.286-6.724,2.583-6.724,2.583a25.663,25.663,0,0,1,1.375,4.907c0,1.213-1.527,7.311-1.375,8.006s1.375,4.057,1.375,4.057,2.9-2.445,5.349-2.751a21.938,21.938,0,0,0,5.654-1.307c2.444-.833,3.057-1.9,5.043-2.667a13.683,13.683,0,0,0,4.431-2.292c2.139-1.528,4.737-2.121,6.265-3.047s3.056-1.808,3.056-1.808,1.834.136.611,1.808-1.986,1.519-3.667,3.047-3.361,1.47-5.2,3.409-5.195,2.4-5.5,2.856a14.354,14.354,0,0,1-5.043,2.051c-1.223.089-7.793,2.992-8.252,3.451s-2.139,1.973-2.139,1.973.764,3.3.764,3.874-1.68,6.556-1.375,7.231a6.269,6.269,0,0,1,.611,2.356c0,.764-.611,5.65-.611,5.65s-.672.377,3.515,0a81.09,81.09,0,0,0,8.71-1.172c2.032-.4,1.635-.795,3.821-.795s10.7-1.133,10.7-1.133.031-.338,1.819-1.291a13.468,13.468,0,0,1,3.775-1.259s.795-.172,0,1.259.717,2.027-1.926,2.424-3.178-.795-5.2.795-3.927.953-5.654,2.463a9.133,9.133,0,0,1-5.2,2.5c-2.69.6-4.049,1.549-5.654,1.37s-3.79.178-4.584,0a6.748,6.748,0,0,0-1.987,0,8.987,8.987,0,0,1-.764,3.2,5.826,5.826,0,0,0-.764,3.774c.137,1.589-1.329,4.29,0,4.132s-.2-1.748,4.737-1.549,2.659,0,6.876,0,5.332.794,8.251,0,0-1.391,4.738-1.291,6.326,1.291,6.326,1.291a1.788,1.788,0,0,1,0,1.549c-.4.835-1.453,1.47-4.8,1.55s-2.673-.08-5.2,0-2.141-.278-3.821,0-2.765-.676-5.5,0a45.618,45.618,0,0,1-6.876,1.291,25.171,25.171,0,0,1-3.973,0,6.765,6.765,0,0,0-.764,1.768,9.98,9.98,0,0,0,0,2.88s6.953.894,8.71,0,1.375-1.092,5.043-1.291,2.552.4,7.182,0,2.9,1.291,2.9,1.291.259.894-3.973,1.291-2.49,0-5.348.795-1.222.834-4.126,1.013-3.178-.378-4.432,0-4.034,1.927-4.432,1.549-.932.258-.764,1.033-.03-4.589.764,2.762.825,5.4.611,7.569.214,2.244,0,3.1-2.674.933,3.82,0,2.522-1.529,9.475-1.728,10.848-1.153,14.364-1.371a22.632,22.632,0,0,0,6.1-1.212,31.626,31.626,0,0,0-6.1,2.583c-3.239,1.788.6.079-5.2,1.728s-7.167.894-10.85,2.066-3.025.577-5.043,1.172-3.973,1.152-3.973,1.152a1.189,1.189,0,0,0-1.223,1.291c0,1.331-2.185,4.271-1.987,5.682a14.153,14.153,0,0,0,.611,3.795c.581,1.589-.642,1.192.764,2.384s2.858,1.192,5.807,1.391-4.4-2.98,6.724,0,6.539,5.187,1.68,4.878.016.309-5.5,0-5.256-.684-6.876,0a8.153,8.153,0,0,0-2.6,1.746s-.779.726,0,2.514a12.772,12.772,0,0,1,1.375,4.967c0,1.589-1.39-4.569,0,2.384s5.471,8.145,8.1,8.145,6.281-1.788,9.322-1.788,4.034.6,7.014,0,2.643.6,6.586,0a19.1,19.1,0,0,1,6.526,0s.993,1.589-.993,1.788-4.768,1.2-6.953,1.194-.994,0-5.165,0-4.294-.4-7.014,0-2.124,0-5.5.991-2.934.595-5.043,1.191a9.718,9.718,0,0,1-4.432,0h-2.445a17.618,17.618,0,0,1,0,4.8,18.118,18.118,0,0,0,0,6.547c.4,2.162,1.391,2.36,0,7.128s-1.36,3.5-1.375,7.711,2.033,1.727,2.6,8.729-.168,16.14,0,17.729-.366,23.243,0,26.223,1.681,17.283,1.222,20.263.459,13.906,0,15.893,0,14.9,0,14.9v6.686Z" transform="translate(-2060.628 -1483.356)" fill="#3c7743"/>
  </g>
</svg>
