<svg id="Group_5" data-name="Group 5" xmlns="http://www.w3.org/2000/svg" preserveAspectRatio="none" viewBox="0 0 478.241 680.495">
  <path id="Path_14" data-name="Path 14" d="M3256.382,2115.055v-98.2s-6.983,1.309-11.348,3.928-12.221,3.928-12.221,3.928-2.182-7.42,0-7.856,9.6-3.492,9.6-3.492h10.475s-1.746-7.42,0-8.729,3.491-14.839,3.491-14.839v-11.348l-13.967,4.8-9.6,4.365-4.365-4.365,7.42-4.8h6.547l5.674-2.182,8.292-5.238v-10.475l-3.491-3.492s4.8-3.055-7.856,0-16.585,3.492-16.585,3.492h-9.166l3.928-3.492s.437-.873,5.238-1.746,11.784-2.182,11.784-2.182,13.32,2,12.657,0-.112-9.232,0-10.265a4.192,4.192,0,0,0,0-2.583c-.4-1.808-.921-2.841-1.7-3.1a24.685,24.685,0,0,0-6.16-1.291h-9.166s-5.631,1.549-7.42,1.291a11.015,11.015,0,0,0-4.113,0c-1.808.258-1.808-.258-3.357,0s-1.55-1.291-4.649,0a22.155,22.155,0,0,1-7.231,1.291l-2.066-2.583s5.681-2.324,6.456-2.324h9.722s10.422-2.066,11.455-2.066a29.987,29.987,0,0,0,5.567,0c4.763-.258,13.8,0,13.8,0a7.785,7.785,0,0,0-1.145-3.1c-.921-1.291-10.475,1.371-10.475,1.371l10.475-12.734a76.112,76.112,0,0,1-9.185,1.033c-3.137,0-3.615-2.066-5.423-1.033s-8.264,1.033-8.264,1.033l-5.682-2.583,5.682-1.808h10.216s-.843-1.033,4.8-1.291a56.615,56.615,0,0,1,7.856,0s.146-3.616,0-4.649,3.986-2.841-1.7-2.841-5.937-.517-8.779,0-2.761,1.291-6.547,1.55-1.461-.775-5.851,0-6.806,1.291-6.806,1.291-6.4,1.55-3.928-1.291.921-3.1,5.053-3.1,1.55-.258,5.682,0,3.357.517,6.973,0,.519,1.291,5.425,0,3.86-1.291,5.674-1.291h4.8a4.985,4.985,0,0,0,0-3.874,31.928,31.928,0,0,1-1.7-4.39,12.635,12.635,0,0,0-4.649-2.583c-2.324-.517-9.3-2.583-9.555-2.583h-9.814l-6.2,1.291s-2.583,4.907-3.1,5.682-3.1.517-3.1-1.808a7.71,7.71,0,0,1,1.55-5.165,9.2,9.2,0,0,1,4.649-3.1c2.324-.775.258,1.033,6.2,0s3.357,1.291,7.49,0a29.556,29.556,0,0,1,10.368-1.291c1.254.258,6.16,1.291,6.16,1.291l1.7-4.907-1.7-2.066v-5.165s-3.282.517-6.16,1.291a49.325,49.325,0,0,1-6.752,1.549c-2.066.258-8.3,1.033-9.833,1.033h-10.57s-1.033-2.583,0-2.583,2.324-1.033,8.006-1.291,7.828.516,9.983,0,3.191,1.808,6.547,0a93.626,93.626,0,0,1,8.779-3.874s2.617-5.423,1.7-5.423-7.633.775-10.475,0-3.1-2.583-7.749-1.291-5.94,2.583-7.49,1.291-2.841-4.907-2.841-4.907h2.841l4.132,1.55h8.924l10.961,2.066v-13.429s-6.2-1.033-8.779,0-4.569.258-6.547,1.55-1.2,1.033-4.56,1.808-4.39-1.55-6.973,0-4.166,3.357-5.053,2.066a13.348,13.348,0,0,1-1.4-3.874s-.258-1.55,0-1.55a5.154,5.154,0,0,0,3.1,0c2.066-.516,1.808.258,3.357,0s3.061,1.033,4.113,0-1.531-.516,2.86-1.55,7.26-2.841,8.924-2.583a27.8,27.8,0,0,0,4.8,0l4.353,1.549,3.5,1.033v-2.583s-.933-2.583-4.8-2.583-3.322-.258-7.856,0-8.408-.517-8.924,0-.813,1.291-2.86,0-5.238-3.1-5.238-3.1-4.224-1.55,0-1.55a72.983,72.983,0,0,1,11.455,1.55h16.528v-9.039s-6.457.516-7.49,0-4.907,1.033-6.715,0-4.132-.775-5.682-1.291a29.234,29.234,0,0,1-4.132-1.55c-.258-.258-2.841,0-2.841,0l-3.357-2.324s-.441-1.808,2.233-1.291,5.773.516,6.806,1.291,5.423,2.583,8.264,2.324,4.132-.516,5.423,0,5.165,2.066,5.682,1.55,1.808,0,1.808,0-.4-5.084,0-5.848-.244-1.834,0-2.751-3.882-1.987-3.882-1.987a12.743,12.743,0,0,0-4.9-1.223h-4.134a31.906,31.906,0,0,0-5.64,0c-3.515.306-4.126-.306-6.113,0s-.829.153-3.318,0a19.029,19.029,0,0,1-6.156-1.681c-.458-.306.789-2.751,2.228-2.751s2.051-.764,3.12,0a6.555,6.555,0,0,0,3.482,1.223,47.035,47.035,0,0,1,5.423.917,14.844,14.844,0,0,0,4.56.611h4.365c2.8,0,5.394.153,6.313,0a16.6,16.6,0,0,1,2.841,0s1.135.917,1.135-.611v-2.139s2.75-.917,0-1.375-4.769-1.07-6.816-1.07-.618.458-3.472,0-2.473-.306-5.567-.764a35.557,35.557,0,0,1-5.539-.917c-1.375-.458-4.649-1.528-5.916-2.139a37.281,37.281,0,0,1-3.928-2.6s5.194,0,6.6.764,3.089,1.987,3.242,1.834-.527-1.375,2.182,0,3.917,1.987,5.682,2.139,2.375,1.223,4.362.917a32.115,32.115,0,0,1,6.737,0c.445.153,2.737.611,2.432,0s.735-2.292.673-3.056.521-1.222,0-1.834-.192-.764-1.808-.764-1.282.611-4.353,0-3.223-.917-5.974-1.375-2.75-.306-6.418-.917-1.815.764-4.193-.764a32.944,32.944,0,0,1-5.238-4.737,3.4,3.4,0,0,1,3.965,0c2.409,1.375.27.611,5.465,2.751a75.234,75.234,0,0,0,7.591,2.751c1.272.458.17.611,3.472.917a44.072,44.072,0,0,0,6.816,0v-5.5c0-.764-.13-2.6-1.135-3.362s.982-1.07-2.074-1.223a13.245,13.245,0,0,1-4.9-.917,22.148,22.148,0,0,0-4.134-1.07c-3.195-.611-3.5.153-4.876-1.07a18.723,18.723,0,0,1-2.1-2.139,32.313,32.313,0,0,0,3.357.917c2.56.611,1.309,1.528,3.615,1.223s-1.667-.153,3.071,0,6.737,0,6.737,0l3.105,1.07s.7-.611-.673-3.973-5.075-4.126-6.816-3.973-2.076-.611-5.423,0-3.195,1.223-5.64.611-1.834.306-3.515-.611-4.791-2.9-4.791-2.9,3.874-1.681,4.791-1.07,1.375,2.6,3.515,2.6,6.472-.458,7.591,0,3.44,2.292,4.8,1.375,1.693-2.6,3.055-1.375a13.326,13.326,0,0,0,3.105,1.987s-.521-2.6-.673-3.515-.13-.917-1.135-2.139-2.871-.917-5.682-1.375-2.993-.917-5.423-1.528a46.438,46.438,0,0,0-4.876-.917s-1.223-1.07,0-1.222,3.486,0,4.876,0,.473,1.07,3.071,1.222a22.728,22.728,0,0,1,5.193.917c1.989.458,2.012-1.375,2.841,0a2.936,2.936,0,0,0,1.808,1.528s-.4-3.362,0-3.667-1.411-1.528-3.105-1.681-.137.917-3.055,0-3.781-.917-4.8-1.528-1.951-1.223-1.951-1.223v-.764l5.423.764h3.607l3.209,1.223v-6.113a14.545,14.545,0,0,0-3.209-2.292c-1.222-.458-4.737-1.07-5.96-1.528s-4.362-1.528-4.362-1.528-1.868-1.681-1.122-1.834,1.052-2.292,3.192,0,7.486,3.362,7.486,3.362h3.975v-3.362s-4.709-3.056-5.487-2.9-6.127-4.279-5.974-4.89,3.973,1.07,3.973,1.07l5.056,3.209,1.3.611v-8.4l1.808-7.182v9.169s2.231,3.209,1.7,3.973,1.145,2.445,1.145,2.445l3.821,1.375s-.153.306,1.375.764,2.6.153,2.751.764-1.222,2.292-1.987,1.834-4.738-1.528-5.2-1.834-3.605-1.528-3.605-1.528,3.146,3.82,2.841,4.89.152,2.751,0,4.432.458,2.6,0,3.515-.765,2.445,0,1.987,0,.458,2.446,0,2.292.611,3.515,0a8.233,8.233,0,0,1,3.209-1.223,22.364,22.364,0,0,1,3.362,0,11.1,11.1,0,0,1-2.139,2.751c-.917.611.764.306-1.222.917s-2.292.306-3.973.764-1.986,1.834-2.75,1.222a1.5,1.5,0,0,0-1.681,0l-.765.917a5.256,5.256,0,0,1,.765,2.292v1.681s-1.069,2.139,1.681,1.07,3.82-1.681,5.5-2.139,1.987-1.07,3.515-1.375a5.175,5.175,0,0,1,2.445,0,1.421,1.421,0,0,1-.764,1.375c-.917.611-1.07.458-2.751,1.07s-.306.306-2.445,1.07-1.987,1.834-2.751,1.528-2.445-.764-2.75,0-1.681,1.375-1.681,1.375a4.875,4.875,0,0,1,0,1.528,3.04,3.04,0,0,0,0,1.223s-2.292.611.917,0,3.973-.458,5.654-1.223.612-.458,4.126-.917a66.264,66.264,0,0,1,6.724-.611c.764,0,1.681,1.528,0,1.528s1.834-2.139-3.362,0-10.391,4.126-10.391,4.126l-4.432-.917s-.306,2.751,0,3.209-.306,1.223,0,1.987-.612.458,0,1.223.306-.458,2.446,0,1.528,0,4.89,0,4.585.764,5.807,0a6.4,6.4,0,0,1,2.9-1.223c1.834-.458,3.821,2.139,3.821,2.139a1.688,1.688,0,0,1-1.681,1.528H3265.5c-.764,0-.153-.764-2.292,0s-1.07-.458-3.973.917-4.584,1.07-4.432,1.834a27.683,27.683,0,0,1,0,5.043c-.153.306-.458,2.292.917,1.834s3.515.153,5.654-1.07,5.349-1.681,7.488-2.139-.306-.153,3.362-.917,8.4-2.751,9.169-2.751,5.2-.764,3.82,0-.306.611-2.139,1.987-2.292,3.056-3.667,3.056.611-.611-1.987,0-3.973.917-5.2.764a24.65,24.65,0,0,0-3.362,0c-1.07,0-2.75-.917-3.362,0a4.377,4.377,0,0,1-3.515,1.834c-1.834.153-2.292-1.07-3.515,0a18.033,18.033,0,0,1-3.668,2.139l-.765,2.751s.612,3.82.765,5.807,2.6.306,3.056,0,2.292,0,3.515-1.681,1.681-3.668,3.056-4.126,1.375.153,2.139-1.07,4.431-4.279,3.515-2.9.306,3.973-1.222,5.349-3.515,1.681-4.432,2.751.459.153-1.222,1.681-1.528,1.375-2.6,2.445a8.23,8.23,0,0,1-2.139,1.834c-.458.153-2.445.458-2.751.917a31.271,31.271,0,0,0-.917,4.279,2.955,2.955,0,0,0,1.681.784c1.07.133,3.362-.478,4.89-.784s1.987-.942,5.807-1.541,3.667-1.067,5.807-1.291,3.209-.683,4.432-.683h1.987s-.306,1.961-1.987,1.974a7.111,7.111,0,0,0-3.515.777c-1.528.611-1.681,1.109-3.821,1.548s-3.362,1.59-4.584,1.55-5.043,1.248-5.5,1.291-3.362-.5-3.515,0-1.681,0-1.681,0v5.239l1.681,4.584v2.315s6.877-.94,7.946-1.7-.152-1.916,2.139-2.945,3.821-2.113,6.418-3.1,3.21-.833,4.432-2.055a31.614,31.614,0,0,1,4.889-4.279c1.375-.764,3.973-2.775,5.348-3.221s5.349-4.725,5.349-4.725l2.292-.764-2.292,5.489-5.349,3.874s-5.347,3.473-6.265,3.626-4.127,3.056-5.808,3.82-9.015,4.279-9.015,4.279-2.291,3.989-3.362,4.286-6.724,2.583-6.724,2.583a25.663,25.663,0,0,1,1.375,4.907c0,1.213-1.527,7.311-1.375,8.006s1.375,4.057,1.375,4.057,2.9-2.445,5.349-2.751a21.938,21.938,0,0,0,5.654-1.307c2.444-.833,3.057-1.9,5.043-2.667a13.683,13.683,0,0,0,4.431-2.292c2.139-1.528,4.737-2.121,6.265-3.047s3.056-1.808,3.056-1.808,1.834.136.611,1.808-1.986,1.519-3.667,3.047-3.361,1.47-5.2,3.409-5.195,2.4-5.5,2.856a14.354,14.354,0,0,1-5.043,2.051c-1.223.089-7.793,2.992-8.252,3.451s-2.139,1.973-2.139,1.973.764,3.3.764,3.874-1.68,6.556-1.375,7.231a6.269,6.269,0,0,1,.611,2.356c0,.764-.611,5.65-.611,5.65s-.672.377,3.515,0a81.09,81.09,0,0,0,8.71-1.172c2.032-.4,1.635-.795,3.821-.795s10.7-1.133,10.7-1.133.031-.338,1.819-1.291a13.468,13.468,0,0,1,3.775-1.259s.795-.172,0,1.259.717,2.027-1.926,2.424-3.178-.795-5.2.795-3.927.953-5.654,2.463a9.133,9.133,0,0,1-5.2,2.5c-2.69.6-4.049,1.549-5.654,1.37s-3.79.178-4.584,0a6.748,6.748,0,0,0-1.987,0,8.987,8.987,0,0,1-.764,3.2,5.826,5.826,0,0,0-.764,3.774c.137,1.589-1.329,4.29,0,4.132s-.2-1.748,4.737-1.549,2.659,0,6.876,0,5.332.794,8.251,0,0-1.391,4.738-1.291,6.326,1.291,6.326,1.291a1.788,1.788,0,0,1,0,1.549c-.4.835-1.453,1.47-4.8,1.55s-2.673-.08-5.2,0-2.141-.278-3.821,0-2.765-.676-5.5,0a45.618,45.618,0,0,1-6.876,1.291,25.171,25.171,0,0,1-3.973,0,6.765,6.765,0,0,0-.764,1.768,9.98,9.98,0,0,0,0,2.88s6.953.894,8.71,0,1.375-1.092,5.043-1.291,2.552.4,7.182,0,2.9,1.291,2.9,1.291.259.894-3.973,1.291-2.49,0-5.348.795-1.222.834-4.126,1.013-3.178-.378-4.432,0-4.034,1.927-4.432,1.549-.932.258-.764,1.033-.03-4.589.764,2.762.825,5.4.611,7.569.214,2.244,0,3.1-2.674.933,3.82,0,2.522-1.529,9.475-1.728,10.848-1.153,14.364-1.371a22.632,22.632,0,0,0,6.1-1.212,31.626,31.626,0,0,0-6.1,2.583c-3.239,1.788.6.079-5.2,1.728s-7.167.894-10.85,2.066-3.025.577-5.043,1.172-3.973,1.152-3.973,1.152a1.189,1.189,0,0,0-1.223,1.291c0,1.331-2.185,4.271-1.987,5.682a14.153,14.153,0,0,0,.611,3.795c.581,1.589-.642,1.192.764,2.384s2.858,1.192,5.807,1.391-4.4-2.98,6.724,0,6.539,5.187,1.68,4.878.016.309-5.5,0-5.256-.684-6.876,0a8.153,8.153,0,0,0-2.6,1.746s-.779.726,0,2.514a12.772,12.772,0,0,1,1.375,4.967c0,1.589-1.39-4.569,0,2.384s5.471,8.145,8.1,8.145,6.281-1.788,9.322-1.788,4.034.6,7.014,0,2.643.6,6.586,0a19.1,19.1,0,0,1,6.526,0s.993,1.589-.993,1.788-4.768,1.2-6.953,1.194-.994,0-5.165,0-4.294-.4-7.014,0-2.124,0-5.5.991-2.934.595-5.043,1.191a9.718,9.718,0,0,1-4.432,0h-2.445a17.618,17.618,0,0,1,0,4.8,18.118,18.118,0,0,0,0,6.547c.4,2.162,1.391,2.36,0,7.128s-1.36,3.5-1.375,7.711,2.033,1.727,2.6,8.729-.168,16.14,0,17.729-.366,23.243,0,26.223,1.681,17.283,1.222,20.263.459,13.906,0,15.893,0,14.9,0,14.9v6.686Z" transform="translate(-2846.627 -1588.505)" fill="#3c7743"/>
  <path id="Tree_Group_5" data-name="Tree Group 5" d="M3432,1961l3.094-187.45L3449.3,1762l-4.028-11.717,4.028-10.985,10.253-13.914-6.591-5.493,6.591-1.831-8.788-5.859-5.493-8.788,10.985-7.69h5.126l-5.126-7.69-5.492-8.788,8.788-4.394s14.647-12.45,9.887-12.816a77.459,77.459,0,0,0-9.887,0l-3.3-13.182-5.492-11.717,8.788-9.154-3.3,6.225h9.154l6.957-6.225,10.253,6.225s15.379,2.929,16.478,2.929,10.985-.732,10.985-2.929a70.881,70.881,0,0,1,1.465-8.788H3499.1l-10.985-5.126-5.493,2.2-13.182-3.662h-8.056l4.028-5.492-9.154-9.154v-4.76l9.154-4.76,4.028-5.492,7.689,5.492,8.788-1.831,6.225-3.662,5.492,1.831,13.915,1.831,12.083-3.662,6.225-3.662v-6.225H3516.68l-17.576,2.2h-6.957l-9.521-7.323v-7.323h-5.492l-4.76-1.465-2.929-5.126-13.182-9.154h13.182l4.394-1.465,12.083,4.028s10.252,4.028,11.717,4.028h13.915s11.351-4.394,12.083-6.591,4.028-6.957,4.028-6.957h-12.816l-7.689,6.957-2.929-12.816-9.886,5.859h-8.422l-5.126-5.859-11.351-2.2-4.028-10.253h11.717l8.788-4.76,13.182,4.76,5.126-10.253,14.647,4.028h8.788l2.2-5.859,10.253,1.831v-7.69h-10.253l-6.225-2.563-8.788,5.126h-12.816l-16.111-8.056,8.422-4.394,9.886-2.2h7.323v-12.816l7.323,4.225,2.534-4.225-20.844-7.324,9.3-1.69,6.817,1.69h6.957V1465.8h-6.957l-9.52-1.408-2.929-5.352h7.323a48.741,48.741,0,0,0,5.126-1.408c1.351-.563-3.156-6.2-3.156-6.2l-6.365-7.042,6.365-3.1v-9.577s7.6,6.2,7.887,6.2,8.451,1.972,8.451,1.972l2.816,8.45,7.437,7.887,7.491,2.817,1.972-10.7,3.662-3.943-1.972-6.478-9.858-1.69-8.732-4.507h8.732l6.2-2.253-6.2-3.943s-8.168-3.662-8.732-4.788-5.013-8.732-5.013-8.732l12.45,4.507,1.295-1.972,8.168,1.972,1.69,2.535,1.972-4.507-3.662-5.915s-5.915-1.972-6.76-4.507-2.7-10.7-2.7-10.7l7.491,5.915,1.972-5.915,7.042-7.605,7.887-6.2-4.788,9.013a13.844,13.844,0,0,1,1.408,4.788c0,1.972,3.38,8.45,3.38,8.45l7.323-2.535,7.042-5.915-4.225,8.45-6.478,2.253-3.662,6.76s-1.127,7.323-1.127,8.168v7.887l4.788-2.817,2.535-9.577h14.647l5.915-2.535-5.915,4.507-8.45,2.535-5.07,5.07-7.323,7.6-1.127,6.2,1.127,3.38s4.507,1.69,7.323,1.69,14.928-1.69,14.928-1.69h4.507l-5.915,3.1-10.7,2.535s-5.07-1.127-6.478,0-1.127,4.507-1.127,4.507l9.858,3.38h9.858l10.14-3.38,7.042,3.38v4.225H3596.9l-5.634-1.408-15.492,3.38-8.732-1.972,1.127,6.76,11.83,2.535,14.365-2.535h7.6l-5.07,3.943s8.731,5.07,7.042,4.225-14.928,0-14.928,0l9.577,3.943-19.717-2.253h-11.83s-.845,9.013,1.127,9.013h8.732s9.859.845,12.112,0,7.887,2.535,7.887,2.535l7.042,3.943h8.732l7.605-3.943,3.662,1.972-4.788,3.38-6.479,1.408H3596.9l14.365,4.028h-20l-18.027-2.2-5.07,2.2,14.928,4.394s12.675-.873,13.8,0,20.28,2.929,20.28,2.929l-4.507,2.563h-10.7s-14.365-.732-16.618,0-14.647,2.563-14.647,2.563l-2.535,5.126s5.352,4.028,8.732,4.028,27.04,1.465,27.04,1.465h10.7l14.083,7.83h-14.083l9.3,3.38-27.04,3.8-13.8,3.8-7.323-1.605-3.943,5.859s18.308,5.1,19.435,5.492,16.055,0,16.055,0l14.928,1.465h-16.9l11.83,6.591s13.52,1.24,13.238,2.563-20.843,1.887-20.843,1.887l-15.21,1.408,9.577,7.042,23.66,6.76s3.1,4.338,2.817,4.141-17.745.479-19.153,0-11.548,6.281-11.548,6.281,6.479,5.071,9.858,5.07,9.013-1.69,14.365,0,15.773,6.591,15.773,6.591L3617.178,1601l-13.239-2.817s-13.8-.282-14.928,0-9.013,1.24-9.013,1.24l3.1,4.76s14.365,3.014,16.618,3.859,10.14,4.958,16.337,5.3,18.027,2.028,18.027,2.028l6.76,4.93-16.9,2.2-14.365,2.929-18.309,4.027h-18.027l18.027,13.238s13.52-1.127,16.055,0,14.083,3.662,16.618,3.943,15.773,8.168-12.675-12.421l10.985-2.508,22.814,2.508a48.524,48.524,0,0,1,9.577-2.508c4.507-.563,15.21-6.281,15.21-6.281v-6.591s-12.957-4.985-15.21-5.492-10.985-.056-12.393,0-14.646-2.761-14.646-2.761l2.817-6.393h34.926l9.858-4.76,3.38-8.422h-33.519l-10.984,1.831-3.662-5.07,11.829-2.253,12.393-4.028s10.422-5.435,12.112-7.323,8.45-7.323,8.45-7.323h-27.6l-10.7,3.746-6.478-7.042,11.829-1.408,23.1-4.45,9.858-8.056,1.972-5.492-15.773-2.564-19.153,2.564-14.646-2.564,2.817-5.492s15.491.7,17.181,0,21.97-7.182,22.252-7.183,12.675-5.07,12.675-5.07l-19.717-6.478s-15.773-1.127-17.745,0-14.646-3.6-14.646-3.6l2.534-8.422s17.745-3.52,18.872-2.929,20,2.929,20,2.929l10.7-7.323,5.352-6.845-22.533,1.408-16.055-3.38-13.52-6.2,16.055-3.381,21.407-1.69,12.675-5.352,4.788-6.76h-38.87l-10.984-4.788,17.181-4.788,19.153,1.408,10.7-6.2h-33.237l-11.267-4.507-9.294-9.013s-3.661-2.817-3.662-3.944,16.054-2.253,16.054-2.253l6.76-4.788h16.618s12.675,3.944,12.675,4.788,10.422,0,10.422,0l8.732-10.985,3.119-4.225s-3.033-6.869-4.983-6.652-13.3,1.388-13.909,1.019-18.027,0-18.027,0l-9.858-3.836s-5.654-7.409-6.2-7.713,14.841-3.987,14.841-3.987l8.45,2.6,10.791-6.717,15.773-7.367,3.119-4.246-18.893-4.2h-16.055l8.3-5.417,18.2-1.95,9.967-3.467-11.267-6.717h-17.874l-9.295-4.767L3684,1352l23.4,1.083-3.467-9.317-10.984-7.8c-2.746-1.95,17.484,3.467,17.484,3.467l-4.117-8.017-16.9-8.017,1.279-8.017,10.985,5.633-1.864-6.717,1.864-10.183,9.619,7.8s4.983,2.167,4.333,0-4.55-19.067-4.333-20.367,2.817-11.05,2.817-11.05l7.15,7.15,3.467,8.883,18.633-1.95-14.517,6.283,8.883,4.55,11.7,5.2-23.183-3.467,15.383,8.233s14.95,3.033,15.167,3.683-19.067,3.467-19.067,3.467l-13-5.85,1.517,14.733,11.483,2.167s22.1,1.083,22.75,2.383,11.917,0,11.917,0l-15.6,3.467-20.8,1.733-9.75,2.6v4.983a51.078,51.078,0,0,1,3.9,4.333c1.083,1.517,17.333,1.95,17.333,1.95l-15.167,1.95-6.067,5.85s1.3,3.9,1.517,5.2,19.717-2.383,19.717-2.383l6.933-1.083s-.65,3.033-1.517,3.467-10.184,1.3-11.267,1.95-12.783,4.333-12.783,4.333-3.25,3.425-2.6,5.287-3.033,6.2-3.033,6.2l-1.95,7.605s15.817,2.144,16.467,1.928,6.933-.822,9.75-1.928,9.317-7.605,9.317-7.605l-5.417,7.605s16.9-.844,15.817,0-13.867,2.794-14.95,3.444-23.617,4.333-23.617,4.333l21.667,4.333-18.633.65s-3.9,3.467-3.9,4.767,4.55,9.317,5.2,9.967,12.134,4.117,15.167,4.55,4.333.433,8.667-.217,13.65-1.733,15.384-1.517,4.117-2.167,4.117-2.167a5.114,5.114,0,0,1,1.3,2.383c.217,1.3,5.417,3.9,6.933,3.9s8.884.217,8.884.217l-10.4,3.033s7.8,3.033,7.367,3.9-10.617.217-10.617.217l9.533,8.017-18.85-6.933-12.783-3.9-20.367,3.033s-5.417,5.85-5.633,6.5,12.783,6.283,12.783,6.283-11.05-1.95-11.7-.65,23.183,8.45,23.183,8.45,10.617.217,14.517.433,18.069,1.192,18.069,1.192l4.9-1.192.894,8h13.127l-9.266,8.117,5.6,5.352h-15.25l-12.219-3.943-20.367,1.69-11.483,4.808,21.676,9.652s-13.849-.772-14.743,0,12.812,10.424,12.812,10.424,21.428,5.984,23.358,5.984,14.479,2.7,14.479,2.7l-1.93,4.51-14.285-2.194s-23.166-1.624-23.938-1.1-17.429,0-17.429,0l28.819,10.619s-27.413,1.1-26.833,1.293,31.165,8.687,31.165,8.687l18.255,7.23h27.605l-13.513,7.828-11.776,4.988-20.572-2.478-20.8,6.757-4.55,4.876,18.2,1.887,18.85,3.855s11.574,5.791,12.732,5.791h-44.366l12.783,5.564,9.317,6.251,33.076,4.171s-31.273,9.3-31.853,9.3-18.532,1.658-20.077,1.119-8.664-3.242-8.664-3.242,50.748,3.685,51.52,4.482l-7.632,6.964-19.838,4.19h27.47l-7.915,8.254H3866.3l-24.352-13.223,24.352-1.423-10.768-3.205-13.146-3.913,13.232-2.422,10.682-1.811,6.748-9.241-9.791,1.918-12.2-5.046,26.985-9.883-15.913-6.192,15.913-6.708-18.715-11.579,10.455-1.969,8.261-5.859-11.739-4.247,14.782-2.983-8.035-2.15-9.791-5.07,11.739.072h7.86l1.785-4.865-9.645-1.685-5.217-3.6h11.3l3.558-3.552,1.659-4.87-8.261-2.929,8.261-1.846,3.043-9.393,4.169,16.731,9.309,1.348-13.478,1.215v9.154l15.652,2.758-13.478,3.467,8.261,3.07,3.043,3.38h-9.309l11.483,3.546-8.7,2.454,8.7,3.295-11.483,2.564,2.787,6.628-4.783,4.607,13.478-4.278-5.217,6.591-6.266,4.45,14.092,4.7-7.826,3.746-6.266,3.578,9.309,3.182,4.782,6.251-11.3,1.918,8.7,5.493-8.7,1.831,13.942,6.591L3893.51,1601l16.73,7.042-16.73,2.535h16.73V1961Z" transform="translate(-3431.999 -1280.505)" fill="#3c7743"/>
</svg>
