<svg id="Group_1" data-name="Group 1" xmlns="http://www.w3.org/2000/svg" preserveAspectRatio="none" viewBox="0 0 393.81 593.301">
  <path id="Path_7" data-name="Path 7" d="M3256.382,2115.055v-98.2s-6.983,1.309-11.348,3.928-12.221,3.928-12.221,3.928-2.182-7.42,0-7.856,9.6-3.492,9.6-3.492h10.475s-1.746-7.42,0-8.729,3.491-14.839,3.491-14.839v-11.348l-13.967,4.8-9.6,4.365-4.365-4.365,7.42-4.8h6.547l5.674-2.182,8.292-5.238v-10.475l-3.491-3.492s4.8-3.055-7.856,0-16.585,3.492-16.585,3.492h-9.166l3.928-3.492s.437-.873,5.238-1.746,11.784-2.182,11.784-2.182,13.32,2,12.657,0-.112-9.232,0-10.265a4.192,4.192,0,0,0,0-2.583c-.4-1.808-.921-2.841-1.7-3.1a24.685,24.685,0,0,0-6.16-1.291h-9.166s-5.631,1.549-7.42,1.291a11.015,11.015,0,0,0-4.113,0c-1.808.258-1.808-.258-3.357,0s-1.55-1.291-4.649,0a22.155,22.155,0,0,1-7.231,1.291l-2.066-2.583s5.681-2.324,6.456-2.324h9.722s10.422-2.066,11.455-2.066a29.987,29.987,0,0,0,5.567,0c4.763-.258,13.8,0,13.8,0a7.785,7.785,0,0,0-1.145-3.1c-.921-1.291,0-9.039,0-9.039v-2.324h-7.856c-3.137,0-4.945-1.033-6.752,0s-8.264,1.033-8.264,1.033l-5.682-2.583,5.682-1.808h10.216s-.843-1.033,4.8-1.291a56.615,56.615,0,0,1,7.856,0s.146-3.616,0-4.649,3.986-2.841-1.7-2.841-5.937-.517-8.779,0-2.761,1.291-6.547,1.55-1.461-.775-5.851,0-6.806,1.291-6.806,1.291-6.4,1.55-3.928-1.291.921-3.1,5.053-3.1,1.55-.258,5.682,0,3.357.517,6.973,0,.519,1.291,5.425,0,3.86-1.291,5.674-1.291h4.8a4.985,4.985,0,0,0,0-3.874,31.928,31.928,0,0,1-1.7-4.39,12.635,12.635,0,0,0-4.649-2.583c-2.324-.517-9.3-2.583-9.555-2.583h-9.814l-6.2,1.291s-2.583,4.907-3.1,5.682-3.1.517-3.1-1.808a7.71,7.71,0,0,1,1.55-5.165,9.2,9.2,0,0,1,4.649-3.1c2.324-.775.258,1.033,6.2,0s3.357,1.291,7.49,0a29.556,29.556,0,0,1,10.368-1.291c1.254.258,6.16,1.291,6.16,1.291l1.7-4.907-1.7-2.066v-5.165s-3.282.517-6.16,1.291a49.325,49.325,0,0,1-6.752,1.549c-2.066.258-8.3,1.033-9.833,1.033h-10.57s-1.033-2.583,0-2.583,2.324-1.033,8.006-1.291,7.828.516,9.983,0,3.191,1.808,6.547,0a93.626,93.626,0,0,1,8.779-3.874s2.617-5.423,1.7-5.423-7.633.775-10.475,0-3.1-2.583-7.749-1.291-5.94,2.583-7.49,1.291-2.841-4.907-2.841-4.907h2.841l4.132,1.55h8.924l10.961,2.066v-13.429s-6.2-1.033-8.779,0-4.569.258-6.547,1.55-1.2,1.033-4.56,1.808-4.39-1.55-6.973,0-4.166,3.357-5.053,2.066a13.348,13.348,0,0,1-1.4-3.874s-.258-1.55,0-1.55a5.154,5.154,0,0,0,3.1,0c2.066-.516,1.808.258,3.357,0s3.061,1.033,4.113,0-1.531-.516,2.86-1.55,7.26-2.841,8.924-2.583a27.8,27.8,0,0,0,4.8,0l4.353,1.549,3.5,1.033v-2.583s-.933-2.583-4.8-2.583-3.322-.258-7.856,0-8.408-.517-8.924,0-.813,1.291-2.86,0-5.238-3.1-5.238-3.1-4.224-1.55,0-1.55a72.983,72.983,0,0,1,11.455,1.55h16.528v-9.039s-6.457.516-7.49,0-4.907,1.033-6.715,0-4.132-.775-5.682-1.291a29.234,29.234,0,0,1-4.132-1.55c-.258-.258-2.841,0-2.841,0l-3.357-2.324s-.441-1.808,2.233-1.291,5.773.516,6.806,1.291,5.423,2.583,8.264,2.324,4.132-.516,5.423,0,5.165,2.066,5.682,1.55,1.808,0,1.808,0-.4-5.084,0-5.848-.244-1.834,0-2.751-3.882-1.987-3.882-1.987a12.743,12.743,0,0,0-4.9-1.223h-4.134a31.906,31.906,0,0,0-5.64,0c-3.515.306-4.126-.306-6.113,0s-.829.153-3.318,0a19.029,19.029,0,0,1-6.156-1.681c-.458-.306.789-2.751,2.228-2.751s2.051-.764,3.12,0a6.555,6.555,0,0,0,3.482,1.223,47.035,47.035,0,0,1,5.423.917,14.844,14.844,0,0,0,4.56.611h4.365c2.8,0,5.394.153,6.313,0a16.6,16.6,0,0,1,2.841,0s1.135.917,1.135-.611v-2.139s2.75-.917,0-1.375-4.769-1.07-6.816-1.07-.618.458-3.472,0-2.473-.306-5.567-.764a35.557,35.557,0,0,1-5.539-.917c-1.375-.458-4.649-1.528-5.916-2.139a37.281,37.281,0,0,1-3.928-2.6s5.194,0,6.6.764,3.089,1.987,3.242,1.834-.527-1.375,2.182,0,3.917,1.987,5.682,2.139,2.375,1.223,4.362.917a32.115,32.115,0,0,1,6.737,0c.445.153,2.737.611,2.432,0s.735-2.292.673-3.056.521-1.222,0-1.834-.192-.764-1.808-.764-1.282.611-4.353,0-3.223-.917-5.974-1.375-2.75-.306-6.418-.917-1.815.764-4.193-.764a32.944,32.944,0,0,1-5.238-4.737,3.4,3.4,0,0,1,3.965,0c2.409,1.375.27.611,5.465,2.751a75.234,75.234,0,0,0,7.591,2.751c1.272.458.17.611,3.472.917a44.072,44.072,0,0,0,6.816,0v-5.5c0-.764-.13-2.6-1.135-3.362s.982-1.07-2.074-1.223a13.245,13.245,0,0,1-4.9-.917,22.148,22.148,0,0,0-4.134-1.07c-3.195-.611-3.5.153-4.876-1.07a18.723,18.723,0,0,1-2.1-2.139,32.313,32.313,0,0,0,3.357.917c2.56.611,1.309,1.528,3.615,1.223s-1.667-.153,3.071,0,6.737,0,6.737,0l3.105,1.07s.7-.611-.673-3.973-5.075-4.126-6.816-3.973-2.076-.611-5.423,0-3.195,1.223-5.64.611-1.834.306-3.515-.611-4.791-2.9-4.791-2.9,3.874-1.681,4.791-1.07,1.375,2.6,3.515,2.6,6.472-.458,7.591,0,3.44,2.292,4.8,1.375,1.693-2.6,3.055-1.375a13.326,13.326,0,0,0,3.105,1.987s-.521-2.6-.673-3.515-.13-.917-1.135-2.139-2.871-.917-5.682-1.375-2.993-.917-5.423-1.528a46.438,46.438,0,0,0-4.876-.917s-1.223-1.07,0-1.222,3.486,0,4.876,0,.473,1.07,3.071,1.222a22.728,22.728,0,0,1,5.193.917c1.989.458,2.012-1.375,2.841,0a2.936,2.936,0,0,0,1.808,1.528s-.4-3.362,0-3.667-1.411-1.528-3.105-1.681-.137.917-3.055,0-3.781-.917-4.8-1.528-1.951-1.223-1.951-1.223v-.764l5.423.764h3.607l3.209,1.223v-6.113a14.545,14.545,0,0,0-3.209-2.292c-1.222-.458-4.737-1.07-5.96-1.528s-4.362-1.528-4.362-1.528-1.868-1.681-1.122-1.834,1.052-2.292,3.192,0,7.486,3.362,7.486,3.362h3.975v-3.362s-4.709-3.056-5.487-2.9-6.127-4.279-5.974-4.89,3.973,1.07,3.973,1.07l5.056,3.209,1.3.611v-8.4l1.808-7.182v9.169s2.231,3.209,1.7,3.973,1.145,2.445,1.145,2.445l3.821,1.375s-.153.306,1.375.764,2.6.153,2.751.764-1.222,2.292-1.987,1.834-4.738-1.528-5.2-1.834-3.605-1.528-3.605-1.528,3.146,3.82,2.841,4.89.152,2.751,0,4.432.458,2.6,0,3.515-.765,2.445,0,1.987,0,.458,2.446,0,2.292.611,3.515,0a8.233,8.233,0,0,1,3.209-1.223,22.364,22.364,0,0,1,3.362,0,11.1,11.1,0,0,1-2.139,2.751c-.917.611.764.306-1.222.917s-2.292.306-3.973.764-1.986,1.834-2.75,1.222a1.5,1.5,0,0,0-1.681,0l-.765.917a5.256,5.256,0,0,1,.765,2.292v1.681s-1.069,2.139,1.681,1.07,3.82-1.681,5.5-2.139,1.987-1.07,3.515-1.375a5.175,5.175,0,0,1,2.445,0,1.421,1.421,0,0,1-.764,1.375c-.917.611-1.07.458-2.751,1.07s-.306.306-2.445,1.07-1.987,1.834-2.751,1.528-2.445-.764-2.75,0-1.681,1.375-1.681,1.375a4.875,4.875,0,0,1,0,1.528,3.04,3.04,0,0,0,0,1.223s-2.292.611.917,0,3.973-.458,5.654-1.223.612-.458,4.126-.917a66.264,66.264,0,0,1,6.724-.611c.764,0,1.681,1.528,0,1.528s1.834-2.139-3.362,0-10.391,4.126-10.391,4.126l-4.432-.917s-.306,2.751,0,3.209-.306,1.223,0,1.987-.612.458,0,1.223.306-.458,2.446,0,1.528,0,4.89,0,4.585.764,5.807,0a6.4,6.4,0,0,1,2.9-1.223c1.834-.458,3.821,2.139,3.821,2.139a1.688,1.688,0,0,1-1.681,1.528H3265.5c-.764,0-.153-.764-2.292,0s-1.07-.458-3.973.917-4.584,1.07-4.432,1.834a27.683,27.683,0,0,1,0,5.043c-.153.306-.458,2.292.917,1.834s3.515.153,5.654-1.07,5.349-1.681,7.488-2.139-.306-.153,3.362-.917,8.4-2.751,9.169-2.751,5.2-.764,3.82,0-.306.611-2.139,1.987-2.292,3.056-3.667,3.056.611-.611-1.987,0-3.973.917-5.2.764a24.65,24.65,0,0,0-3.362,0c-1.07,0-2.75-.917-3.362,0a4.377,4.377,0,0,1-3.515,1.834c-1.834.153-2.292-1.07-3.515,0a18.033,18.033,0,0,1-3.668,2.139l-.765,2.751s.612,3.82.765,5.807,2.6.306,3.056,0,2.292,0,3.515-1.681,1.681-3.668,3.056-4.126,1.375.153,2.139-1.07,4.431-4.279,3.515-2.9.306,3.973-1.222,5.349-3.515,1.681-4.432,2.751.459.153-1.222,1.681-1.528,1.375-2.6,2.445a8.23,8.23,0,0,1-2.139,1.834c-.458.153-2.445.458-2.751.917a31.271,31.271,0,0,0-.917,4.279,2.955,2.955,0,0,0,1.681.784c1.07.133,3.362-.478,4.89-.784s1.987-.942,5.807-1.541,3.667-1.067,5.807-1.291,3.209-.683,4.432-.683h1.987s-.306,1.961-1.987,1.974a7.111,7.111,0,0,0-3.515.777c-1.528.611-1.681,1.109-3.821,1.548s-3.362,1.59-4.584,1.55-5.043,1.248-5.5,1.291-3.362-.5-3.515,0-1.681,0-1.681,0v5.239l1.681,4.584v2.315s6.877-.94,7.946-1.7-.152-1.916,2.139-2.945,3.821-2.113,6.418-3.1,3.21-.833,4.432-2.055a31.614,31.614,0,0,1,4.889-4.279c1.375-.764,3.973-2.775,5.348-3.221s5.349-4.725,5.349-4.725l2.292-.764-2.292,5.489-5.349,3.874s-5.347,3.473-6.265,3.626-4.127,3.056-5.808,3.82-9.015,4.279-9.015,4.279-2.291,3.989-3.362,4.286-6.724,2.583-6.724,2.583a25.663,25.663,0,0,1,1.375,4.907c0,1.213-1.527,7.311-1.375,8.006s1.375,4.057,1.375,4.057,2.9-2.445,5.349-2.751a21.938,21.938,0,0,0,5.654-1.307c2.444-.833,3.057-1.9,5.043-2.667a13.683,13.683,0,0,0,4.431-2.292c2.139-1.528,4.737-2.121,6.265-3.047s3.056-1.808,3.056-1.808,1.834.136.611,1.808-1.986,1.519-3.667,3.047-3.361,1.47-5.2,3.409-5.195,2.4-5.5,2.856a14.354,14.354,0,0,1-5.043,2.051c-1.223.089-7.793,2.992-8.252,3.451s-2.139,1.973-2.139,1.973.764,3.3.764,3.874-1.68,6.556-1.375,7.231a6.269,6.269,0,0,1,.611,2.356c0,.764-.611,5.65-.611,5.65s-.672.377,3.515,0a81.09,81.09,0,0,0,8.71-1.172c2.032-.4,1.635-.795,3.821-.795s10.7-1.133,10.7-1.133.031-.338,1.819-1.291a13.468,13.468,0,0,1,3.775-1.259s.795-.172,0,1.259.717,2.027-1.926,2.424-3.178-.795-5.2.795-3.927.953-5.654,2.463a9.133,9.133,0,0,1-5.2,2.5c-2.69.6-4.049,1.549-5.654,1.37s-3.79.178-4.584,0a6.748,6.748,0,0,0-1.987,0,8.987,8.987,0,0,1-.764,3.2,5.826,5.826,0,0,0-.764,3.774c.137,1.589-1.329,4.29,0,4.132s-.2-1.748,4.737-1.549,2.659,0,6.876,0,5.332.794,8.251,0,0-1.391,4.738-1.291,6.326,1.291,6.326,1.291a1.788,1.788,0,0,1,0,1.549c-.4.835-1.453,1.47-4.8,1.55s-2.673-.08-5.2,0-2.141-.278-3.821,0-2.765-.676-5.5,0a45.618,45.618,0,0,1-6.876,1.291,25.171,25.171,0,0,1-3.973,0,6.765,6.765,0,0,0-.764,1.768,9.98,9.98,0,0,0,0,2.88s6.953.894,8.71,0,1.375-1.092,5.043-1.291,2.552.4,7.182,0,2.9,1.291,2.9,1.291.259.894-3.973,1.291-2.49,0-5.348.795-1.222.834-4.126,1.013-3.178-.378-4.432,0-4.034,1.927-4.432,1.549-.932.258-.764,1.033-.03-4.589.764,2.762.825,5.4.611,7.569.214,2.244,0,3.1-2.674.933,3.82,0,2.522-1.529,9.475-1.728,10.848-1.153,14.364-1.371a22.632,22.632,0,0,0,6.1-1.212,31.626,31.626,0,0,0-6.1,2.583c-3.239,1.788.6.079-5.2,1.728s-7.167.894-10.85,2.066-3.025.577-5.043,1.172-3.973,1.152-3.973,1.152a1.189,1.189,0,0,0-1.223,1.291c0,1.331-2.185,4.271-1.987,5.682a14.153,14.153,0,0,0,.611,3.795c.581,1.589-.642,1.192.764,2.384s2.858,1.192,5.807,1.391-4.4-2.98,6.724,0,6.539,5.187,1.68,4.878.016.309-5.5,0-5.256-.684-6.876,0a8.153,8.153,0,0,0-2.6,1.746s-.779.726,0,2.514a12.772,12.772,0,0,1,1.375,4.967c0,1.589-1.39-4.569,0,2.384s5.471,8.145,8.1,8.145,6.281-1.788,9.322-1.788,4.034.6,7.014,0,2.643.6,6.586,0a19.1,19.1,0,0,1,6.526,0s.993,1.589-.993,1.788-4.768,1.2-6.953,1.194-.994,0-5.165,0-4.294-.4-7.014,0-2.124,0-5.5.991-2.934.595-5.043,1.191a9.718,9.718,0,0,1-4.432,0h-2.445a17.618,17.618,0,0,1,0,4.8,18.118,18.118,0,0,0,0,6.547c.4,2.162,1.391,2.36,0,7.128s-1.36,3.5-1.375,7.711,2.033,1.727,2.6,8.729-.168,16.14,0,17.729-.366,23.243,0,26.223,1.681,17.283,1.222,20.263.459,13.906,0,15.893,0,14.9,0,14.9v6.686Z" transform="translate(-3202.24 -1662.699)" fill="#3c7743"/>
  <path id="Path_9" data-name="Path 9" d="M3256.382,2115.055v-98.2s-6.983,1.309-11.348,3.928-12.221,3.928-12.221,3.928-2.182-7.42,0-7.856,9.6-3.492,9.6-3.492h10.475s-1.746-7.42,0-8.729,3.491-14.839,3.491-14.839v-11.348l-13.967,4.8-9.6,4.365-4.365-4.365,7.42-4.8h6.547l5.674-2.182,8.292-5.238v-10.475l-3.491-3.492s4.8-3.055-7.856,0-16.585,3.492-16.585,3.492h-9.166l3.928-3.492s.437-.873,5.238-1.746,11.784-2.182,11.784-2.182,13.32,2,12.657,0-.112-9.232,0-10.265a4.192,4.192,0,0,0,0-2.583c-.4-1.808-.921-2.841-1.7-3.1a24.685,24.685,0,0,0-6.16-1.291h-9.166s-5.631,1.549-7.42,1.291a11.015,11.015,0,0,0-4.113,0c-1.808.258-1.808-.258-3.357,0s-1.55-1.291-4.649,0a22.155,22.155,0,0,1-7.231,1.291l-2.066-2.583s5.681-2.324,6.456-2.324h9.722s10.422-2.066,11.455-2.066a29.987,29.987,0,0,0,5.567,0c4.763-.258,13.8,0,13.8,0a7.785,7.785,0,0,0-1.145-3.1c-.921-1.291,0-9.039,0-9.039v-2.324h-7.856c-3.137,0-4.945-1.033-6.752,0s-8.264,1.033-8.264,1.033l-5.682-2.583,5.682-1.808h10.216s-.843-1.033,4.8-1.291a56.615,56.615,0,0,1,7.856,0s.146-3.616,0-4.649,3.986-2.841-1.7-2.841-5.937-.517-8.779,0-2.761,1.291-6.547,1.55-1.461-.775-5.851,0-6.806,1.291-6.806,1.291-6.4,1.55-3.928-1.291.921-3.1,5.053-3.1,1.55-.258,5.682,0,3.357.517,6.973,0,.519,1.291,5.425,0,3.86-1.291,5.674-1.291h4.8a4.985,4.985,0,0,0,0-3.874,31.928,31.928,0,0,1-1.7-4.39,12.635,12.635,0,0,0-4.649-2.583c-2.324-.517-9.3-2.583-9.555-2.583h-9.814l-6.2,1.291s-2.583,4.907-3.1,5.682-3.1.517-3.1-1.808a7.71,7.71,0,0,1,1.55-5.165,9.2,9.2,0,0,1,4.649-3.1c2.324-.775.258,1.033,6.2,0s3.357,1.291,7.49,0a29.556,29.556,0,0,1,10.368-1.291c1.254.258,6.16,1.291,6.16,1.291l1.7-4.907-1.7-2.066v-5.165s-3.282.517-6.16,1.291a49.325,49.325,0,0,1-6.752,1.549c-2.066.258-8.3,1.033-9.833,1.033h-10.57s-1.033-2.583,0-2.583,2.324-1.033,8.006-1.291,7.828.516,9.983,0,3.191,1.808,6.547,0a93.626,93.626,0,0,1,8.779-3.874s2.617-5.423,1.7-5.423-7.633.775-10.475,0-3.1-2.583-7.749-1.291-5.94,2.583-7.49,1.291-2.841-4.907-2.841-4.907h2.841l4.132,1.55h8.924l10.961,2.066v-13.429s-6.2-1.033-8.779,0-4.569.258-6.547,1.55-1.2,1.033-4.56,1.808-4.39-1.55-6.973,0-4.166,3.357-5.053,2.066a13.348,13.348,0,0,1-1.4-3.874s-.258-1.55,0-1.55a5.154,5.154,0,0,0,3.1,0c2.066-.516,1.808.258,3.357,0s3.061,1.033,4.113,0-1.531-.516,2.86-1.55,7.26-2.841,8.924-2.583a27.8,27.8,0,0,0,4.8,0l4.353,1.549,3.5,1.033v-2.583s-.933-2.583-4.8-2.583-3.322-.258-7.856,0-8.408-.517-8.924,0-.813,1.291-2.86,0-5.238-3.1-5.238-3.1-4.224-1.55,0-1.55a72.983,72.983,0,0,1,11.455,1.55h16.528v-9.039s-6.457.516-7.49,0-4.907,1.033-6.715,0-4.132-.775-5.682-1.291a29.234,29.234,0,0,1-4.132-1.55c-.258-.258-2.841,0-2.841,0l-3.357-2.324s-.441-1.808,2.233-1.291,5.773.516,6.806,1.291,5.423,2.583,8.264,2.324,4.132-.516,5.423,0,5.165,2.066,5.682,1.55,1.808,0,1.808,0-.4-5.084,0-5.848-.244-1.834,0-2.751-3.882-1.987-3.882-1.987a12.743,12.743,0,0,0-4.9-1.223h-4.134a31.906,31.906,0,0,0-5.64,0c-3.515.306-4.126-.306-6.113,0s-.829.153-3.318,0a19.029,19.029,0,0,1-6.156-1.681c-.458-.306.789-2.751,2.228-2.751s2.051-.764,3.12,0a6.555,6.555,0,0,0,3.482,1.223,47.035,47.035,0,0,1,5.423.917,14.844,14.844,0,0,0,4.56.611h4.365c2.8,0,5.394.153,6.313,0a16.6,16.6,0,0,1,2.841,0s1.135.917,1.135-.611v-2.139s2.75-.917,0-1.375-4.769-1.07-6.816-1.07-.618.458-3.472,0-2.473-.306-5.567-.764a35.557,35.557,0,0,1-5.539-.917c-1.375-.458-4.649-1.528-5.916-2.139a37.281,37.281,0,0,1-3.928-2.6s5.194,0,6.6.764,3.089,1.987,3.242,1.834-.527-1.375,2.182,0,3.917,1.987,5.682,2.139,2.375,1.223,4.362.917a32.115,32.115,0,0,1,6.737,0c.445.153,2.737.611,2.432,0s.735-2.292.673-3.056.521-1.222,0-1.834-.192-.764-1.808-.764-1.282.611-4.353,0-3.223-.917-5.974-1.375-2.75-.306-6.418-.917-1.815.764-4.193-.764a32.944,32.944,0,0,1-5.238-4.737,3.4,3.4,0,0,1,3.965,0c2.409,1.375.27.611,5.465,2.751a75.234,75.234,0,0,0,7.591,2.751c1.272.458.17.611,3.472.917a44.072,44.072,0,0,0,6.816,0v-5.5c0-.764-.13-2.6-1.135-3.362s.982-1.07-2.074-1.223a13.245,13.245,0,0,1-4.9-.917,22.148,22.148,0,0,0-4.134-1.07c-3.195-.611-3.5.153-4.876-1.07a18.723,18.723,0,0,1-2.1-2.139,32.313,32.313,0,0,0,3.357.917c2.56.611,1.309,1.528,3.615,1.223s-1.667-.153,3.071,0,6.737,0,6.737,0l3.105,1.07s.7-.611-.673-3.973-5.075-4.126-6.816-3.973-2.076-.611-5.423,0-3.195,1.223-5.64.611-1.834.306-3.515-.611-4.791-2.9-4.791-2.9,3.874-1.681,4.791-1.07,1.375,2.6,3.515,2.6,6.472-.458,7.591,0,3.44,2.292,4.8,1.375,1.693-2.6,3.055-1.375a13.326,13.326,0,0,0,3.105,1.987s-.521-2.6-.673-3.515-.13-.917-1.135-2.139-2.871-.917-5.682-1.375-2.993-.917-5.423-1.528a46.438,46.438,0,0,0-4.876-.917s-1.223-1.07,0-1.222,3.486,0,4.876,0,.473,1.07,3.071,1.222a22.728,22.728,0,0,1,5.193.917c1.989.458,2.012-1.375,2.841,0a2.936,2.936,0,0,0,1.808,1.528s-.4-3.362,0-3.667-1.411-1.528-3.105-1.681-.137.917-3.055,0-3.781-.917-4.8-1.528-1.951-1.223-1.951-1.223v-.764l5.423.764h3.607l3.209,1.223v-6.113a14.545,14.545,0,0,0-3.209-2.292c-1.222-.458-4.737-1.07-5.96-1.528s-4.362-1.528-4.362-1.528-1.868-1.681-1.122-1.834,1.052-2.292,3.192,0,7.486,3.362,7.486,3.362h3.975v-3.362s-4.709-3.056-5.487-2.9-6.127-4.279-5.974-4.89,3.973,1.07,3.973,1.07l5.056,3.209,1.3.611v-8.4l1.808-7.182v9.169s2.231,3.209,1.7,3.973,1.145,2.445,1.145,2.445l3.821,1.375s-.153.306,1.375.764,2.6.153,2.751.764-1.222,2.292-1.987,1.834-4.738-1.528-5.2-1.834-3.605-1.528-3.605-1.528,3.146,3.82,2.841,4.89.152,2.751,0,4.432.458,2.6,0,3.515-.765,2.445,0,1.987,0,.458,2.446,0,2.292.611,3.515,0a8.233,8.233,0,0,1,3.209-1.223,22.364,22.364,0,0,1,3.362,0,11.1,11.1,0,0,1-2.139,2.751c-.917.611.764.306-1.222.917s-2.292.306-3.973.764-1.986,1.834-2.75,1.222a1.5,1.5,0,0,0-1.681,0l-.765.917a5.256,5.256,0,0,1,.765,2.292v1.681s-1.069,2.139,1.681,1.07,3.82-1.681,5.5-2.139,1.987-1.07,3.515-1.375a5.175,5.175,0,0,1,2.445,0,1.421,1.421,0,0,1-.764,1.375c-.917.611-1.07.458-2.751,1.07s-.306.306-2.445,1.07-1.987,1.834-2.751,1.528-2.445-.764-2.75,0-1.681,1.375-1.681,1.375a4.875,4.875,0,0,1,0,1.528,3.04,3.04,0,0,0,0,1.223s-2.292.611.917,0,3.973-.458,5.654-1.223.612-.458,4.126-.917a66.264,66.264,0,0,1,6.724-.611c.764,0,1.681,1.528,0,1.528s1.834-2.139-3.362,0-10.391,4.126-10.391,4.126l-4.432-.917s-.306,2.751,0,3.209-.306,1.223,0,1.987-.612.458,0,1.223.306-.458,2.446,0,1.528,0,4.89,0,4.585.764,5.807,0a6.4,6.4,0,0,1,2.9-1.223c1.834-.458,3.821,2.139,3.821,2.139a1.688,1.688,0,0,1-1.681,1.528H3265.5c-.764,0-.153-.764-2.292,0s-1.07-.458-3.973.917-4.584,1.07-4.432,1.834a27.683,27.683,0,0,1,0,5.043c-.153.306-.458,2.292.917,1.834s3.515.153,5.654-1.07,5.349-1.681,7.488-2.139-.306-.153,3.362-.917,8.4-2.751,9.169-2.751,5.2-.764,3.82,0-.306.611-2.139,1.987-2.292,3.056-3.667,3.056.611-.611-1.987,0-3.973.917-5.2.764a24.65,24.65,0,0,0-3.362,0c-1.07,0-2.75-.917-3.362,0a4.377,4.377,0,0,1-3.515,1.834c-1.834.153-2.292-1.07-3.515,0a18.033,18.033,0,0,1-3.668,2.139l-.765,2.751s.612,3.82.765,5.807,2.6.306,3.056,0,2.292,0,3.515-1.681,1.681-3.668,3.056-4.126,1.375.153,2.139-1.07,4.431-4.279,3.515-2.9.306,3.973-1.222,5.349-3.515,1.681-4.432,2.751.459.153-1.222,1.681-1.528,1.375-2.6,2.445a8.23,8.23,0,0,1-2.139,1.834c-.458.153-2.445.458-2.751.917a31.271,31.271,0,0,0-.917,4.279,2.955,2.955,0,0,0,1.681.784c1.07.133,3.362-.478,4.89-.784s1.987-.942,5.807-1.541,3.667-1.067,5.807-1.291,3.209-.683,4.432-.683h1.987s-.306,1.961-1.987,1.974a7.111,7.111,0,0,0-3.515.777c-1.528.611-1.681,1.109-3.821,1.548s-3.362,1.59-4.584,1.55-5.043,1.248-5.5,1.291-3.362-.5-3.515,0-1.681,0-1.681,0v5.239l1.681,4.584v2.315s6.877-.94,7.946-1.7-.152-1.916,2.139-2.945,3.821-2.113,6.418-3.1,3.21-.833,4.432-2.055a31.614,31.614,0,0,1,4.889-4.279c1.375-.764,3.973-2.775,5.348-3.221s5.349-4.725,5.349-4.725l2.292-.764-2.292,5.489-5.349,3.874s-5.347,3.473-6.265,3.626-4.127,3.056-5.808,3.82-9.015,4.279-9.015,4.279-2.291,3.989-3.362,4.286-6.724,2.583-6.724,2.583a25.663,25.663,0,0,1,1.375,4.907c0,1.213-1.527,7.311-1.375,8.006s1.375,4.057,1.375,4.057,2.9-2.445,5.349-2.751a21.938,21.938,0,0,0,5.654-1.307c2.444-.833,3.057-1.9,5.043-2.667a13.683,13.683,0,0,0,4.431-2.292c2.139-1.528,4.737-2.121,6.265-3.047s3.056-1.808,3.056-1.808,1.834.136.611,1.808-1.986,1.519-3.667,3.047-3.361,1.47-5.2,3.409-5.195,2.4-5.5,2.856a14.354,14.354,0,0,1-5.043,2.051c-1.223.089-7.793,2.992-8.252,3.451s-2.139,1.973-2.139,1.973.764,3.3.764,3.874-1.68,6.556-1.375,7.231a6.269,6.269,0,0,1,.611,2.356c0,.764-.611,5.65-.611,5.65s-.672.377,3.515,0a81.09,81.09,0,0,0,8.71-1.172c2.032-.4,1.635-.795,3.821-.795s10.7-1.133,10.7-1.133.031-.338,1.819-1.291a13.468,13.468,0,0,1,3.775-1.259s.795-.172,0,1.259.717,2.027-1.926,2.424-3.178-.795-5.2.795-3.927.953-5.654,2.463a9.133,9.133,0,0,1-5.2,2.5c-2.69.6-4.049,1.549-5.654,1.37s-3.79.178-4.584,0a6.748,6.748,0,0,0-1.987,0,8.987,8.987,0,0,1-.764,3.2,5.826,5.826,0,0,0-.764,3.774c.137,1.589-1.329,4.29,0,4.132s-.2-1.748,4.737-1.549,2.659,0,6.876,0,5.332.794,8.251,0,0-1.391,4.738-1.291,6.326,1.291,6.326,1.291a1.788,1.788,0,0,1,0,1.549c-.4.835-1.453,1.47-4.8,1.55s-2.673-.08-5.2,0-2.141-.278-3.821,0-2.765-.676-5.5,0a45.618,45.618,0,0,1-6.876,1.291,25.171,25.171,0,0,1-3.973,0,6.765,6.765,0,0,0-.764,1.768,9.98,9.98,0,0,0,0,2.88s6.953.894,8.71,0,1.375-1.092,5.043-1.291,2.552.4,7.182,0,2.9,1.291,2.9,1.291.259.894-3.973,1.291-2.49,0-5.348.795-1.222.834-4.126,1.013-3.178-.378-4.432,0-4.034,1.927-4.432,1.549-.932.258-.764,1.033-.03-4.589.764,2.762.825,5.4.611,7.569.214,2.244,0,3.1-2.674.933,3.82,0,2.522-1.529,9.475-1.728,10.848-1.153,14.364-1.371a22.632,22.632,0,0,0,6.1-1.212,31.626,31.626,0,0,0-6.1,2.583c-3.239,1.788.6.079-5.2,1.728s-7.167.894-10.85,2.066-3.025.577-5.043,1.172-3.973,1.152-3.973,1.152a1.189,1.189,0,0,0-1.223,1.291c0,1.331-2.185,4.271-1.987,5.682a14.153,14.153,0,0,0,.611,3.795c.581,1.589-.642,1.192.764,2.384s2.858,1.192,5.807,1.391-4.4-2.98,6.724,0,6.539,5.187,1.68,4.878.016.309-5.5,0-5.256-.684-6.876,0a8.153,8.153,0,0,0-2.6,1.746s-.779.726,0,2.514a12.772,12.772,0,0,1,1.375,4.967c0,1.589-1.39-4.569,0,2.384s5.471,8.145,8.1,8.145,6.281-1.788,9.322-1.788,4.034.6,7.014,0,2.643.6,6.586,0a19.1,19.1,0,0,1,6.526,0s.993,1.589-.993,1.788-4.768,1.2-6.953,1.194-.994,0-5.165,0-4.294-.4-7.014,0-2.124,0-5.5.991-2.934.595-5.043,1.191a9.718,9.718,0,0,1-4.432,0h-2.445a17.618,17.618,0,0,1,0,4.8,18.118,18.118,0,0,0,0,6.547c.4,2.162,1.391,2.36,0,7.128s-1.36,3.5-1.375,7.711,2.033,1.727,2.6,8.729-.168,16.14,0,17.729-.366,23.243,0,26.223,1.681,17.283,1.222,20.263.459,13.906,0,15.893,0,14.9,0,14.9v6.686Z" transform="translate(-3087.24 -1675.699)" fill="#3c7743"/>
  <path id="Tree_Group_1" data-name="Tree Group 1" d="M1990,2031V1673.632h5.967l-5.967-11.8,3.017-11.064-3.017-7.376,5.967-2.95-5.967-4.426,10.393-8.114-4.426-5.163v-7.376l-2.95-3.688,7.376-22.128v22.128h8.114l2.522,5.612h-8.344l5.822,5.452-4.232,11.832,15.1-2.185,2.583,2.185-11.92,9.734-2.583,6.463h5.761l6.158-8.648,2.583,11.92,5.761,1.391-1.589,3.775-2.583,5.563-8.145,2.98-7.946,5.887h7.946l14.1-5.887-13.31,17.681,9.933-2.384,10.926-7.152-1.391,7.152s-1.986,4.37-2.583,5.165,8.344,2.781,8.344,2.781l-11.92,5.165-10.132,5.562,15.1,2.185-9.933,12.516,12.516.993,11.125-8.344-2.781,22.051h6.754l-9.337,3.775-5.761,7.748,2.384,7.946.993-7.946,14.9-1.589-1.788-6.158-5.364-10.132,2.185-16.687-3.178-10.728,18.674,11.721-12.317-19.27,12.317,6.357s7.549-.6,6.953,0-10.927-5.563-11.522-6.357-5.96-11.721-5.96-11.721,2.781-.4,3.576,0,2.384-12.317,2.384-12.317l8.741,7.874h2.781l-11.522-16.813L2073.8,1660l-3.774-13.31,6.158-3.3-6.158-4.451s8.542-6.158,8.344-6.556,0-22.051,0-22.051l4.371,16.29v6.953l5.165,2.439-6.556,1.137,1.391,6.239-4.371,5.482,13.906,7.946h-9.536l-1.391,5.012,5.563,2.935-1.192,6.953,3.178,6.357,7.152-6.357s-3.576,16.489-3.774,16.489h-5.364l-4.172,6.754,6.158-2.781,10.132-2.384-4.967,6.357v7.748l9.734-4.569,5.96-16.29v13.112l-6.953,9.734,2.185,5.96,9.138,3.178-10.33,2.384,3.377,5.364,4.172,1.192v4.768l-7.549.795-4.768-4.768-4.967,2.98s-4.768,5.761-4.172,6.158,9.138,0,9.138,0l8.145-1.589-9.734,10.33v2.583l6.357-1.589s3.576-5.165,4.569-5.562,8.94-6.953,8.94-6.953v11.522c0,.6,7.426,3.975,7.426,3.975l16.2-1.393-12.989-14.1s23.733,2.978,24.726,2.781,20.859,1.989,20.859,1.989l18.078-1.989-11.721-5.165s17.283-2.779,18.277-3.176,15.893-1.591,15.893-1.591v-8.94l-24.237,8.94h-12.913l-5.761-6.556-17.085-.993,21.257-6.156-34.384-2.187-5.348-8.741h21.455l-2.98-7.152h21.257l20.065-6.156.795-9.337-16.29,7.35-7.351-7.35-16.29-4.969-13.632-6.953,20.982-1.786,11.721,4.766,14.5-2.98,7.549-5.562h-14.1l-7.947-5.163s-4.966-10.372-5.96-10.649-3.377-5.442-3.377-5.442l13.906,4.569,9.933-3.578,14.3-1.788s-.4-8.54-1.987-9.732-12.317-6.556-12.317-6.556l-5.364,1.391-1.192-8.94h-12.118s-7.549-11.522-8.542-11.92,14.1.993,14.1.993v-7.152s12.714,4.768,13.112,4.768,4.172-8.94,4.768-8.94,6.953,4.966,9.536,5.761,17.482-1.987,18.078-1.589.993-5.562,0-6.158-21.058-2.384-21.058-2.384-17.283-4.569-17.879-5.562-6.556-8.344-6.556-8.344,7.549.6,7.748,0,6.556-6.953,6.556-6.953,12.714,3.576,13.906,3.973,13.707.795,15.5.795,15.893-3.178,16.886-4.768,6.556-8.344,6.556-8.344l-21.654,3.179s-14.3.2-15.5,0-7.549-6.953-7.549-6.953l-8.145,1.788-5.165-3.973-7.152-5.165-9.337-5.165-.795-3.377,12.516,3.377,9.933-3.377s13.708,1.589,13.906,3.377,12.317,4.967,13.906,5.165,23.839.993,25.031,0,6.556-5.165,6.556-5.165-7.549-4.768-8.344-4.768-12.714,0-14.1-.795-6.158-5.165-7.549-5.562-10.529-3.576-11.721-3.973a10.309,10.309,0,0,1-3.774-3.179c-.2-.6,1.192-2.781,1.788-3.377a46.811,46.811,0,0,0,2.781-4.768s-4.172-2.781-4.569-3.179-6.159-4.768-5.761-5.364,7.549,0,7.549,0l-2.583-7.35,14.7,7.35,11.323-2.781-5.165-12.714s13.509,3.377,15.1,3.576,3.774-5.165,3.774-5.165l-21.654-14.5,12.317,2.98,9.337,1.391-6.556-14.1L2233.133,1452l8.94,4.967,4.172-19.27,4.172,14.3,8.344-2.384-4.768,8.741v19.27l8.344-12.714,2.98,5.165,12.714-8.94-4.967,8.94-8.741,7.549,16.092-.993-16.092,6.755-8.145,1.987s-2.384,6.754-2.185,7.35,1.987,6.158,2.185,6.158,1.589,11.522,1.589,11.522l10.132-6.953s6.953-8.741,7.35-9.138,3.775-4.569,4.371-5.165,4.768,0,5.761,0,12.516-11.522,12.516-11.522l-6.953,11.522s-8.741,8.741-9.536,9.734-2.781,5.364-4.172,6.556,18.078-3.377,18.674-3.377,7.549-3.179,7.549-3.179l-8.344,7.35-13.708,5.364-12.516,6.158,14.9,3.377s13.509-.4,14.1,0,7.152-1.589,7.152-1.589l-7.152,5.165-19.866,1.391-9.138-1.391s-2.781,4.37-2.781,5.364a53.472,53.472,0,0,0,1.788,6.357s12.913.2,14.9,1.391,6.357,1.391,11.522,1.192,12.317-.4,14.5-1.192a47.24,47.24,0,0,1,7.35-1.391l-6.556,4.768s-8.542,2.384-10.926,2.781-13.707-1.192-14.9,0-9.735,1.391-10.728,1.391h-6.953l-.795,4.37s2.781,1.589,3.576,2.98,13.31,1.788,16.489,1.788,5.761-.795,8.94-.795,11.125-.795,12.317-.993,6.158,0,6.158,0-16.091,4.569-16.886,4.768-17.085.795-19.469,1.589-12.118.795-12.118.795,10.728,2.781,12.913,2.781,11.919.795,13.708.993,9.734-1.589,10.33-1.788,7.748,4.569,7.549,5.761,3.178,2.98,3.178,2.98,7.748-2.384,8.741-2.185,6.357,0,6.357,0l14.5,3.179a29.086,29.086,0,0,0-2.583,3.775c-.4.993-3.377,5.761-3.377,5.761l-8.542,2.781-2.185,2.781-8.741,2.384.993,3.576-15.893-8.741-14.3-1.987-15.1-.795s8.94,8.344,9.536,9.933,9.536,6.953,9.536,6.953,8.741,1.589,9.536,1.987,10.927,1.589,13.509,1.391,17.085-4.569,17.085-4.569l3.178-1.589s-1.391,1.987,0,2.781,13.708-1.192,13.708-1.192l.993,3.179-5.562,3.377-5.364,3.377s.6,3.179,0,4.967-11.919,0-11.919,0-2.583,5.364-2.583,6.158-13.112,4.37-13.112,4.37l-9.138-4.37s-16.886-2.185-17.482-2.185-10.728.795-10.728.795l2.185,10.926s11.522,3.576,11.721,4.37,13.31,1.987,14.3,2.384,6.754.4,8.344,0,13.906-4.172,13.906-4.172-1.788,5.562,0,5.761,9.933-.2,10.728,0,5.761-2.384,5.761-2.384l5.96,5.561,8.741,5.366-1.391,4.172-8.94,8.741s-1.788,2.583-2.781,2.98-14.5,2.781-14.5,2.781-2.384,4.768-3.576,5.563-11.522-3.777-11.522-3.777l-9.536,1.79-8.145,1.19s6.556,9.339,8.145,8.942,17.482-1.788,18.277-1.788,5.96-2.587,7.549-3.181,13.31-1.389,13.31-1.389.6,6.556,1.788,6.357,8.94,0,8.94,0,1.39-4.172,2.384-4.172,7.152,4.172,7.152,4.172l-1.589,9.337-5.562,9.536s-4.172.6-4.569,1.391.795,4.569-1.192,4.966-10.927-.993-10.927-.993,1.987,5.165.993,5.563-7.946,3.775-7.946,3.775l-8.344-2.187-1.987,2.187s5.364,2.781,5.364,2.98,10.33,1.585,11.919,1.786,7.549-1.194,9.933,0,11.125,1.391,11.125,1.391-6.556,9.538-8.145,10.332-5.761,3.969-6.556,4.368-8.542.4-11.323,0-15.694,2.781-15.694,2.781,1.192,9.732,2.384,9.734,7.152-1.194,11.324,0,12.714,2.187,15.694,2.982,12.118,1.192,13.509,1.788,14.556,1.389,14.755,2.183,11.665,278.257,8.091,280.414" transform="translate(-1990 -1437.699)" fill="#3c7743"/>
</svg>
